<?xml version="1.0" encoding="utf-8"?>
<!-- Generator: Adobe Illustrator 16.0.0, SVG Export Plug-In . SVG Version: 6.00 Build 0)  -->
<!DOCTYPE svg PUBLIC "-//W3C//DTD SVG 1.1//EN" "http://www.w3.org/Graphics/SVG/1.1/DTD/svg11.dtd">
<svg version="1.1" id="Layer" xmlns="http://www.w3.org/2000/svg" xmlns:xlink="http://www.w3.org/1999/xlink" x="0px" y="0px"
	 width="220px" height="370px" viewBox="0 0 220 370" enable-background="new 0 0 220 370" xml:space="preserve">
<g id="part">
	<g id="feet">
		<g id="background">
			<rect id="color:skin" x="10" y="190" fill="#CCBBCC" width="20" height="90"/>
			<rect id="color:skin" x="50" y="20" fill="#CCBBCC" width="20" height="90"/>
			<polygon id="color:skin" fill="#F4F4E1" points="60,280 60,190 100,190 100,280 			"/>
			<polygon id="color:skin" fill="#F4F4E1" points="30,280 30,190 60,190 60,280 			"/>
			<polygon id="color:skin" fill="#F4F4E1" points="100,280 100,190 130,190 130,280 			"/>
			<polygon id="color:skin" fill="#F4F4E1" points="70,110 70,20 130,20 130,110 			"/>
			<polygon id="color:skin" fill="#F4F4E1" points="130,280 130,190 210,190 210,280 			"/>
			<polygon id="color:skin" fill="#F4F4E1" points="100,320 70,320 70,360 130,360 130,280 100,280 			"/>
			<polygon id="color:skin" fill="#F4F4E1" points="100,150 70,150 70,110 130,110 130,190 100,190 			"/>
		</g>
		<g id="foreground">
			<rect id="color:1" x="30" y="190" fill="#224455" width="30" height="90"/>
			<rect x="55.5" y="190" opacity="0.5" width="4.5" height="90"/>
			<line fill="none" stroke="#000000" stroke-miterlimit="10" x1="30" y1="235" x2="60" y2="235"/>
			<rect id="color:1" x="70" y="320" fill="#224455" width="30" height="40"/>
			<rect x="95.5" y="320" opacity="0.5" width="4.5" height="40"/>
			<rect id="color:1" x="70" y="20" fill="#224455" width="30" height="130"/>
			<rect x="95.5" y="20" opacity="0.5" width="4.5" height="130"/>
			<line fill="none" stroke="#000000" stroke-miterlimit="10" x1="70" y1="65" x2="100" y2="65"/>
		</g>
		<g id="border">
			<polygon id="top" opacity="0.25" fill="none" stroke="#0C0C0C" stroke-dasharray="1,3" enable-background="new    " points="
				60,280 60,190 100,190 100,280 			"/>
			<polygon id="leg" opacity="0.25" fill="none" stroke="#0C0C0C" stroke-dasharray="1,3" enable-background="new    " points="
				30,280 30,190 60,190 60,280 			"/>
			<polygon id="toe" opacity="0.25" fill="none" stroke="#0C0C0C" stroke-dasharray="1,3" enable-background="new    " points="
				100,280 100,190 130,190 130,280 			"/>
			<polygon id="back" opacity="0.25" fill="none" stroke="#0C0C0C" stroke-dasharray="1,3" enable-background="new    " points="
				70,110 70,20 130,20 130,110 			"/>
			<polygon id="bottom" opacity="0.25" fill="none" stroke="#0C0C0C" stroke-dasharray="1,3" enable-background="new    " points="
				130,280 130,190 210,190 210,280 			"/>
			<polygon id="right" opacity="0.25" fill="none" stroke="#0C0C0C" stroke-dasharray="1,3" enable-background="new    " points="
				100,320 70,320 70,360 130,360 130,280 100,280 			"/>
			<polygon id="left" opacity="0.25" fill="none" stroke="#0C0C0C" stroke-dasharray="1,3" enable-background="new    " points="
				100,150 70,150 70,110 130,110 130,190 100,190 			"/>
		</g>
		<g id="outline">
			<polygon fill="none" stroke="#000000" stroke-miterlimit="10" points="80,310 70,320 70,360 130,360 140,350 140,290 130,280 
				210,280 210,190 130,190 140,180 140,120 130,110 140,100 140,30 120,10 80,10 70,20 50,20 50,110 70,110 70,150 80,160 90,160 
				100,150 100,190 90,180 70,180 60,190 10,190 10,280 60,280 70,290 90,290 100,280 100,320 90,310 			"/>
		</g>
	</g>
</g>
</svg>
