<?xml version="1.0" encoding="utf-8"?>
<!-- Generator: Adobe Illustrator 16.0.0, SVG Export Plug-In . SVG Version: 6.00 Build 0)  -->
<!DOCTYPE svg PUBLIC "-//W3C//DTD SVG 1.1//EN" "http://www.w3.org/Graphics/SVG/1.1/DTD/svg11.dtd">
<svg version="1.1" id="Layer" xmlns="http://www.w3.org/2000/svg" xmlns:xlink="http://www.w3.org/1999/xlink" x="0px" y="0px"
	 width="220px" height="370px" viewBox="0 0 220 370" enable-background="new 0 0 220 370" xml:space="preserve">
<g id="part">
	<g id="feet">
		<g id="background">
			<rect id="color:skin" x="10" y="190" fill="#CCBBCC" width="20" height="90"/>
			<rect id="color:skin" x="50" y="20" fill="#CCBBCC" width="20" height="90"/>
			<polygon id="color:skin" fill="#F4F4E1" points="60,280 60,190 100,190 100,280 			"/>
			<polygon id="color:skin" fill="#F4F4E1" points="30,280 30,190 60,190 60,280 			"/>
			<polygon id="color:skin" fill="#F4F4E1" points="100,280 100,190 130,190 130,280 			"/>
			<polygon id="color:skin" fill="#F4F4E1" points="70,110 70,20 130,20 130,110 			"/>
			<polygon id="color:skin" fill="#F4F4E1" points="130,280 130,190 210,190 210,280 			"/>
			<polygon id="color:skin" fill="#F4F4E1" points="100,320 70,320 70,360 130,360 130,280 100,280 			"/>
			<polygon id="color:skin" fill="#F4F4E1" points="100,150 70,150 70,110 130,110 130,190 100,190 			"/>
		</g>
		<g id="foreground">
			<path id="color:3" fill="#FFFFFF" d="M97.5,189.5v45H50l10-3.1c0,0-16,2.7-16-19c0-22.8,16-21,16-21l-10-2H97.5z"/>
			<path id="color:3" fill="#FFFFFF" d="M97.5,235.5v44H50l10-3.1c0,0-16,2.7-16-19c0-22.8,16-20,16-20l-10-2H97.5z"/>
			<path id="color:3" fill="#FFFFFF" d="M129.5,19.5v340H98c0,0-0.6-14.6-1.8-19.5c-1.3-5.1-8.2-20.5-8.2-20.5h11.5v-170H90
				c0,0,4.6-15.2,5.8-20.2c1.2-5,1.7-20.2,1.7-20.2l0,0V19.5H129.5z"/>
			<path id="color:1" fill="#3322BB" d="M99.5,189.5v45H52l10-3.1c0,0-16,2.7-16-19c0-22.8,16-21,16-21l-10-2H99.5z"/>
			
				<rect x="71" y="202" transform="matrix(-0.7072 -0.707 0.707 -0.7072 -26.9603 412.8354)" id="color:3" fill="#FFFFFF" width="2" height="20"/>
			
				<rect x="77" y="202" transform="matrix(-0.7072 -0.707 0.707 -0.7072 -16.7169 417.0773)" id="color:3" fill="#FFFFFF" width="2" height="20"/>
			<rect x="71" y="202" transform="matrix(0.7072 -0.707 0.707 0.7072 -128.8019 112.9707)" id="color:3" fill="#FFFFFF" width="2" height="20"/>
			<rect x="77" y="202" transform="matrix(0.7072 -0.707 0.707 0.7072 -127.0453 117.2126)" id="color:3" fill="#FFFFFF" width="2" height="20"/>
			<path id="color:1" fill="#3322BB" d="M99.5,235.5v44H52l10-3.1c0,0-16,2.7-16-19c0-22.8,16-20,16-20l-10-2H99.5z"/>
			<path id="color:1" fill="#3322BB" d="M129.5,19.5v340H100c0,0-0.6-14.6-1.8-19.5c-1.3-5.1-8.2-20.5-8.2-20.5h9.5v-170H92
				c0,0,4.6-15.2,5.8-20.2c1.2-5,1.7-20.2,1.7-20.2l0,0V19.5H129.5z"/>
			<path id="color:3" fill="#FFFFFF" d="M129.5,170.5v64H102c0,0-12-0.2-12-22.2c0-8.4,4.4-16.2,10-22.9c9.4-11.3,22-18.9,22-18.9H129.5z"/>
			<path id="color:3" fill="#FFFFFF" d="M129.5,235.5v64H122c0,0-32-20-32-42c0-22.5,12-22,12-22H129.5z"/>
			<path id="color:3" fill="#FFFFFF" d="M121.5,19.5c0,0,0,28.8,0,38.5c0,1.6,1,6.5,1,6.5s-1,4.9-1,6.5c0,72,0,288.5,0,288.5h8v-340H121.5z"/>
			<rect x="124.5" y="19.5" id="color:2" fill="#FF3333" width="2" height="340"/>
			<path id="color:2" fill="#FF3333" d="M119.5,19.5c0,0,0,28.8,0,38.5c0,1.6,1,6.5,1,6.5s-1,4.9-1,6.5c0,24.8,0,99,0,99s-1.8,19-1.8,42
				c0,22.5,2.1,22.5,2.1,22.5s-2.2,0.5-2.2,22.5s1.8,42,1.8,42v60.5h2c0,0,0-216.5,0-288.5c0-1.6,1-6.5,1-6.5s-1-4.9-1-6.5
				c0-9.8,0-38.5,0-38.5H119.5z"/>
			<path id="color:3" fill="#FFFFFF" d="M129.5,235.5v64H122c0,0-2-20-2-42c0-22.5,2-22,2-22H129.5z"/>
			<path id="color:3" fill="#FFFFFF" d="M129.5,234.5v-64H122c0,0-2,20-2,42c0,22.5,2,22,2,22H129.5z"/>
			<rect x="126" y="297" fill="#CCCCCC" width="1" height="1"/>
			<rect x="125" y="296" fill="#CCCCCC" width="1" height="1"/>
			<rect x="127" y="296" fill="#CCCCCC" width="1" height="1"/>
			<rect x="126" y="295" fill="#CCCCCC" width="1" height="1"/>
			<rect x="127" y="294" fill="#CCCCCC" width="1" height="1"/>
			<rect x="125" y="294" fill="#CCCCCC" width="1" height="1"/>
			<rect x="124" y="297" fill="#CCCCCC" width="1" height="1"/>
			<rect x="124" y="295" fill="#CCCCCC" width="1" height="1"/>
			<rect x="124" y="293" fill="#CCCCCC" width="1" height="1"/>
			<rect x="123" y="296" fill="#CCCCCC" width="1" height="1"/>
			<rect x="123" y="294" fill="#CCCCCC" width="1" height="1"/>
			<rect x="126" y="293" fill="#CCCCCC" width="1" height="1"/>
			<rect x="127" y="292" fill="#CCCCCC" width="1" height="1"/>
			<rect x="125" y="292" fill="#CCCCCC" width="1" height="1"/>
			<rect x="123" y="292" fill="#CCCCCC" width="1" height="1"/>
			<rect x="126" y="291" fill="#CCCCCC" width="1" height="1"/>
			<rect x="125" y="290" fill="#CCCCCC" width="1" height="1"/>
			<rect x="127" y="290" fill="#CCCCCC" width="1" height="1"/>
			<rect x="126" y="289" fill="#CCCCCC" width="1" height="1"/>
			<rect x="127" y="288" fill="#CCCCCC" width="1" height="1"/>
			<rect x="125" y="288" fill="#CCCCCC" width="1" height="1"/>
			<rect x="124" y="291" fill="#CCCCCC" width="1" height="1"/>
			<rect x="124" y="289" fill="#CCCCCC" width="1" height="1"/>
			<rect x="124" y="287" fill="#CCCCCC" width="1" height="1"/>
			<rect x="123" y="290" fill="#CCCCCC" width="1" height="1"/>
			<rect x="123" y="288" fill="#CCCCCC" width="1" height="1"/>
			<rect x="126" y="287" fill="#CCCCCC" width="1" height="1"/>
			<rect x="127" y="286" fill="#CCCCCC" width="1" height="1"/>
			<rect x="125" y="286" fill="#CCCCCC" width="1" height="1"/>
			<rect x="123" y="286" fill="#CCCCCC" width="1" height="1"/>
			<rect x="126" y="285" fill="#CCCCCC" width="1" height="1"/>
			<rect x="125" y="284" fill="#CCCCCC" width="1" height="1"/>
			<rect x="127" y="284" fill="#CCCCCC" width="1" height="1"/>
			<rect x="126" y="283" fill="#CCCCCC" width="1" height="1"/>
			<rect x="127" y="282" fill="#CCCCCC" width="1" height="1"/>
			<rect x="125" y="282" fill="#CCCCCC" width="1" height="1"/>
			<rect x="124" y="285" fill="#CCCCCC" width="1" height="1"/>
			<rect x="124" y="283" fill="#CCCCCC" width="1" height="1"/>
			<rect x="124" y="281" fill="#CCCCCC" width="1" height="1"/>
			<rect x="123" y="284" fill="#CCCCCC" width="1" height="1"/>
			<rect x="123" y="282" fill="#CCCCCC" width="1" height="1"/>
			<rect x="126" y="281" fill="#CCCCCC" width="1" height="1"/>
			<rect x="127" y="280" fill="#CCCCCC" width="1" height="1"/>
			<rect x="125" y="280" fill="#CCCCCC" width="1" height="1"/>
			<rect x="123" y="280" fill="#CCCCCC" width="1" height="1"/>
			<rect x="126" y="279" fill="#CCCCCC" width="1" height="1"/>
			<rect x="125" y="278" fill="#CCCCCC" width="1" height="1"/>
			<rect x="127" y="278" fill="#CCCCCC" width="1" height="1"/>
			<rect x="126" y="277" fill="#CCCCCC" width="1" height="1"/>
			<rect x="127" y="276" fill="#CCCCCC" width="1" height="1"/>
			<rect x="125" y="276" fill="#CCCCCC" width="1" height="1"/>
			<rect x="124" y="279" fill="#CCCCCC" width="1" height="1"/>
			<rect x="124" y="277" fill="#CCCCCC" width="1" height="1"/>
			<rect x="124" y="275" fill="#CCCCCC" width="1" height="1"/>
			<rect x="123" y="278" fill="#CCCCCC" width="1" height="1"/>
			<rect x="123" y="276" fill="#CCCCCC" width="1" height="1"/>
			<rect x="126" y="275" fill="#CCCCCC" width="1" height="1"/>
			<rect x="127" y="274" fill="#CCCCCC" width="1" height="1"/>
			<rect x="125" y="274" fill="#CCCCCC" width="1" height="1"/>
			<rect x="123" y="274" fill="#CCCCCC" width="1" height="1"/>
			<rect x="126" y="273" fill="#CCCCCC" width="1" height="1"/>
			<rect x="125" y="272" fill="#CCCCCC" width="1" height="1"/>
			<rect x="127" y="272" fill="#CCCCCC" width="1" height="1"/>
			<rect x="126" y="271" fill="#CCCCCC" width="1" height="1"/>
			<rect x="127" y="270" fill="#CCCCCC" width="1" height="1"/>
			<rect x="125" y="270" fill="#CCCCCC" width="1" height="1"/>
			<rect x="124" y="273" fill="#CCCCCC" width="1" height="1"/>
			<rect x="124" y="271" fill="#CCCCCC" width="1" height="1"/>
			<rect x="124" y="269" fill="#CCCCCC" width="1" height="1"/>
			<rect x="123" y="272" fill="#CCCCCC" width="1" height="1"/>
			<rect x="123" y="270" fill="#CCCCCC" width="1" height="1"/>
			<rect x="126" y="269" fill="#CCCCCC" width="1" height="1"/>
			<rect x="127" y="268" fill="#CCCCCC" width="1" height="1"/>
			<rect x="125" y="268" fill="#CCCCCC" width="1" height="1"/>
			<rect x="123" y="268" fill="#CCCCCC" width="1" height="1"/>
			<rect x="126" y="267" fill="#CCCCCC" width="1" height="1"/>
			<rect x="125" y="266" fill="#CCCCCC" width="1" height="1"/>
			<rect x="127" y="266" fill="#CCCCCC" width="1" height="1"/>
			<rect x="126" y="265" fill="#CCCCCC" width="1" height="1"/>
			<rect x="127" y="264" fill="#CCCCCC" width="1" height="1"/>
			<rect x="125" y="264" fill="#CCCCCC" width="1" height="1"/>
			<rect x="124" y="267" fill="#CCCCCC" width="1" height="1"/>
			<rect x="124" y="265" fill="#CCCCCC" width="1" height="1"/>
			<rect x="124" y="263" fill="#CCCCCC" width="1" height="1"/>
			<rect x="123" y="266" fill="#CCCCCC" width="1" height="1"/>
			<rect x="123" y="264" fill="#CCCCCC" width="1" height="1"/>
			<rect x="126" y="263" fill="#CCCCCC" width="1" height="1"/>
			<rect x="127" y="262" fill="#CCCCCC" width="1" height="1"/>
			<rect x="125" y="262" fill="#CCCCCC" width="1" height="1"/>
			<rect x="123" y="262" fill="#CCCCCC" width="1" height="1"/>
			<rect x="126" y="261" fill="#CCCCCC" width="1" height="1"/>
			<rect x="125" y="260" fill="#CCCCCC" width="1" height="1"/>
			<rect x="127" y="260" fill="#CCCCCC" width="1" height="1"/>
			<rect x="126" y="259" fill="#CCCCCC" width="1" height="1"/>
			<rect x="127" y="258" fill="#CCCCCC" width="1" height="1"/>
			<rect x="125" y="258" fill="#CCCCCC" width="1" height="1"/>
			<rect x="124" y="261" fill="#CCCCCC" width="1" height="1"/>
			<rect x="124" y="259" fill="#CCCCCC" width="1" height="1"/>
			<rect x="124" y="257" fill="#CCCCCC" width="1" height="1"/>
			<rect x="123" y="260" fill="#CCCCCC" width="1" height="1"/>
			<rect x="123" y="258" fill="#CCCCCC" width="1" height="1"/>
			<rect x="126" y="257" fill="#CCCCCC" width="1" height="1"/>
			<rect x="127" y="256" fill="#CCCCCC" width="1" height="1"/>
			<rect x="125" y="256" fill="#CCCCCC" width="1" height="1"/>
			<rect x="123" y="256" fill="#CCCCCC" width="1" height="1"/>
			<rect x="126" y="255" fill="#CCCCCC" width="1" height="1"/>
			<rect x="125" y="254" fill="#CCCCCC" width="1" height="1"/>
			<rect x="127" y="254" fill="#CCCCCC" width="1" height="1"/>
			<rect x="126" y="253" fill="#CCCCCC" width="1" height="1"/>
			<rect x="127" y="252" fill="#CCCCCC" width="1" height="1"/>
			<rect x="125" y="252" fill="#CCCCCC" width="1" height="1"/>
			<rect x="124" y="255" fill="#CCCCCC" width="1" height="1"/>
			<rect x="124" y="253" fill="#CCCCCC" width="1" height="1"/>
			<rect x="124" y="251" fill="#CCCCCC" width="1" height="1"/>
			<rect x="123" y="254" fill="#CCCCCC" width="1" height="1"/>
			<rect x="123" y="252" fill="#CCCCCC" width="1" height="1"/>
			<rect x="126" y="251" fill="#CCCCCC" width="1" height="1"/>
			<rect x="127" y="250" fill="#CCCCCC" width="1" height="1"/>
			<rect x="125" y="250" fill="#CCCCCC" width="1" height="1"/>
			<rect x="123" y="250" fill="#CCCCCC" width="1" height="1"/>
			<rect x="126" y="249" fill="#CCCCCC" width="1" height="1"/>
			<rect x="125" y="248" fill="#CCCCCC" width="1" height="1"/>
			<rect x="127" y="248" fill="#CCCCCC" width="1" height="1"/>
			<rect x="126" y="247" fill="#CCCCCC" width="1" height="1"/>
			<rect x="127" y="246" fill="#CCCCCC" width="1" height="1"/>
			<rect x="125" y="246" fill="#CCCCCC" width="1" height="1"/>
			<rect x="124" y="249" fill="#CCCCCC" width="1" height="1"/>
			<rect x="124" y="247" fill="#CCCCCC" width="1" height="1"/>
			<rect x="124" y="245" fill="#CCCCCC" width="1" height="1"/>
			<rect x="123" y="248" fill="#CCCCCC" width="1" height="1"/>
			<rect x="123" y="246" fill="#CCCCCC" width="1" height="1"/>
			<rect x="126" y="245" fill="#CCCCCC" width="1" height="1"/>
			<rect x="127" y="244" fill="#CCCCCC" width="1" height="1"/>
			<rect x="125" y="244" fill="#CCCCCC" width="1" height="1"/>
			<rect x="123" y="244" fill="#CCCCCC" width="1" height="1"/>
			<rect x="126" y="243" fill="#CCCCCC" width="1" height="1"/>
			<rect x="125" y="242" fill="#CCCCCC" width="1" height="1"/>
			<rect x="127" y="242" fill="#CCCCCC" width="1" height="1"/>
			<rect x="126" y="241" fill="#CCCCCC" width="1" height="1"/>
			<rect x="127" y="240" fill="#CCCCCC" width="1" height="1"/>
			<rect x="125" y="240" fill="#CCCCCC" width="1" height="1"/>
			<rect x="124" y="243" fill="#CCCCCC" width="1" height="1"/>
			<rect x="124" y="241" fill="#CCCCCC" width="1" height="1"/>
			<rect x="124" y="239" fill="#CCCCCC" width="1" height="1"/>
			<rect x="123" y="242" fill="#CCCCCC" width="1" height="1"/>
			<rect x="123" y="240" fill="#CCCCCC" width="1" height="1"/>
			<rect x="126" y="239" fill="#CCCCCC" width="1" height="1"/>
			<rect x="127" y="238" fill="#CCCCCC" width="1" height="1"/>
			<rect x="125" y="238" fill="#CCCCCC" width="1" height="1"/>
			<rect x="123" y="238" fill="#CCCCCC" width="1" height="1"/>
			<rect x="126" y="237" fill="#CCCCCC" width="1" height="1"/>
			<rect x="125" y="236" fill="#CCCCCC" width="1" height="1"/>
			<rect x="127" y="236" fill="#CCCCCC" width="1" height="1"/>
			<rect x="126" y="235" fill="#CCCCCC" width="1" height="1"/>
			<rect x="127" y="234" fill="#CCCCCC" width="1" height="1"/>
			<rect x="125" y="234" fill="#CCCCCC" width="1" height="1"/>
			<rect x="124" y="237" fill="#CCCCCC" width="1" height="1"/>
			<rect x="124" y="235" fill="#CCCCCC" width="1" height="1"/>
			<rect x="123" y="236" fill="#CCCCCC" width="1" height="1"/>
			<rect x="123" y="234" fill="#CCCCCC" width="1" height="1"/>
			<rect x="124" y="233" fill="#CCCCCC" width="1" height="1"/>
			<rect x="126" y="233" fill="#CCCCCC" width="1" height="1"/>
			<rect x="127" y="232" fill="#CCCCCC" width="1" height="1"/>
			<rect x="125" y="232" fill="#CCCCCC" width="1" height="1"/>
			<rect x="123" y="232" fill="#CCCCCC" width="1" height="1"/>
			<rect x="126" y="231" fill="#CCCCCC" width="1" height="1"/>
			<rect x="125" y="230" fill="#CCCCCC" width="1" height="1"/>
			<rect x="127" y="230" fill="#CCCCCC" width="1" height="1"/>
			<rect x="126" y="229" fill="#CCCCCC" width="1" height="1"/>
			<rect x="127" y="228" fill="#CCCCCC" width="1" height="1"/>
			<rect x="125" y="228" fill="#CCCCCC" width="1" height="1"/>
			<rect x="124" y="231" fill="#CCCCCC" width="1" height="1"/>
			<rect x="124" y="229" fill="#CCCCCC" width="1" height="1"/>
			<rect x="123" y="230" fill="#CCCCCC" width="1" height="1"/>
			<rect x="123" y="228" fill="#CCCCCC" width="1" height="1"/>
			<rect x="124" y="227" fill="#CCCCCC" width="1" height="1"/>
			<rect x="126" y="227" fill="#CCCCCC" width="1" height="1"/>
			<rect x="127" y="226" fill="#CCCCCC" width="1" height="1"/>
			<rect x="125" y="226" fill="#CCCCCC" width="1" height="1"/>
			<rect x="123" y="226" fill="#CCCCCC" width="1" height="1"/>
			<rect x="126" y="225" fill="#CCCCCC" width="1" height="1"/>
			<rect x="125" y="224" fill="#CCCCCC" width="1" height="1"/>
			<rect x="127" y="224" fill="#CCCCCC" width="1" height="1"/>
			<rect x="126" y="223" fill="#CCCCCC" width="1" height="1"/>
			<rect x="127" y="222" fill="#CCCCCC" width="1" height="1"/>
			<rect x="125" y="222" fill="#CCCCCC" width="1" height="1"/>
			<rect x="124" y="225" fill="#CCCCCC" width="1" height="1"/>
			<rect x="124" y="223" fill="#CCCCCC" width="1" height="1"/>
			<rect x="123" y="224" fill="#CCCCCC" width="1" height="1"/>
			<rect x="123" y="222" fill="#CCCCCC" width="1" height="1"/>
			<rect x="124" y="221" fill="#CCCCCC" width="1" height="1"/>
			<rect x="126" y="221" fill="#CCCCCC" width="1" height="1"/>
			<rect x="127" y="220" fill="#CCCCCC" width="1" height="1"/>
			<rect x="125" y="220" fill="#CCCCCC" width="1" height="1"/>
			<rect x="123" y="220" fill="#CCCCCC" width="1" height="1"/>
			<rect x="126" y="219" fill="#CCCCCC" width="1" height="1"/>
			<rect x="125" y="218" fill="#CCCCCC" width="1" height="1"/>
			<rect x="127" y="218" fill="#CCCCCC" width="1" height="1"/>
			<rect x="126" y="217" fill="#CCCCCC" width="1" height="1"/>
			<rect x="127" y="216" fill="#CCCCCC" width="1" height="1"/>
			<rect x="125" y="216" fill="#CCCCCC" width="1" height="1"/>
			<rect x="124" y="219" fill="#CCCCCC" width="1" height="1"/>
			<rect x="124" y="217" fill="#CCCCCC" width="1" height="1"/>
			<rect x="123" y="218" fill="#CCCCCC" width="1" height="1"/>
			<rect x="123" y="216" fill="#CCCCCC" width="1" height="1"/>
			<rect x="124" y="215" fill="#CCCCCC" width="1" height="1"/>
			<rect x="126" y="215" fill="#CCCCCC" width="1" height="1"/>
			<rect x="127" y="214" fill="#CCCCCC" width="1" height="1"/>
			<rect x="125" y="214" fill="#CCCCCC" width="1" height="1"/>
			<rect x="123" y="214" fill="#CCCCCC" width="1" height="1"/>
			<rect x="126" y="213" fill="#CCCCCC" width="1" height="1"/>
			<rect x="125" y="212" fill="#CCCCCC" width="1" height="1"/>
			<rect x="127" y="212" fill="#CCCCCC" width="1" height="1"/>
			<rect x="126" y="211" fill="#CCCCCC" width="1" height="1"/>
			<rect x="127" y="210" fill="#CCCCCC" width="1" height="1"/>
			<rect x="125" y="210" fill="#CCCCCC" width="1" height="1"/>
			<rect x="124" y="213" fill="#CCCCCC" width="1" height="1"/>
			<rect x="124" y="211" fill="#CCCCCC" width="1" height="1"/>
			<rect x="123" y="212" fill="#CCCCCC" width="1" height="1"/>
			<rect x="123" y="210" fill="#CCCCCC" width="1" height="1"/>
			<rect x="124" y="209" fill="#CCCCCC" width="1" height="1"/>
			<rect x="126" y="209" fill="#CCCCCC" width="1" height="1"/>
			<rect x="127" y="208" fill="#CCCCCC" width="1" height="1"/>
			<rect x="125" y="208" fill="#CCCCCC" width="1" height="1"/>
			<rect x="123" y="208" fill="#CCCCCC" width="1" height="1"/>
			<rect x="126" y="207" fill="#CCCCCC" width="1" height="1"/>
			<rect x="125" y="206" fill="#CCCCCC" width="1" height="1"/>
			<rect x="127" y="206" fill="#CCCCCC" width="1" height="1"/>
			<rect x="126" y="205" fill="#CCCCCC" width="1" height="1"/>
			<rect x="127" y="204" fill="#CCCCCC" width="1" height="1"/>
			<rect x="125" y="204" fill="#CCCCCC" width="1" height="1"/>
			<rect x="124" y="207" fill="#CCCCCC" width="1" height="1"/>
			<rect x="124" y="205" fill="#CCCCCC" width="1" height="1"/>
			<rect x="123" y="206" fill="#CCCCCC" width="1" height="1"/>
			<rect x="123" y="204" fill="#CCCCCC" width="1" height="1"/>
			<rect x="124" y="203" fill="#CCCCCC" width="1" height="1"/>
			<rect x="126" y="203" fill="#CCCCCC" width="1" height="1"/>
			<rect x="127" y="202" fill="#CCCCCC" width="1" height="1"/>
			<rect x="125" y="202" fill="#CCCCCC" width="1" height="1"/>
			<rect x="123" y="202" fill="#CCCCCC" width="1" height="1"/>
			<rect x="126" y="201" fill="#CCCCCC" width="1" height="1"/>
			<rect x="125" y="200" fill="#CCCCCC" width="1" height="1"/>
			<rect x="127" y="200" fill="#CCCCCC" width="1" height="1"/>
			<rect x="126" y="199" fill="#CCCCCC" width="1" height="1"/>
			<rect x="127" y="198" fill="#CCCCCC" width="1" height="1"/>
			<rect x="125" y="198" fill="#CCCCCC" width="1" height="1"/>
			<rect x="124" y="201" fill="#CCCCCC" width="1" height="1"/>
			<rect x="124" y="199" fill="#CCCCCC" width="1" height="1"/>
			<rect x="123" y="200" fill="#CCCCCC" width="1" height="1"/>
			<rect x="123" y="198" fill="#CCCCCC" width="1" height="1"/>
			<rect x="124" y="197" fill="#CCCCCC" width="1" height="1"/>
			<rect x="126" y="197" fill="#CCCCCC" width="1" height="1"/>
			<rect x="127" y="196" fill="#CCCCCC" width="1" height="1"/>
			<rect x="125" y="196" fill="#CCCCCC" width="1" height="1"/>
			<rect x="123" y="196" fill="#CCCCCC" width="1" height="1"/>
			<rect x="126" y="195" fill="#CCCCCC" width="1" height="1"/>
			<rect x="125" y="194" fill="#CCCCCC" width="1" height="1"/>
			<rect x="127" y="194" fill="#CCCCCC" width="1" height="1"/>
			<rect x="126" y="193" fill="#CCCCCC" width="1" height="1"/>
			<rect x="127" y="192" fill="#CCCCCC" width="1" height="1"/>
			<rect x="125" y="192" fill="#CCCCCC" width="1" height="1"/>
			<rect x="124" y="195" fill="#CCCCCC" width="1" height="1"/>
			<rect x="124" y="193" fill="#CCCCCC" width="1" height="1"/>
			<rect x="123" y="194" fill="#CCCCCC" width="1" height="1"/>
			<rect x="123" y="192" fill="#CCCCCC" width="1" height="1"/>
			<rect x="124" y="191" fill="#CCCCCC" width="1" height="1"/>
			<rect x="126" y="191" fill="#CCCCCC" width="1" height="1"/>
			<rect x="127" y="190" fill="#CCCCCC" width="1" height="1"/>
			<rect x="125" y="190" fill="#CCCCCC" width="1" height="1"/>
			<rect x="123" y="190" fill="#CCCCCC" width="1" height="1"/>
			<rect x="126" y="189" fill="#CCCCCC" width="1" height="1"/>
			<rect x="125" y="188" fill="#CCCCCC" width="1" height="1"/>
			<rect x="127" y="188" fill="#CCCCCC" width="1" height="1"/>
			<rect x="126" y="187" fill="#CCCCCC" width="1" height="1"/>
			<rect x="127" y="186" fill="#CCCCCC" width="1" height="1"/>
			<rect x="125" y="186" fill="#CCCCCC" width="1" height="1"/>
			<rect x="124" y="189" fill="#CCCCCC" width="1" height="1"/>
			<rect x="124" y="187" fill="#CCCCCC" width="1" height="1"/>
			<rect x="123" y="188" fill="#CCCCCC" width="1" height="1"/>
			<rect x="123" y="186" fill="#CCCCCC" width="1" height="1"/>
			<rect x="124" y="185" fill="#CCCCCC" width="1" height="1"/>
			<rect x="126" y="185" fill="#CCCCCC" width="1" height="1"/>
			<rect x="127" y="184" fill="#CCCCCC" width="1" height="1"/>
			<rect x="125" y="184" fill="#CCCCCC" width="1" height="1"/>
			<rect x="123" y="184" fill="#CCCCCC" width="1" height="1"/>
			<rect x="126" y="183" fill="#CCCCCC" width="1" height="1"/>
			<rect x="125" y="182" fill="#CCCCCC" width="1" height="1"/>
			<rect x="127" y="182" fill="#CCCCCC" width="1" height="1"/>
			<rect x="126" y="181" fill="#CCCCCC" width="1" height="1"/>
			<rect x="127" y="180" fill="#CCCCCC" width="1" height="1"/>
			<rect x="125" y="180" fill="#CCCCCC" width="1" height="1"/>
			<rect x="124" y="183" fill="#CCCCCC" width="1" height="1"/>
			<rect x="124" y="181" fill="#CCCCCC" width="1" height="1"/>
			<rect x="123" y="182" fill="#CCCCCC" width="1" height="1"/>
			<rect x="123" y="180" fill="#CCCCCC" width="1" height="1"/>
			<rect x="124" y="179" fill="#CCCCCC" width="1" height="1"/>
			<rect x="126" y="179" fill="#CCCCCC" width="1" height="1"/>
			<rect x="127" y="178" fill="#CCCCCC" width="1" height="1"/>
			<rect x="125" y="178" fill="#CCCCCC" width="1" height="1"/>
			<rect x="123" y="178" fill="#CCCCCC" width="1" height="1"/>
			<rect x="126" y="177" fill="#CCCCCC" width="1" height="1"/>
			<rect x="125" y="176" fill="#CCCCCC" width="1" height="1"/>
			<rect x="127" y="176" fill="#CCCCCC" width="1" height="1"/>
			<rect x="126" y="175" fill="#CCCCCC" width="1" height="1"/>
			<rect x="127" y="174" fill="#CCCCCC" width="1" height="1"/>
			<rect x="125" y="174" fill="#CCCCCC" width="1" height="1"/>
			<rect x="124" y="177" fill="#CCCCCC" width="1" height="1"/>
			<rect x="124" y="175" fill="#CCCCCC" width="1" height="1"/>
			<rect x="123" y="176" fill="#CCCCCC" width="1" height="1"/>
			<rect x="123" y="174" fill="#CCCCCC" width="1" height="1"/>
			<rect x="124" y="173" fill="#CCCCCC" width="1" height="1"/>
			<rect x="126" y="173" fill="#CCCCCC" width="1" height="1"/>
			<rect x="127" y="172" fill="#CCCCCC" width="1" height="1"/>
			<rect x="125" y="172" fill="#CCCCCC" width="1" height="1"/>
			<rect x="123" y="172" fill="#CCCCCC" width="1" height="1"/>
			<rect x="126" y="171" fill="#CCCCCC" width="1" height="1"/>
			<rect x="124" y="171" fill="#CCCCCC" width="1" height="1"/>
			<rect x="129.5" y="189.5" fill="#CCCCCC" width="80" height="90"/>
			<line fill="none" stroke="#000000" stroke-miterlimit="10" x1="129.5" y1="65" x2="69.5" y2="65"/>
			<rect x="119.5" y="77.5" id="color:3" fill="#FFFFFF" width="10" height="20"/>
			<rect x="119.5" y="32.5" id="color:3" fill="#FFFFFF" width="10" height="20"/>
			<polygon id="color:2" fill="#FF3333" points="120.5,87.7 122.5,86.7 122.8,84.4 124.4,86.1 126.6,85.7 125.5,87.7 126.6,89.7 124.4,89.3 
				122.8,90.9 122.5,88.7 			"/>
			<polygon id="color:2" fill="#FF3333" points="120.5,41.7 122.5,40.7 122.8,38.4 124.4,40.1 126.6,39.7 125.5,41.7 126.6,43.7 124.4,43.3 
				122.8,44.9 122.5,42.7 			"/>
			<line fill="none" stroke="#000000" stroke-miterlimit="10" x1="209.5" y1="235" x2="29.5" y2="235"/>
			
				<rect x="71" y="247" transform="matrix(-0.7072 -0.707 0.707 -0.7072 -58.7746 489.6607)" id="color:3" fill="#FFFFFF" width="2" height="20"/>
			
				<rect x="77" y="247" transform="matrix(-0.7072 -0.707 0.707 -0.7072 -48.5312 493.9026)" id="color:3" fill="#FFFFFF" width="2" height="20"/>
			<rect x="71" y="247" transform="matrix(0.7072 -0.707 0.707 0.7072 -160.6162 126.1454)" id="color:3" fill="#FFFFFF" width="2" height="20"/>
			<rect x="77" y="247" transform="matrix(0.7072 -0.707 0.707 0.7072 -158.8596 130.3873)" id="color:3" fill="#FFFFFF" width="2" height="20"/>
			<line fill="none" stroke="#000000" stroke-miterlimit="10" x1="138" y1="206.5" x2="138" y2="218.5"/>
			<line fill="none" stroke="#000000" stroke-miterlimit="10" x1="141" y1="201.5" x2="141" y2="222.5"/>
			<line fill="none" stroke="#000000" stroke-miterlimit="10" x1="144" y1="198.5" x2="144" y2="226.5"/>
			<line fill="none" stroke="#000000" stroke-miterlimit="10" x1="147" y1="196.5" x2="147" y2="228.5"/>
			<line fill="none" stroke="#000000" stroke-miterlimit="10" x1="150" y1="196.5" x2="150" y2="228.5"/>
			<line fill="none" stroke="#000000" stroke-miterlimit="10" x1="153" y1="196.5" x2="153" y2="228.5"/>
			<line fill="none" stroke="#000000" stroke-miterlimit="10" x1="156" y1="196.5" x2="156" y2="228.5"/>
			<line fill="none" stroke="#000000" stroke-miterlimit="10" x1="159" y1="196.5" x2="159" y2="228.5"/>
			<line fill="none" stroke="#000000" stroke-miterlimit="10" x1="138" y1="250.5" x2="138" y2="262.5"/>
			<line fill="none" stroke="#000000" stroke-miterlimit="10" x1="141" y1="245.5" x2="141" y2="266.5"/>
			<line fill="none" stroke="#000000" stroke-miterlimit="10" x1="144" y1="242.5" x2="144" y2="270.5"/>
			<line fill="none" stroke="#000000" stroke-miterlimit="10" x1="147" y1="240.5" x2="147" y2="272.5"/>
			<line fill="none" stroke="#000000" stroke-miterlimit="10" x1="150" y1="240.5" x2="150" y2="272.5"/>
			<line fill="none" stroke="#000000" stroke-miterlimit="10" x1="153" y1="240.5" x2="153" y2="272.5"/>
			<line fill="none" stroke="#000000" stroke-miterlimit="10" x1="156" y1="240.5" x2="156" y2="272.5"/>
			<line fill="none" stroke="#000000" stroke-miterlimit="10" x1="159" y1="240.5" x2="159" y2="272.5"/>
		</g>
		<g id="border">
			<polygon id="top" opacity="0.25" fill="none" stroke="#0C0C0C" stroke-dasharray="1,3" enable-background="new    " points="
				60,280 60,190 100,190 100,280 			"/>
			<polygon id="leg" opacity="0.25" fill="none" stroke="#0C0C0C" stroke-dasharray="1,3" enable-background="new    " points="
				30,280 30,190 60,190 60,280 			"/>
			<polygon id="toe" opacity="0.25" fill="none" stroke="#0C0C0C" stroke-dasharray="1,3" enable-background="new    " points="
				100,280 100,190 130,190 130,280 			"/>
			<polygon id="back" opacity="0.25" fill="none" stroke="#0C0C0C" stroke-dasharray="1,3" enable-background="new    " points="
				70,110 70,20 130,20 130,110 			"/>
			<polygon id="bottom" opacity="0.25" fill="none" stroke="#0C0C0C" stroke-dasharray="1,3" enable-background="new    " points="
				130,280 130,190 210,190 210,280 			"/>
			<polygon id="right" opacity="0.25" fill="none" stroke="#0C0C0C" stroke-dasharray="1,3" enable-background="new    " points="
				100,320 70,320 70,360 130,360 130,280 100,280 			"/>
			<polygon id="left" opacity="0.25" fill="none" stroke="#0C0C0C" stroke-dasharray="1,3" enable-background="new    " points="
				100,150 70,150 70,110 130,110 130,190 100,190 			"/>
		</g>
		<g id="outline">
			<polygon fill="none" stroke="#000000" stroke-miterlimit="10" points="80,310 70,320 70,360 130,360 140,350 140,290 130,280 
				210,280 210,190 130,190 140,180 140,120 130,110 140,100 140,30 120,10 80,10 70,20 50,20 50,110 70,110 70,150 80,160 90,160 
				100,150 100,190 90,180 70,180 60,190 10,190 10,280 60,280 70,290 90,290 100,280 100,320 90,310 			"/>
		</g>
	</g>
</g>
</svg>
