<?xml version="1.0" encoding="utf-8"?>
<!-- Generator: Adobe Illustrator 16.0.0, SVG Export Plug-In . SVG Version: 6.00 Build 0)  -->
<!DOCTYPE svg PUBLIC "-//W3C//DTD SVG 1.1//EN" "http://www.w3.org/Graphics/SVG/1.1/DTD/svg11.dtd">
<svg version="1.1" xmlns="http://www.w3.org/2000/svg" xmlns:xlink="http://www.w3.org/1999/xlink" x="0px" y="0px" width="612px"
	 height="792px" viewBox="0 0 612 792" enable-background="new 0 0 612 792" xml:space="preserve">
	<g id="part">
		<g id="head">
			<g id="background">
				<rect id="color:skin" x="155" y="335" fill="#F4F4E1" width="120" height="120"/>
				<rect id="color:skin" x="35" y="35" fill="#F4F4E1" width="120" height="90"/>
				<rect id="color:skin" x="275" y="35" fill="#F4F4E1" width="120" height="90"/>
				<rect id="color:skin" x="155" y="35" fill="#F4F4E1" width="120" height="90"/>
				<rect id="color:skin" x="155" y="125" fill="#F4F4E1" width="120" height="120"/>
				<rect id="color:skin" x="155" y="245" fill="#F4F4E1" width="120" height="90"/>
			</g>
			<g id="foreground">
				
				
				<path id="color:1" fill="#FF8000" d="M395.5,91.5c0,0-1-0.2-2.8-0.6c-0.7-0.2-3.2-9.8-4.2-10c-1.9-0.4-2.8,8.5-5.6,7.9
					c-2.1-0.5-4.6-13.3-7.1-13.9c-1.7-0.4-3.5,11.6-5.4,11.3c-2.2-0.5-4.6-5.6-7-6.1c-1-0.2-1.9,4.3-3,4.1c-3-0.6-6.5-15.5-9.8-16.2
					c-2.5-0.5-4.7,13.3-7.2,12.8c-1.6-0.3-6.1-7.3-7.8-7.6c-3.6-0.7-4.4,5.2-8.1,4.5c-0.8-0.1-1-4.7-1.7-4.9c-2-0.4-4.5,3.7-6.5,3.3
					c-2.5-0.5-5.6-12.5-8.2-12.9c-2.6-0.5-4.6,10.6-7.2,10.1c-1.9-0.3-3.6-22-5.4-22.3c-3.2-0.6-6.6,20.2-9.8,19.7
					c-2.7-0.5-2.9-10.8-5.6-11.3c-2.4-0.4-7.4,9.1-9.9,8.7c-2.8-0.4-5.5-9.3-8.3-9.7c-2.4-0.4-4.8,7.8-7.1,7.4
					c-1.3-0.2-2.4-5.6-3.7-5.8c-1.2-0.2-2.6,4.9-3.9,4.8c-2.8-0.4-3.3-14.6-5.9-14.9c-1.9-0.2-6,13.4-7.9,13.3
					c-1.5-0.2-2.8-8.2-4.3-8.4c-2.6-0.2-5.2,7.5-7.5,7.4c-2.4-0.2-3.4-11.2-5.5-11.2c-1.1,0-3.4,10.9-4.5,10.9c-1.9,0-3.9-11.3-6-11.2
					c-3.3,0.1-6.9,11.8-10.8,12.2c-1.6,0.1-3.4-11.6-5.1-11.4c-1.9,0.2-3.8,12.3-5.9,12.6c-2.7,0.3-4.9-6.6-7.8-6.2
					c-1.6,0.2-3.8,7.7-5.4,7.9c-1.6,0.2-3.5-17.3-5.1-17c-2.1,0.3-4.1,18.3-6.2,18.7c-2,0.3-16.2-12.1-18.2-11.8
					c-2.6,0.4,7,13.6,4.4,14c-2.6,0.4-9.7-2.7-12.3-2.2c-3.6,0.6-2.7,4.8-6.2,5.4c-1.8,0.3-4.1-10.6-5.9-10.3
					c-1.6,0.3-2.6,11.9-4.2,12.1c-1.6,0.3-9.5-8.9-11.1-8.6c-2.5,0.5,1.3,10.5-1.2,10.9c-1.2,0.2-2.4-2.2-3.5-1.9
					c-1.7,0.3-3.4,3.3-5.1,3.6c-1.4,0.3-6.6-17.3-8-17c-1.7,0.3,0.5,18.5-1.1,18.8c-1.5,0.3-3.2-3.3-4.7-3c-1.2,0.2-2.2,4.4-3.3,4.6
					c-2,0.4-4.5-8.3-6.4-7.9c-1.5,0.3-2.5,9.7-4,10c-1.1,0.2-2.6-4.5-3.6-4.3c-1.3,0.3-2.1,5.4-3.4,5.7c-1.9,0.4-8.6-15-10.4-14.6
					c-1.9,0.4,1.1,16.5-0.7,16.9c-0.8,0.2-1.8-5.6-2.6-5.4c-1.3,0.3-2.3,6.4-3.5,6.7c-2,0.4-3.4-13.7-5-13.3
					c-1.1,0.2-2.3,14.9-3.2,15.1c-3,0.7-4.7,1-4.7,1v-57h361V91.5z"/>
				<path id="color:1" fill="#FF8000" d="M275.5,278.5c0,0,0-0.5-4.2-2c-1.5-0.6-6.1,2-8.3,1.4s-3.7-5.1-6.5-5.7c-2.5-0.5-5,6.3-8.1,5.8
					c-1.8-0.3-4.2-7.8-6.2-8.1c-1.7-0.2-3.6,10-5.4,9.8c-2.7-0.2-5.3-10.8-8.3-10.9c-2.4-0.1-4.4,4.6-7,4.5c-2,0-4.7-4.9-6.8-4.9
					c-1.6,0-2.3,5-3.8,5c-3.4,0.1-7.5-4.8-10.6-4.6c-3.7,0.2-6.1,2.7-9.3,3c-2,0.2-4.9-1.8-6.7-1.6c-1.7,0.2-2.9,7.6-4.4,7.8
					c-1.8,0.3-3.9-6.5-5.5-6.2c-1.6,0.3-3,3.4-4.4,3.7c-2.3,0.6-4.5-1.6-6.3-1c-0.9,0.3-1.1,6.6-1.9,6.9c-1.8,0.6-3.7-4.9-4.8-4.4
					c-1.8,0.8-2.6,1.4-2.6,1.4v177h121V278.5z"/>
					
				<path opacity="0.25" fill="#FFFFFF" d="M395.5,91.5c0,0-1-0.2-2.8-0.6c-0.7-0.2-3.2-9.8-4.2-10c-1.9-0.4-2.8,8.5-5.6,7.9
					c-2.1-0.5-4.6-13.3-7.1-13.9c-1.7-0.4-3.5,11.6-5.4,11.3c-2.2-0.5-4.6-5.6-7-6.1c-1-0.2-1.9,4.3-3,4.1c-3-0.6-6.5-15.5-9.8-16.2
					c-2.5-0.5-4.7,13.3-7.2,12.8c-1.6-0.3-6.1-7.3-7.8-7.6c-3.6-0.7-4.4,5.2-8.1,4.5c-0.8-0.1-1-4.7-1.7-4.9c-2-0.4-4.5,3.7-6.5,3.3
					c-2.5-0.5-5.6-12.5-8.2-12.9c-2.6-0.5-4.6,10.6-7.2,10.1c-1.9-0.3-3.6-22-5.4-22.3c-3.2-0.6-6.6,20.2-9.8,19.7
					c-2.7-0.5-2.9-10.8-5.6-11.3c-2.4-0.4-7.4,9.1-9.9,8.7c-2.8-0.4-5.5-9.3-8.3-9.7c-2.4-0.4-4.8,7.8-7.1,7.4
					c-1.3-0.2-2.4-5.6-3.7-5.8c-1.2-0.2-2.6,4.9-3.9,4.8c-2.8-0.4-3.3-14.6-5.9-14.9c-1.9-0.2-6,13.4-7.9,13.3
					c-1.5-0.2-2.8-8.2-4.3-8.4c-2.6-0.2-5.2,7.5-7.5,7.4c-2.4-0.2-3.4-11.2-5.5-11.2c-1.1,0-3.4,10.9-4.5,10.9c-1.9,0-3.9-11.3-6-11.2
					c-3.3,0.1-6.9,11.8-10.8,12.2c-1.6,0.1-3.4-11.6-5.1-11.4c-1.9,0.2-3.8,12.3-5.9,12.6c-2.7,0.3-4.9-6.6-7.8-6.2
					c-1.6,0.2-3.8,7.7-5.4,7.9c-1.6,0.2-3.5-17.3-5.1-17c-2.1,0.3-4.1,18.3-6.2,18.7c-2,0.3-16.2-12.1-18.2-11.8
					c-2.6,0.4,7,13.6,4.4,14c-2.6,0.4-9.7-2.7-12.3-2.2c-3.6,0.6-2.7,4.8-6.2,5.4c-1.8,0.3-4.1-10.6-5.9-10.3
					c-1.6,0.3-2.6,11.9-4.2,12.1c-1.6,0.3-9.5-8.9-11.1-8.6c-2.5,0.5,1.3,10.5-1.2,10.9c-1.2,0.2-2.4-2.2-3.5-1.9
					c-1.7,0.3-3.4,3.3-5.1,3.6c-1.4,0.3-6.6-17.3-8-17c-1.7,0.3,0.5,18.5-1.1,18.8c-1.5,0.3-3.2-3.3-4.7-3c-1.2,0.2-2.2,4.4-3.3,4.6
					c-2,0.4-4.5-8.3-6.4-7.9c-1.5,0.3-2.5,9.7-4,10c-1.1,0.2-2.6-4.5-3.6-4.3c-1.3,0.3-2.1,5.4-3.4,5.7c-1.9,0.4-8.6-15-10.4-14.6
					c-1.9,0.4,1.1,16.5-0.7,16.9c-0.8,0.2-1.8-5.6-2.6-5.4c-1.3,0.3-2.3,6.4-3.5,6.7c-2,0.4-3.4-13.7-5-13.3
					c-1.1,0.2-2.3,14.9-3.2,15.1c-3,0.7-4.7,1-4.7,1v-57h361V91.5z"/>
				<path opacity="0.25" fill="#FFFFFF" d="M275.5,278.5c0,0,0-0.5-4.2-2c-1.5-0.6-6.1,2-8.3,1.4s-3.7-5.1-6.5-5.7c-2.5-0.5-5,6.3-8.1,5.8
					c-1.8-0.3-4.2-7.8-6.2-8.1c-1.7-0.2-3.6,10-5.4,9.8c-2.7-0.2-5.3-10.8-8.3-10.9c-2.4-0.1-4.4,4.6-7,4.5c-2,0-4.7-4.9-6.8-4.9
					c-1.6,0-2.3,5-3.8,5c-3.4,0.1-7.5-4.8-10.6-4.6c-3.7,0.2-6.1,2.7-9.3,3c-2,0.2-4.9-1.8-6.7-1.6c-1.7,0.2-2.9,7.6-4.4,7.8
					c-1.8,0.3-3.9-6.5-5.5-6.2c-1.6,0.3-3,3.4-4.4,3.7c-2.3,0.6-4.5-1.6-6.3-1c-0.9,0.3-1.1,6.6-1.9,6.9c-1.8,0.6-3.7-4.9-4.8-4.4
					c-1.8,0.8-2.6,1.4-2.6,1.4v177h121V278.5z"/>
					
					
				<path id="color:1" fill="#FF8000" d="M395.5,87.5c0,0-1-0.2-2.8-0.6c-0.7-0.2-3.2-9.8-4.2-10c-1.9-0.4-2.8,8.5-5.6,7.9
					c-2.1-0.5-4.6-13.3-7.1-13.9c-1.7-0.4-3.5,11.6-5.4,11.3c-2.2-0.5-4.6-5.6-7-6.1c-1-0.2-1.9,4.3-3,4.1c-3-0.6-6.5-15.5-9.8-16.2
					c-2.5-0.5-4.7,13.3-7.2,12.8c-1.6-0.3-6.1-7.3-7.8-7.6c-3.6-0.7-4.4,5.2-8.1,4.5c-0.8-0.1-1-4.7-1.7-4.9c-2-0.4-4.5,3.7-6.5,3.3
					c-2.5-0.5-5.6-12.5-8.2-12.9c-2.6-0.5-4.6,10.6-7.2,10.1c-1.9-0.3-3.6-22-5.4-22.3c-3.2-0.6-6.6,20.2-9.8,19.7
					c-2.7-0.5-2.9-10.8-5.6-11.3c-2.4-0.4-7.4,9.1-9.9,8.7c-2.8-0.4-5.5-9.3-8.3-9.7c-2.4-0.4-4.8,7.8-7.1,7.4
					c-1.3-0.2-2.4-5.6-3.7-5.8c-1.2-0.2-2.6,4.9-3.9,4.8c-2.8-0.4-3.3-14.6-5.9-14.9c-1.9-0.2-6,13.4-7.9,13.3
					c-1.5-0.2-2.8-8.2-4.3-8.4c-2.6-0.2-5.2,7.5-7.5,7.4c-2.4-0.2-3.4-11.2-5.5-11.2c-1.1,0-3.4,10.9-4.5,10.9c-1.9,0-3.9-11.3-6-11.2
					c-3.3,0.1-6.9,11.8-10.8,12.2c-1.6,0.1-3.4-11.6-5.1-11.4c-1.9,0.2-3.8,12.3-5.9,12.6c-2.7,0.3-4.9-6.6-7.8-6.2
					c-1.6,0.2-3.8,7.7-5.4,7.9c-1.6,0.2-3.5-17.3-5.1-17c-2.1,0.3-4.1,18.3-6.2,18.7c-2,0.3-16.2-12.1-18.2-11.8
					c-2.6,0.4,7,13.6,4.4,14c-2.6,0.4-9.7-2.7-12.3-2.2c-3.6,0.6-2.7,4.8-6.2,5.4c-1.8,0.3-4.1-10.6-5.9-10.3
					c-1.6,0.3-2.6,11.9-4.2,12.1c-1.6,0.3-9.5-8.9-11.1-8.6c-2.5,0.5,1.3,10.5-1.2,10.9c-1.2,0.2-2.4-2.2-3.5-1.9
					c-1.7,0.3-3.4,3.3-5.1,3.6c-1.4,0.3-6.6-17.3-8-17c-1.7,0.3,0.5,18.5-1.1,18.8c-1.5,0.3-3.2-3.3-4.7-3c-1.2,0.2-2.2,4.4-3.3,4.6
					c-2,0.4-4.5-8.3-6.4-7.9c-1.5,0.3-2.5,9.7-4,10c-1.1,0.2-2.6-4.5-3.6-4.3c-1.3,0.3-2.1,5.4-3.4,5.7c-1.9,0.4-8.6-15-10.4-14.6
					c-1.9,0.4,1.1,16.5-0.7,16.9c-0.8,0.2-1.8-5.6-2.6-5.4c-1.3,0.3-2.3,6.4-3.5,6.7c-2,0.4-3.4-13.7-5-13.3
					c-1.1,0.2-2.3,14.9-3.2,15.1c-3,0.7-4.7,1-4.7,1v-53h361V87.5z"/>
				<path id="color:1" fill="#FF8000" d="M275.5,281.5c0,0,0-0.5-4.2-2c-1.5-0.6-6.1,2-8.3,1.4s-3.7-5.1-6.5-5.7c-2.5-0.5-5,6.3-8.1,5.8
					c-1.8-0.3-4.2-7.8-6.2-8.1c-1.7-0.2-3.6,10-5.4,9.8c-2.7-0.2-5.3-10.8-8.3-10.9c-2.4-0.1-4.4,4.6-7,4.5c-2,0-4.7-4.9-6.8-4.9
					c-1.6,0-2.3,5-3.8,5c-3.4,0.1-7.5-4.8-10.6-4.6c-3.7,0.2-6.1,2.7-9.3,3c-2,0.2-4.9-1.8-6.7-1.6c-1.7,0.2-2.9,7.6-4.4,7.8
					c-1.8,0.3-3.9-6.5-5.5-6.2c-1.6,0.3-3,3.4-4.4,3.7c-2.3,0.6-4.5-1.6-6.3-1c-0.9,0.3-1.1,6.6-1.9,6.9c-1.8,0.6-3.7-4.9-4.8-4.4
					c-1.8,0.8-2.6,1.4-2.6,1.4v174h121V281.5z"/>
			</g>
			<g id="border">
				
					<polygon id="front" opacity="0.25" fill="none" stroke="#000000" stroke-miterlimit="10" stroke-dasharray="1,3" enable-background="new    " points="
					155,35 275,35 275,125 155,125 		"/>
				
					<polygon id="back" opacity="0.25" fill="none" stroke="#000000" stroke-miterlimit="10" stroke-dasharray="1,3" enable-background="new    " points="
					155,245 275,245 275,335 155,335 		"/>
				
					<polygon id="left" opacity="0.25" fill="none" stroke="#000000" stroke-miterlimit="10" stroke-dasharray="1,3" enable-background="new    " points="
					275,35 395,35 395,125 275,125 		"/>
				
					<polygon id="right" opacity="0.25" fill="none" stroke="#000000" stroke-miterlimit="10" stroke-dasharray="1,3" enable-background="new    " points="
					35,35 155,35 155,125 35,125 		"/>
				
					<polygon id="bottom" opacity="0.25" fill="none" stroke="#000000" stroke-miterlimit="10" stroke-dasharray="1,3" enable-background="new    " points="
					155,125 275,125 275,245 155,245 		"/>
				
					<polygon id="top" opacity="0.25" fill="none" stroke="#000000" stroke-miterlimit="10" stroke-dasharray="1,3" enable-background="new    " points="
					155,335 275,335 275,455 155,455 		"/>
			</g>
			<g id="outline">
				<polygon fill="none" stroke="#000000" stroke-miterlimit="10" points="275,125 285,135 385,135 405,115 405,45 385,25 285,25 
					275,35 265,25 165,25 155,35 145,25 45,25 25,45 25,115 45,135 145,135 155,125 155,455 275,455 		"/>
			</g>
		</g>
	</g>
</svg>
