<?xml version="1.0" encoding="utf-8"?>
<!-- Generator: Adobe Illustrator 16.0.0, SVG Export Plug-In . SVG Version: 6.00 Build 0)  -->
<!DOCTYPE svg PUBLIC "-//W3C//DTD SVG 1.1//EN" "http://www.w3.org/Graphics/SVG/1.1/DTD/svg11.dtd">
<svg version="1.1" xmlns="http://www.w3.org/2000/svg" xmlns:xlink="http://www.w3.org/1999/xlink" x="0px" y="0px" width="612px"
	 height="792px" viewBox="0 0 612 792" enable-background="new 0 0 612 792" xml:space="preserve">
	 <g id="part">
		<g id="head">
			<g id="background">
				<rect id="color:skin" x="155" y="335" fill="#F4F4E1" width="120" height="120"/>
				<rect id="color:skin" x="35" y="35" fill="#F4F4E1" width="120" height="90"/>
				<rect id="color:skin" x="275" y="35" fill="#F4F4E1" width="120" height="90"/>
				<rect id="color:skin" x="155" y="35" fill="#F4F4E1" width="120" height="90"/>
				<rect id="color:skin" x="155" y="125" fill="#F4F4E1" width="120" height="120"/>
				<rect id="color:skin" x="155" y="245" fill="#F4F4E1" width="120" height="90"/>
			</g>
			<g id="foreground">
				<g>
					<path fill-rule="evenodd" clip-rule="evenodd" fill="#FFFFFF" d="M260.3,82.9c0,0-0.8,3.5-5,6c-4.3,2.5-10.8,3-16.6,0.5
						c-5.8-2.5-4-3.5-5.8-3c-1.8,0.5,1-1.5,1.3-3.8c0.3-2.3,1.8-8.6,4.5-8.8c2.8-0.3,13.1-0.8,16.6,1.3
						C258.8,77.1,260.3,82.9,260.3,82.9z"/>
					<path id="color:1" opacity="0.25" fill-rule="evenodd" clip-rule="evenodd" fill="#336688" d="M259.8,83.9c0,0-2-4.5-12.6-5
						c-10.6-0.5-12.8,5.5-12.8,5.5s-0.8-8.3,4.5-9.6c5.3-1.3,13.1-0.8,17.1,1.5c4,2.3,4,5,4,5L259.8,83.9z"/>
					<g>
						<path fill-rule="evenodd" clip-rule="evenodd" fill="#020202" d="M237.9,81.6c0-4.9,3.9-8.8,8.8-8.8s8.8,3.9,8.8,8.8
							c0,4.9-3.9,8.8-8.8,8.8S237.9,86.5,237.9,81.6z"/>
						<path id="color:1" opacity="0.5" fill-rule="evenodd" clip-rule="evenodd" fill="#336688" d="M237.9,81.6c0-4.9,3.9-8.8,8.8-8.8
							s8.8,3.9,8.8,8.8c0,4.9-3.9,8.8-8.8,8.8S237.9,86.5,237.9,81.6z"/>
						<ellipse id="color:1" fill-rule="evenodd" clip-rule="evenodd" fill="#336688" cx="246.7" cy="81.6" rx="7.5" ry="7.5"/>
						<ellipse fill-rule="evenodd" clip-rule="evenodd" cx="246.7" cy="81.6" rx="4.7" ry="4.7"/>
					</g>
					<path opacity="0.25" fill-rule="evenodd" clip-rule="evenodd" d="M245.7,69.5c0,0-12.6,1-14.1,3.8c-1.5,2.8-2.3,3.8-1.5,0.5
						c0.8-3.3,2.3-3.3,5.5-4.3C238.9,68.5,245.7,69.5,245.7,69.5z"/>
					<circle fill-rule="evenodd" clip-rule="evenodd" fill="#FFFFFF" cx="242.2" cy="78.6" r="3.5"/>
					<path fill-rule="evenodd" clip-rule="evenodd" d="M259.3,85.4c0,0,1-6-2.8-7.3c-3.8-1.3-12.8-4.3-16.3-3c-3.5,1.3-6.8,7.8-6.8,9.6
						c0,1.8,0.8-8.6,3.5-10.6c2.8-2,14.8-1.8,20.1,1.5c5.3,3.3,4.5,6,4,7C260.5,83.6,259.3,85.4,259.3,85.4z"/>
					<path fill-rule="evenodd" clip-rule="evenodd" d="M224.3,68.3c0,0,22.6-4.7,29.5-3c6.8,1.7,14,6.4,14,6.4s-7.2-7.6-15.4-8.5
						c-8.2-0.9-28.4,1.7-29.2,2.7C220.5,69.3,224.3,68.3,224.3,68.3z"/>
				</g>
				<g>
					<path fill-rule="evenodd" clip-rule="evenodd" fill="#FFFFFF" d="M169.7,82.8c0,0,0.8,3.5,5,6c4.3,2.5,10.8,3,16.6,0.5
						c5.8-2.5,4-3.5,5.8-3c1.8,0.5-1-1.5-1.3-3.8c-0.3-2.3-1.8-8.6-4.5-8.8c-2.8-0.3-13.1-0.8-16.6,1.3C171.2,77,169.7,82.8,169.7,82.8
						z"/>
					<path id="color:1" opacity="0.25" fill-rule="evenodd" clip-rule="evenodd" fill="#336688" d="M170.2,83.8c0,0,2-4.5,12.6-5
						c10.6-0.5,12.8,5.5,12.8,5.5s0.8-8.3-4.5-9.6c-5.3-1.3-13.1-0.8-17.1,1.5c-4,2.3-4,5-4,5L170.2,83.8z"/>
					<g>
						<path fill-rule="evenodd" clip-rule="evenodd" fill="#020202" d="M192.1,81.5c0-4.9-3.9-8.8-8.8-8.8s-8.8,3.9-8.8,8.8
							c0,4.9,3.9,8.8,8.8,8.8S192.1,86.4,192.1,81.5z"/>
						<path id="color:1" opacity="0.5" fill-rule="evenodd" clip-rule="evenodd" fill="#336688" d="M192.1,81.5
							c0-4.9-3.9-8.8-8.8-8.8s-8.8,3.9-8.8,8.8c0,4.9,3.9,8.8,8.8,8.8S192.1,86.4,192.1,81.5z"/>
						<ellipse id="color:1" fill-rule="evenodd" clip-rule="evenodd" fill="#336688" cx="183.3" cy="81.5" rx="7.5" ry="7.5"/>
						<ellipse fill-rule="evenodd" clip-rule="evenodd" cx="183.3" cy="81.5" rx="4.7" ry="4.7"/>
					</g>
					<path opacity="0.25" fill-rule="evenodd" clip-rule="evenodd" d="M184.3,69.4c0,0,12.6,1,14.1,3.8c1.5,2.8,2.3,3.8,1.5,0.5
						c-0.8-3.3-2.3-3.3-5.5-4.3C191.1,68.4,184.3,69.4,184.3,69.4z"/>
					<circle fill-rule="evenodd" clip-rule="evenodd" fill="#FFFFFF" cx="178.8" cy="78.5" r="3.5"/>
					<path fill-rule="evenodd" clip-rule="evenodd" d="M170.7,85.3c0,0-1-6,2.8-7.3c3.8-1.3,12.8-4.3,16.3-3c3.5,1.3,6.8,7.8,6.8,9.6
						c0,1.8-0.8-8.6-3.5-10.6c-2.8-2-14.8-1.8-20.1,1.5c-5.3,3.3-4.5,6-4,7C169.5,83.5,170.7,85.3,170.7,85.3z"/>
					<path fill-rule="evenodd" clip-rule="evenodd" d="M205.7,68.2c0,0-22.6-4.7-29.5-3c-6.8,1.7-14,6.4-14,6.4s7.2-7.6,15.4-8.5
						c8.2-0.9,28.4,1.7,29.2,2.7C209.5,69.2,205.7,68.2,205.7,68.2z"/>
				</g>
			</g>
			<g id="border">
				
					<polygon id="front" opacity="0.25" fill="none" stroke="#000000" stroke-miterlimit="10" stroke-dasharray="1,3" enable-background="new    " points="
					155,35 275,35 275,125 155,125 		"/>
				
					<polygon id="back" opacity="0.25" fill="none" stroke="#000000" stroke-miterlimit="10" stroke-dasharray="1,3" enable-background="new    " points="
					155,245 275,245 275,335 155,335 		"/>
				
					<polygon id="left" opacity="0.25" fill="none" stroke="#000000" stroke-miterlimit="10" stroke-dasharray="1,3" enable-background="new    " points="
					275,35 395,35 395,125 275,125 		"/>
				
					<polygon id="right" opacity="0.25" fill="none" stroke="#000000" stroke-miterlimit="10" stroke-dasharray="1,3" enable-background="new    " points="
					35,35 155,35 155,125 35,125 		"/>
				
					<polygon id="bottom" opacity="0.25" fill="none" stroke="#000000" stroke-miterlimit="10" stroke-dasharray="1,3" enable-background="new    " points="
					155,125 275,125 275,245 155,245 		"/>
				
					<polygon id="top" opacity="0.25" fill="none" stroke="#000000" stroke-miterlimit="10" stroke-dasharray="1,3" enable-background="new    " points="
					155,335 275,335 275,455 155,455 		"/>
			</g>
			<g id="outline">
				<polygon fill="none" stroke="#000000" stroke-miterlimit="10" points="275,125 285,135 385,135 405,115 405,45 385,25 285,25 
					275,35 265,25 165,25 155,35 145,25 45,25 25,45 25,115 45,135 145,135 155,125 155,455 275,455 		"/>
			</g>
		</g>
	</g>
</svg>
