<?xml version="1.0" encoding="utf-8"?>
<!-- Generator: Adobe Illustrator 16.0.0, SVG Export Plug-In . SVG Version: 6.00 Build 0)  -->
<!DOCTYPE svg PUBLIC "-//W3C//DTD SVG 1.1//EN" "http://www.w3.org/Graphics/SVG/1.1/DTD/svg11.dtd">
<svg version="1.1" xmlns="http://www.w3.org/2000/svg" xmlns:xlink="http://www.w3.org/1999/xlink" x="0px" y="0px" width="612px"
	 height="792px" viewBox="0 0 612 792" enable-background="new 0 0 612 792" xml:space="preserve">
	 <g id="part">
		<g id="head">
			<g id="background">
				<rect id="color:skin" x="155" y="335" fill="#F4F4E1" width="120" height="120"/>
				<rect id="color:skin" x="35" y="35" fill="#F4F4E1" width="120" height="90"/>
				<rect id="color:skin" x="275" y="35" fill="#F4F4E1" width="120" height="90"/>
				<rect id="color:skin" x="155" y="35" fill="#F4F4E1" width="120" height="90"/>
				<rect id="color:skin" x="155" y="125" fill="#F4F4E1" width="120" height="120"/>
				<rect id="color:skin" x="155" y="245" fill="#F4F4E1" width="120" height="90"/>
			</g>
			<g id="foreground">
				<g>
					<path d="M183.5,71.6c-2.7,3-7.6,18-5,22.1c0.9,1.4,1.7,2.8,5.4,1.9c5.5-1.3,7.6,5.2,12.3,4.1c5.8-1.7,9.7-2.4,9.5-5.2
						c-0.2-2.8-1.1-14.4-1.5-21.8C203.8,64.2,189.3,65.1,183.5,71.6z"/>
					<path fill="#FFFFFF" stroke="#D1BFAB" stroke-linecap="round" stroke-linejoin="round" d="M185,73.1
						c-5.2,6.3-6.3,17.5-3.7,21.6c2.6,4.1,13.2,7.4,18.6,4.5c5.4-2.8,6.1-1.9,5.8-4.8c-0.2-2.8,2.2-16-2.2-22.1
						C199.3,66.4,189.1,68.1,185,73.1z"/>
					<g>
						<path id="color:1" fill="#3873CB" d="M184.5,86.2c0-8.9,5.2-18.1,9.1-18.1c3.5,0,9.1,9.2,9.1,18.1c0,8.9-4.1,13.7-9.1,13.7
							C188.5,99.8,184.5,95.1,184.5,86.2z"/>
						<path opacity="0.25" fill="#FFFFFF" d="M186,85.7c0-7.8,4.3-16.3,7.6-16.3c2.9,0,7.6,8.5,7.6,16.3c0,7.8-3.4,12-7.6,12
							C189.4,97.7,186,93.5,186,85.7z"/>
						<path opacity="0.8" fill="#FFFFFF" d="M187.9,92.5c0-1.8,2.5,0.4,5.6,0.4c3.2,0,3.3,4.6,0.1,4.6
							C190.5,97.5,187.9,94.3,187.9,92.5z"/>
						<path opacity="0.4" fill="#FFFFFF" d="M199.5,87.7c-1-1-1.1,1.6-2.8,3.3c-1.7,1.7,0.4,4.1,2.1,2.4
							C200.6,91.7,200.5,88.7,199.5,87.7z"/>
						<path opacity="0.65" d="M189.2,84.4c0-4.7,2.6-9.8,4.5-9.8c1.7,0,4.5,5.1,4.5,9.8c0,4.7-2,7.2-4.5,7.2
							C191.3,91.6,189.2,89.1,189.2,84.4z"/>
						<circle fill="#FFFFFF" cx="197.7" cy="74.1" r="1.9"/>
						<circle fill="#FFFFFF" cx="188.6" cy="94.4" r="3.5"/>
					</g>
					<path d="M197.5,56.2c8.4,1.3,4.8-1.1,0.9-1.7s-11.9,2.2-14.7,5.6C182.2,62,189.1,54.9,197.5,56.2z"/>
				</g>
				<g>
					<path d="M246.5,70.1c2.7,3,7.6,18,5,22.1c-0.9,1.4-1.7,2.8-5.4,1.9c-5.5-1.3-7.6,5.2-12.3,4.1c-5.8-1.7-9.7-2.4-9.5-5.2
						c0.2-2.8,1.1-14.4,1.5-21.8C226.2,62.7,240.7,63.6,246.5,70.1z"/>
					<path fill="#FFFFFF" stroke="#D1BFAB" stroke-linecap="round" stroke-linejoin="round" d="M245,71.6c5.2,6.3,6.3,17.5,3.7,21.6
						c-2.6,4.1-13.2,7.4-18.6,4.5c-5.4-2.8-6-1.9-5.8-4.8c0.2-2.8-2.2-16,2.2-22.1C230.8,64.9,240.9,66.6,245,71.6z"/>
					<g>
						<path id="color:1" fill="#3873CB" d="M227.9,85.2c0-8.9,5.2-18.1,9.1-18.1c3.5,0,9.1,9.2,9.1,18.1c0,8.9-4.1,13.7-9.1,13.7
							C231.9,98.8,227.9,94.1,227.9,85.2z"/>
						<path opacity="0.25" fill="#FFFFFF" d="M229.4,84.7c0-7.8,4.3-16.3,7.6-16.3c2.9,0,7.6,8.5,7.6,16.3c0,7.8-3.4,12-7.6,12
							S229.4,92.5,229.4,84.7z"/>
						<path opacity="0.8" fill="#FFFFFF" d="M231.3,91.5c0-1.8,2.5,0.4,5.6,0.4c3.2,0,3.3,4.6,0.1,4.6S231.3,93.3,231.3,91.5z"/>
						<path opacity="0.4" fill="#FCFCFC" d="M242.9,86.7c-1-1-1.1,1.6-2.8,3.3c-1.7,1.7,0.4,4.1,2.1,2.4
							C244,90.7,243.9,87.7,242.9,86.7z"/>
						<path opacity="0.65" d="M232.6,83.4c0-4.7,2.6-9.8,4.5-9.8c1.7,0,4.5,5.1,4.5,9.8c0,4.7-2,7.2-4.5,7.2S232.6,88.1,232.6,83.4z
							"/>
						<circle fill="#FFFFFF" cx="241.1" cy="73.1" r="1.9"/>
						<ellipse fill="#FFFFFF" cx="232" cy="93.4" rx="3.5" ry="3.5"/>
					</g>
					<path d="M232.5,54.7c-8.4,1.3-4.8-1.1-0.9-1.7s11.9,2.2,14.7,5.6C247.9,60.5,240.9,53.4,232.5,54.7z"/>
				</g>
			</g>
			<g id="border">
				
					<polygon id="front" opacity="0.25" fill="none" stroke="#000000" stroke-miterlimit="10" stroke-dasharray="1,3" enable-background="new    " points="
					155,35 275,35 275,125 155,125 		"/>
				
					<polygon id="back" opacity="0.25" fill="none" stroke="#000000" stroke-miterlimit="10" stroke-dasharray="1,3" enable-background="new    " points="
					155,245 275,245 275,335 155,335 		"/>
				
					<polygon id="left" opacity="0.25" fill="none" stroke="#000000" stroke-miterlimit="10" stroke-dasharray="1,3" enable-background="new    " points="
					275,35 395,35 395,125 275,125 		"/>
				
					<polygon id="right" opacity="0.25" fill="none" stroke="#000000" stroke-miterlimit="10" stroke-dasharray="1,3" enable-background="new    " points="
					35,35 155,35 155,125 35,125 		"/>
				
					<polygon id="bottom" opacity="0.25" fill="none" stroke="#000000" stroke-miterlimit="10" stroke-dasharray="1,3" enable-background="new    " points="
					155,125 275,125 275,245 155,245 		"/>
				
					<polygon id="top" opacity="0.25" fill="none" stroke="#000000" stroke-miterlimit="10" stroke-dasharray="1,3" enable-background="new    " points="
					155,335 275,335 275,455 155,455 		"/>
			</g>
			<g id="outline">
				<polygon fill="none" stroke="#000000" stroke-miterlimit="10" points="275,125 285,135 385,135 405,115 405,45 385,25 285,25 
					275,35 265,25 165,25 155,35 145,25 45,25 25,45 25,115 45,135 145,135 155,125 155,455 275,455 		"/>
			</g>
		</g>
	</g>
</svg>
