<?xml version="1.0" encoding="utf-8"?>
<!-- Generator: Adobe Illustrator 16.0.0, SVG Export Plug-In . SVG Version: 6.00 Build 0)  -->
<!DOCTYPE svg PUBLIC "-//W3C//DTD SVG 1.1//EN" "http://www.w3.org/Graphics/SVG/1.1/DTD/svg11.dtd">
<svg version="1.1" xmlns="http://www.w3.org/2000/svg" xmlns:xlink="http://www.w3.org/1999/xlink" x="0px" y="0px" width="612px"
	 height="792px" viewBox="0 0 612 792" enable-background="new 0 0 612 792" xml:space="preserve">
	 <g id="part">
		<g id="head">
			<g id="background">
				<rect id="color:skin" x="155" y="335" fill="#F4F4E1" width="120" height="120"/>
				<rect id="color:skin" x="35" y="35" fill="#F4F4E1" width="120" height="90"/>
				<rect id="color:skin" x="275" y="35" fill="#F4F4E1" width="120" height="90"/>
				<rect id="color:skin" x="155" y="35" fill="#F4F4E1" width="120" height="90"/>
				<rect id="color:skin" x="155" y="125" fill="#F4F4E1" width="120" height="120"/>
				<rect id="color:skin" x="155" y="245" fill="#F4F4E1" width="120" height="90"/>
			</g>
			<g id="foreground">
				<g>
					<g>
						<g>
							<path fill-rule="evenodd" clip-rule="evenodd" fill="#FFFFFF" d="M253.8,83.5c0,0-2.2-5.8-5.2-6.9c-3-1.1-7.9-1.9-10.9-1.1
								c-3,0.7-7.9,9.3-7.9,9.3s0.2,1.1,3,1.5c2.8,0.4,14.1,1.7,16.1,0.6C251,85.8,253.8,83.5,253.8,83.5z"/>
							<path fill-rule="evenodd" clip-rule="evenodd" fill="#9C634E" d="M252.5,81.5c0,0,1.3,1.9,0.2,2.6c-1.1,0.7-2.4,2.4-6,2.8
								c-3.6,0.4-8.6,0-8.6,0s9.6,1.5,12.6-0.2c3-1.7,6.6-1.1,6-2.2C256,83.3,252.5,81.5,252.5,81.5z"/>
							<path fill-rule="evenodd" clip-rule="evenodd" fill="#A5777C" d="M254.1,83.7c0,0-0.7-0.2-1.5-1.3c-0.7-1.1-3.8-5.3-8.1-6.3
								c-4.7-1.1-7.9,0.2-9.6,1.7c-1.7,1.5-5.4,6.9-4.7,7.5c0.7,0.6,1.9,0.9,1.9,0.9s-3,0.4-3-0.7c0-1.1,5.1-9.3,8.2-10.1
								c3.2-0.7,8.2-1.1,12,1.7C253.2,79.8,254.1,83.7,254.1,83.7z"/>
							<path fill-rule="evenodd" clip-rule="evenodd" fill="#3F1C1D" d="M255.3,83.3c0,0-0.7,0.9-1.7-0.7c-0.9-1.7-3-5-6.7-6.3
								c-3.1-1.1-6.9-1.7-9.4-0.6c-2.4,1.1,0.3-1.7,6.4-1.1c7.3,0.7,7.5,4.1,8.8,4.1c1.3,0,2.6,0.2,2.6,0.2s-1.1,0.9-2.1,0.9
								c-0.9,0,0.7,0.9,2.1,0.9c1.3,0,1.7,0.2,1.7,0.2s-0.6,0.9-1.7,0.9c-1.1,0,0,1.5,1.5,1.3L255.3,83.3z"/>
							<path fill-rule="evenodd" clip-rule="evenodd" d="M229,81.3c0.6-0.4,3.2-5.4,7.5-6.9c4.3-1.5,9.2-1.5,13.1,0.7
								c3.9,2.2,7.9,6.3,7.9,6.3s-5.8-7.5-10.9-8.6c-5.1-1.1-8.2-1.1-12,1.5C232.9,75.6,228.5,81.7,229,81.3z"/>
							<path fill-rule="evenodd" clip-rule="evenodd" d="M261.3,70.5c0,0-5.2-7.5-19.1-6.7c-13.9,0.7-16.7,4.6-17,1.1
								c-0.2-1.7,12.4-5.6,23.4-2.6C259.6,65.3,261.3,70.5,261.3,70.5z"/>
							<path fill-rule="evenodd" clip-rule="evenodd" fill="#FFFFFF" d="M228.3,83.3c0,0-2.8,1.9-1.1,3.5c1.7,1.7,5.2,2.2,4.9,1.5
								c-0.4-0.7-3.7-1.7-3.6-3C228.7,84.1,228.3,83.3,228.3,83.3z"/>
							<g>
								
									<ellipse id="color:1_1_" fill-rule="evenodd" clip-rule="evenodd" fill="#5A667D" stroke="#3E455E" stroke-linecap="round" stroke-linejoin="round" cx="241.8" cy="81.5" rx="5.8" ry="5.8"/>
								<g opacity="0.5">
									<polygon fill-rule="evenodd" clip-rule="evenodd" fill="#FFFFFF" points="241.8,75.9 242.2,78.7 243.6,76.2 243.1,79 
										245.2,77.1 243.8,79.6 246.5,78.4 244.4,80.4 247.2,80.1 244.6,81.2 247.4,81.9 244.5,82.2 246.9,83.7 244.1,83 245.9,85.3 
										243.5,83.7 244.5,86.4 242.7,84.1 242.7,87 241.8,84.3 240.9,87 240.9,84.1 239.1,86.4 240.1,83.7 237.6,85.3 239.4,83 
										236.6,83.7 239.1,82.2 236.2,81.9 239,81.2 236.3,80.1 239.2,80.4 237.1,78.4 239.7,79.6 238.3,77.1 240.4,79 240,76.2 
										241.3,78.7 						"/>
								</g>
								<ellipse fill-rule="evenodd" clip-rule="evenodd" fill="#121328" cx="241.8" cy="81.5" rx="3.2" ry="3.2"/>
								<ellipse fill-rule="evenodd" clip-rule="evenodd" fill="#FFFFFF" cx="241.8" cy="80.2" rx="1.3" ry="1.1"/>
								<path fill-rule="evenodd" clip-rule="evenodd" fill="#FFFFFF" d="M244.4,83.6c0.1-0.1,0.6,0,1.2,0.3c0.6,0.3,1.1,0.7,1,0.9
									c-0.1,0.2-0.7,0-1.3-0.4C244.7,84.1,244.3,83.7,244.4,83.6z"/>
							</g>
						</g>
						<g>
							<path fill-rule="evenodd" clip-rule="evenodd" fill="#FFFFFF" d="M176.2,83.5c0,0,2.2-5.8,5.2-6.9c3-1.1,7.9-1.9,10.9-1.1
								c3,0.7,7.9,9.3,7.9,9.3s-0.2,1.1-3,1.5c-2.8,0.4-14.1,1.7-16.1,0.6C179,85.8,176.2,83.5,176.2,83.5z"/>
							<path fill-rule="evenodd" clip-rule="evenodd" fill="#9C634E" d="M177.5,81.5c0,0-1.3,1.9-0.2,2.6c1.1,0.7,2.4,2.4,6,2.8
								c3.6,0.4,8.6,0,8.6,0s-9.6,1.5-12.6-0.2c-3-1.7-6.6-1.1-6-2.2C174,83.3,177.5,81.5,177.5,81.5z"/>
							<path fill-rule="evenodd" clip-rule="evenodd" fill="#A5777C" d="M175.9,83.7c0,0,0.7-0.2,1.5-1.3c0.8-1.1,3.8-5.3,8.1-6.3
								c4.7-1.1,7.9,0.2,9.6,1.7c1.7,1.5,5.4,6.9,4.7,7.5c-0.7,0.6-1.9,0.9-1.9,0.9s3,0.4,3-0.7c0-1.1-5.1-9.3-8.2-10.1
								c-3.2-0.7-8.2-1.1-12,1.7C176.8,79.8,175.9,83.7,175.9,83.7z"/>
							<path fill-rule="evenodd" clip-rule="evenodd" fill="#3F1C1D" d="M174.7,83.3c0,0,0.8,0.9,1.7-0.7c0.9-1.7,3-5,6.7-6.3
								c3.1-1.1,6.9-1.7,9.4-0.6c2.4,1.1-0.3-1.7-6.4-1.1c-7.3,0.7-7.5,4.1-8.8,4.1c-1.3,0-2.6,0.2-2.6,0.2s1.1,0.9,2.1,0.9
								c0.9,0-0.7,0.9-2.1,0.9c-1.3,0-1.7,0.2-1.7,0.2s0.6,0.9,1.7,0.9c1.1,0,0,1.5-1.5,1.3L174.7,83.3z"/>
							<path fill-rule="evenodd" clip-rule="evenodd" d="M201,81.3c-0.6-0.4-3.2-5.4-7.5-6.9c-4.3-1.5-9.2-1.5-13.1,0.7
								c-3.9,2.2-7.9,6.3-7.9,6.3s5.8-7.5,10.9-8.6c5.1-1.1,8.2-1.1,12,1.5C197.1,75.6,201.5,81.7,201,81.3z"/>
							<path fill-rule="evenodd" clip-rule="evenodd" d="M168.7,70.5c0,0,5.2-7.5,19.1-6.7c13.9,0.7,16.7,4.6,17.1,1.1
								c0.2-1.7-12.4-5.6-23.4-2.6C170.4,65.3,168.7,70.5,168.7,70.5z"/>
							<path fill-rule="evenodd" clip-rule="evenodd" fill="#FFFFFF" d="M201.7,83.3c0,0,2.8,1.9,1.1,3.5c-1.7,1.7-5.2,2.2-4.9,1.5
								c0.4-0.7,3.7-1.7,3.6-3C201.3,84.1,201.7,83.3,201.7,83.3z"/>
							<g>
								
									<ellipse id="color:1" fill-rule="evenodd" clip-rule="evenodd" fill="#5A667D" stroke="#3E455E" stroke-linecap="round" stroke-linejoin="round" cx="188.2" cy="81.5" rx="5.8" ry="5.8"/>
								<g opacity="0.5">
									<polygon fill-rule="evenodd" clip-rule="evenodd" fill="#FFFFFF" points="188.2,75.9 187.8,78.7 186.4,76.2 186.9,79 
										184.8,77.1 186.1,79.6 183.5,78.4 185.6,80.4 182.8,80.1 185.4,81.2 182.6,81.9 185.5,82.2 183.1,83.7 185.9,83 184.1,85.3 
										186.5,83.7 185.5,86.4 187.3,84.1 187.3,87 188.2,84.3 189.1,87 189.1,84.1 190.9,86.4 189.9,83.7 192.4,85.3 190.6,83 
										193.4,83.7 190.9,82.2 193.8,81.9 191,81.2 193.7,80.1 190.8,80.4 192.9,78.4 190.3,79.6 191.7,77.1 189.6,79 190,76.2 
										188.7,78.7 						"/>
								</g>
								<ellipse fill-rule="evenodd" clip-rule="evenodd" fill="#121328" cx="188.2" cy="81.5" rx="3.2" ry="3.2"/>
								<ellipse fill-rule="evenodd" clip-rule="evenodd" fill="#FFFFFF" cx="188.2" cy="80.2" rx="1.3" ry="1.1"/>
								<path fill-rule="evenodd" clip-rule="evenodd" fill="#FFFFFF" d="M185.6,83.6c-0.1-0.1-0.6,0-1.2,0.3c-0.6,0.3-1.1,0.7-1,0.9
									c0.1,0.2,0.7,0,1.3-0.4C185.3,84.1,185.7,83.7,185.6,83.6z"/>
							</g>
						</g>
					</g>
				</g>
			</g>
			<g id="border">
				
					<polygon id="front" opacity="0.25" fill="none" stroke="#000000" stroke-miterlimit="10" stroke-dasharray="1,3" enable-background="new    " points="
					155,35 275,35 275,125 155,125 		"/>
				
					<polygon id="back" opacity="0.25" fill="none" stroke="#000000" stroke-miterlimit="10" stroke-dasharray="1,3" enable-background="new    " points="
					155,245 275,245 275,335 155,335 		"/>
				
					<polygon id="left" opacity="0.25" fill="none" stroke="#000000" stroke-miterlimit="10" stroke-dasharray="1,3" enable-background="new    " points="
					275,35 395,35 395,125 275,125 		"/>
				
					<polygon id="right" opacity="0.25" fill="none" stroke="#000000" stroke-miterlimit="10" stroke-dasharray="1,3" enable-background="new    " points="
					35,35 155,35 155,125 35,125 		"/>
				
					<polygon id="bottom" opacity="0.25" fill="none" stroke="#000000" stroke-miterlimit="10" stroke-dasharray="1,3" enable-background="new    " points="
					155,125 275,125 275,245 155,245 		"/>
				
					<polygon id="top" opacity="0.25" fill="none" stroke="#000000" stroke-miterlimit="10" stroke-dasharray="1,3" enable-background="new    " points="
					155,335 275,335 275,455 155,455 		"/>
			</g>
			<g id="outline">
				<polygon fill="none" stroke="#000000" stroke-miterlimit="10" points="275,125 285,135 385,135 405,115 405,45 385,25 285,25 
					275,35 265,25 165,25 155,35 145,25 45,25 25,45 25,115 45,135 145,135 155,125 155,455 275,455 		"/>
			</g>
		</g>
	</g>
</svg>
