<?xml version="1.0" encoding="utf-8"?>
<!-- Generator: Adobe Illustrator 16.0.0, SVG Export Plug-In . SVG Version: 6.00 Build 0)  -->
<!DOCTYPE svg PUBLIC "-//W3C//DTD SVG 1.1//EN" "http://www.w3.org/Graphics/SVG/1.1/DTD/svg11.dtd">
<svg version="1.1" xmlns="http://www.w3.org/2000/svg" xmlns:xlink="http://www.w3.org/1999/xlink" x="0px" y="0px" width="612px"
	 height="792px" viewBox="0 0 612 792" enable-background="new 0 0 612 792" xml:space="preserve">
	 <g id="part">
		<g id="head">
			<g id="background">
				<rect id="color:skin" x="155" y="335" fill="#F4F4E1" width="120" height="120"/>
				<rect id="color:skin" x="35" y="35" fill="#F4F4E1" width="120" height="90"/>
				<rect id="color:skin" x="275" y="35" fill="#F4F4E1" width="120" height="90"/>
				<rect id="color:skin" x="155" y="35" fill="#F4F4E1" width="120" height="90"/>
				<rect id="color:skin" x="155" y="125" fill="#F4F4E1" width="120" height="120"/>
				<rect id="color:skin" x="155" y="245" fill="#F4F4E1" width="120" height="90"/>
			</g>
			<g id="foreground">
				<path fill-rule="evenodd" clip-rule="evenodd" fill="#FFFFFF" stroke="#000000" stroke-width="0.9177" stroke-linecap="round" stroke-linejoin="round" d="
					M243.4,60.9c0,0-11-2.3-14.7,5.7c-3.7,8-1,17.6,2,22.3s6.3,6.3,8.7,6.3s6.6,0.3,9-1.7c3.7-3,7-8,7-13.6c0-5.7,0-9-3-12
					C249.4,64.9,243.4,60.9,243.4,60.9z"/>
				<ellipse fill-rule="evenodd" clip-rule="evenodd" cx="241.2" cy="78.2" rx="11.8" ry="15.6"/>
				<path id="color:1" fill-rule="evenodd" clip-rule="evenodd" fill="#86B682" d="M230.4,78.2c0-7.9,4.9-14.3,10.8-14.3
					c6,0,10.8,6.4,10.8,14.3c0,7.9-4.9,14.3-10.8,14.3C235.2,92.5,230.4,86.1,230.4,78.2z"/>
				<path opacity="0.75" fill-rule="evenodd" clip-rule="evenodd" d="M233.4,75.5c0-5.9,3.7-10.6,8.2-10.6c4.5,0,8.2,4.8,8.2,10.6
					c0,5.9-3.7,10.6-8.2,10.6C237,86.2,233.4,81.4,233.4,75.5z"/>
				<path fill-rule="evenodd" clip-rule="evenodd" fill="#2B1C1B" d="M255.1,74.2c0,0-4.7-10.3-14.7-11.3c-10-1-12,3.3-12,3.3
					s-2.7-6.7,8-7c9.4-0.3,13.3,4.7,16.7,8.3C256.4,71.2,255.1,74.2,255.1,74.2z"/>
				<path fill-rule="evenodd" clip-rule="evenodd" fill="#2B1C1B" d="M248.5,93.5c0,0-8.4,1.5-12.4,0c-4-1.5,2,3.8,7.7,3
					C248.2,95.8,248.5,93.5,248.5,93.5z"/>
				<path fill-rule="evenodd" clip-rule="evenodd" fill="#FFFFFF" d="M233.4,68.3c0-1.3,1-2.3,2.3-2.3c1.3,0,2.3,1,2.3,2.3
					c0,1.3-1,2.3-2.3,2.3C234.4,70.7,233.4,69.6,233.4,68.3z"/>
				<path fill-rule="evenodd" clip-rule="evenodd" fill="#EEEEEE" d="M246.3,85.6c1.8-2.1,1.8-5.7,3.6-3.7c1.8,2,1.3,4.3-0.6,6.4
					c-1.9,2.1-4.3,3.1-6.1,1.1C241.4,87.4,244.5,87.6,246.3,85.6z"/>
				
					<path fill-rule="evenodd" clip-rule="evenodd" fill="#FFFFFF" stroke="#000000" stroke-width="0.9177" stroke-linecap="round" stroke-linejoin="round" d="
					M186.6,60.9c0,0,11-2.3,14.7,5.7c3.7,8,1,17.6-2,22.3c-3,4.7-6.3,6.3-8.7,6.3c-2.3,0-6.6,0.3-9-1.7c-3.7-3-7-8-7-13.6
					c0-5.7,0-9,3-12C180.6,64.9,186.6,60.9,186.6,60.9z"/>
				<path fill-rule="evenodd" clip-rule="evenodd" d="M200.6,78.2c0-8.6-5.3-15.6-11.8-15.6c-6.5,0-11.8,7-11.8,15.6
					c0,8.6,5.3,15.6,11.8,15.6C195.3,93.8,200.6,86.8,200.6,78.2z"/>
				<path id="color:1" fill-rule="evenodd" clip-rule="evenodd" fill="#86B682" d="M177.9,78.2c0-7.9,4.9-14.3,10.8-14.3
					c6,0,10.8,6.4,10.8,14.3c0,7.9-4.9,14.3-10.8,14.3C182.8,92.5,177.9,86.1,177.9,78.2z"/>
				<path opacity="0.75" fill-rule="evenodd" clip-rule="evenodd" d="M180.9,75.5c0-5.9,3.7-10.6,8.2-10.6s8.2,4.8,8.2,10.6
					c0,5.9-3.7,10.6-8.2,10.6S180.9,81.4,180.9,75.5z"/>
				<path fill-rule="evenodd" clip-rule="evenodd" fill="#2B1C1B" d="M174.9,74.2c0,0,4.7-10.3,14.7-11.3c10-1,12,3.3,12,3.3
					s2.7-6.7-8-7c-9.4-0.3-13.3,4.7-16.7,8.3C173.6,71.2,174.9,74.2,174.9,74.2z"/>
				<path fill-rule="evenodd" clip-rule="evenodd" fill="#2B1C1B" d="M181.5,93.5c0,0,8.4,1.5,12.4,0c4-1.5-2,3.8-7.7,3
					C181.8,95.8,181.5,93.5,181.5,93.5z"/>
				<path fill-rule="evenodd" clip-rule="evenodd" fill="#FFFFFF" d="M180.9,68.3c0-1.3,1-2.3,2.3-2.3c1.3,0,2.3,1,2.3,2.3
					c0,1.3-1,2.3-2.3,2.3C181.9,70.7,180.9,69.6,180.9,68.3z"/>
				<path fill-rule="evenodd" clip-rule="evenodd" fill="#EEEEEE" d="M193.9,85.6c1.9-2.1,1.8-5.7,3.6-3.7c1.8,2,1.3,4.3-0.6,6.4
					c-1.8,2.1-4.3,3.1-6.1,1.1C189,87.4,192,87.6,193.9,85.6z"/>
			</g>
			<g id="border">
				
					<polygon id="front" opacity="0.25" fill="none" stroke="#000000" stroke-miterlimit="10" stroke-dasharray="1,3" enable-background="new    " points="
					155,35 275,35 275,125 155,125 		"/>
				
					<polygon id="back" opacity="0.25" fill="none" stroke="#000000" stroke-miterlimit="10" stroke-dasharray="1,3" enable-background="new    " points="
					155,245 275,245 275,335 155,335 		"/>
				
					<polygon id="left" opacity="0.25" fill="none" stroke="#000000" stroke-miterlimit="10" stroke-dasharray="1,3" enable-background="new    " points="
					275,35 395,35 395,125 275,125 		"/>
				
					<polygon id="right" opacity="0.25" fill="none" stroke="#000000" stroke-miterlimit="10" stroke-dasharray="1,3" enable-background="new    " points="
					35,35 155,35 155,125 35,125 		"/>
				
					<polygon id="bottom" opacity="0.25" fill="none" stroke="#000000" stroke-miterlimit="10" stroke-dasharray="1,3" enable-background="new    " points="
					155,125 275,125 275,245 155,245 		"/>
				
					<polygon id="top" opacity="0.25" fill="none" stroke="#000000" stroke-miterlimit="10" stroke-dasharray="1,3" enable-background="new    " points="
					155,335 275,335 275,455 155,455 		"/>
			</g>
			<g id="outline">
				<polygon fill="none" stroke="#000000" stroke-miterlimit="10" points="275,125 285,135 385,135 405,115 405,45 385,25 285,25 
					275,35 265,25 165,25 155,35 145,25 45,25 25,45 25,115 45,135 145,135 155,125 155,455 275,455 		"/>
			</g>
		</g>
	</g>
</svg>
