<?xml version="1.0" encoding="utf-8"?>
<!-- Generator: Adobe Illustrator 16.0.0, SVG Export Plug-In . SVG Version: 6.00 Build 0)  -->
<!DOCTYPE svg PUBLIC "-//W3C//DTD SVG 1.1//EN" "http://www.w3.org/Graphics/SVG/1.1/DTD/svg11.dtd">
<svg version="1.1" id="Layer" xmlns="http://www.w3.org/2000/svg" xmlns:xlink="http://www.w3.org/1999/xlink" x="0px" y="0px"
	 width="400px" height="450px" viewBox="0 0 400 450" enable-background="new 0 0 400 450" xml:space="preserve">
<g id="part">
	<g id="head">
		<g id="background">
			<rect id="color:skin" x="140" y="320" fill="#F4F4E1" width="120" height="120"/>
			<rect id="color:skin" x="20" y="20" fill="#F4F4E1" width="120" height="90"/>
			<rect id="color:skin" x="260" y="20" fill="#F4F4E1" width="120" height="90"/>
			<rect id="color:skin" x="140" y="20" fill="#F4F4E1" width="120" height="90"/>
			<rect id="color:skin" x="140" y="110" fill="#F4F4E1" width="120" height="120"/>
			<rect id="color:skin" x="140" y="230" fill="#F4F4E1" width="120" height="90"/>
		</g>
		<g id="foreground">
			<rect x="20" y="40" id="color:2" fill="#333333" width="360" height="8"/>
			<path id="color:1" fill="#666666" d="M380,110l-119.8,0.1L260,440H140l-0.1-330H20V48h131.2c0,0,0.8,30,48.5,30c49.6,0,49-30,49-30H380V110z"
				/>
			<rect x="20" y="20" id="color:1" fill="#666666" width="360" height="20"/>
			<line fill="none" stroke="#000000" stroke-miterlimit="10" x1="20" y1="48" x2="380" y2="48"/>
			<line fill="none" stroke="#000000" stroke-miterlimit="10" x1="20" y1="40" x2="380" y2="40"/>
			<rect x="140" y="292" id="color:2" fill="#333333" width="120" height="8"/>
			<line fill="none" stroke="#000000" stroke-miterlimit="10" x1="140" y1="300" x2="260" y2="300"/>
			<line fill="none" stroke="#000000" stroke-miterlimit="10" x1="140" y1="292" x2="260" y2="292"/>
			<path id="color:2" fill="#333333" stroke="#000000" stroke-miterlimit="10" d="M200.6,295.2h-9.2c0,0-8.6-11-10-14.5c-1.4-3.4,0-14.8,0-14.8
				h8.2c0,0,0.2,7.9,1,10.3C192.2,281.2,200.6,295.2,200.6,295.2z"/>
			<path id="color:2" fill="#333333" stroke="#000000" stroke-miterlimit="10" d="M199.3,295.2h9.2c0,0,8.6-11,10-14.5c1.4-3.4,0-14.8,0-14.8
				h-8.2c0,0-0.2,7.9-1,10.3C207.7,281.2,199.3,295.2,199.3,295.2z"/>
			<path id="color:2" fill="#333333" stroke="#000000" stroke-miterlimit="10" d="M191.3,293.8c10.2-16.8,3.9-3.7,8.7-3.7s-2-13.2,8.7,3.7
				c2.6,4-3.9,8.7-8.7,8.7S188.8,297.9,191.3,293.8z"/>
			<path d="M208.7,87.1c0,2.3-3.9,4.2-8.8,4.2s-8.8-1.9-8.8-4.2c0-2.3-0.8,2.8,8.8,2.8C209.8,90,208.7,84.8,208.7,87.1z"/>
		</g>
		<g id="border">
			
				<polygon id="front" opacity="0.25" fill="none" stroke="#000000" stroke-miterlimit="10" stroke-dasharray="1,3" enable-background="new    " points="
				140,20 260,20 260,110 140,110 			"/>
			
				<polygon id="back" opacity="0.25" fill="none" stroke="#000000" stroke-miterlimit="10" stroke-dasharray="1,3" enable-background="new    " points="
				140,230 260,230 260,320 140,320 			"/>
			
				<polygon id="left" opacity="0.25" fill="none" stroke="#000000" stroke-miterlimit="10" stroke-dasharray="1,3" enable-background="new    " points="
				260,20 380,20 380,110 260,110 			"/>
			
				<polygon id="right" opacity="0.25" fill="none" stroke="#000000" stroke-miterlimit="10" stroke-dasharray="1,3" enable-background="new    " points="
				20,20 140,20 140,110 20,110 			"/>
			
				<polygon id="bottom" opacity="0.25" fill="none" stroke="#000000" stroke-miterlimit="10" stroke-dasharray="1,3" enable-background="new    " points="
				140,110 260,110 260,230 140,230 			"/>
			
				<polygon id="top" opacity="0.25" fill="none" stroke="#000000" stroke-miterlimit="10" stroke-dasharray="1,3" enable-background="new    " points="
				140,320 260,320 260,440 140,440 			"/>
		</g>
		<g id="outline" display="none">
			<polygon display="inline" fill="none" stroke="#000000" stroke-miterlimit="10" points="260,110 270,120 370,120 390,100 390,30 
				370,10 270,10 260,20 250,10 150,10 140,20 130,10 30,10 10,30 10,100 30,120 130,120 140,110 140,440 260,440 			"/>
			<line display="inline" fill="none" stroke="#000000" stroke-miterlimit="10" x1="169.8" y1="185.1" x2="229.8" y2="185.1"/>
			<line display="inline" fill="none" stroke="#000000" stroke-miterlimit="10" x1="169.8" y1="154.9" x2="229.8" y2="154.9"/>
		</g>
	</g>
</g>
</svg>
