<?xml version="1.0" encoding="utf-8"?>
<!-- Generator: Adobe Illustrator 16.0.0, SVG Export Plug-In . SVG Version: 6.00 Build 0)  -->
<!DOCTYPE svg PUBLIC "-//W3C//DTD SVG 1.1//EN" "http://www.w3.org/Graphics/SVG/1.1/DTD/svg11.dtd">
<svg version="1.1" id="Layer" xmlns="http://www.w3.org/2000/svg" xmlns:xlink="http://www.w3.org/1999/xlink" x="0px" y="0px"
	 width="590px" height="445px" viewBox="0 0 590 445" enable-background="new 0 0 590 445" xml:space="preserve">
<g id="part">
	<g id="armLeft">
		<g id="background">
			<polygon id="color:skin" fill="#F4F4E1" points="445,315 490,315 490,345 445,345 			"/>
			<polygon id="color:skin" fill="#F4F4E1" points="460,225 475,225 490,315 445,315 			"/>
			<polygon id="color:skin" fill="#F4F4E1" points="445,345 490,345 475,435 460,435 			"/>
			<polygon id="color:skin" fill="#F4F4E1" points="580,330 490,345 490,315 			"/>
			<polygon id="color:skin" fill="#F4F4E1" points="355,330 445,315 445,345 			"/>
		</g>
		<g id="foreground">
			<polygon id="color:1" fill="#0080f9" points="460,225 475,225 485,285 450,285 			"/>
			<polygon id="color:1" fill="#0080f9" points="450,375 485,375 475,435 460,435 			"/>
			<polygon id="color:1" fill="#0080f9" points="580,330 520,340 520,320 			"/>
			<polygon id="color:1" fill="#0080f9" points="355,330 415,320 415,340 			"/>
			<path id="color:5" fill="#44DDCC" d="M460,256.4v-8.2c0-4.3,3.5-7.9,7.9-7.9l0,0c4.3,0,7.9,3.5,7.9,7.9v8.2l-2.9-1.9l-3,1.9l-2.4-2l-2.6,2
				l-1.5-2L460,256.4z"/>
			<circle fill="#FFFFFF" cx="471.4" cy="246.3" r="2.4"/>
			<circle fill="#FFFFFF" cx="464.4" cy="246.3" r="2.4"/>
			<rect x="469.6" y="244.3" fill="#4422AA" width="2.7" height="1.8"/>
			<rect x="462.6" y="244.3" fill="#4422AA" width="2.7" height="1.8"/>
		</g>
		<g id="border">
			<polygon id="front" fill="none" points="445,315 490,315 490,345 445,345 			"/>
			<polygon id="top" opacity="0.25" fill="none" stroke="#000000" stroke-dasharray="1,3" enable-background="new    " points="
				460,225 475,225 490,315 445,315 			"/>
			
				<polygon id="bottom" opacity="0.25" fill="none" stroke="#000000" stroke-dasharray="1,3" enable-background="new    " points="
				445,345 490,345 475,435 460,435 			"/>
			<polygon id="left" opacity="0.25" fill="none" stroke="#000000" stroke-dasharray="1,3" enable-background="new    " points="
				580,330 490,345 490,315 			"/>
			
				<polygon id="right" opacity="0.25" fill="none" stroke="#000000" stroke-dasharray="1,3" enable-background="new    " points="
				355,330 445,315 445,345 			"/>
		</g>
		<g id="outline" display="none">
			<polygon display="inline" fill="none" stroke="#000000" stroke-miterlimit="10" points="475,225 500,305 490,315 580,330 
				490,345 500,355 475,435 460,435 435,355 445,345 355,330 445,315 435,305 460,225 			"/>
		</g>
	</g>
	<g id="armRight">
		<g id="background">
			<polygon id="color:skin" fill="#F4F4E1" points="100,315 145,315 145,345 100,345 			"/>
			<polygon id="color:skin" fill="#F4F4E1" points="115,225 130,225 145,315 100,315 			"/>
			<polygon id="color:skin" fill="#F4F4E1" points="100,345 145,345 130,435 115,435 			"/>
			<polygon id="color:skin" fill="#F4F4E1" points="235,330 145,345 145,315 			"/>
			<polygon id="color:skin" fill="#F4F4E1" points="10,330 100,315 100,345 			"/>
		</g>
		<g id="foreground">
			<polygon id="color:1" fill="#0080f9" points="115,225 130,225 140,285 105,285 			"/>
			<polygon id="color:1" fill="#0080f9" points="105,375 140,375 130,435 115,435 			"/>
			<polygon id="color:1" fill="#0080f9" points="235,330 175,340 175,320 			"/>
			<polygon id="color:1" fill="#0080f9" points="10,330 70,320 70,340 			"/>
			<path id="color:4" fill="#FFBB55" d="M130.8,256.4v-8.2c0-4.3-3.5-7.9-7.9-7.9l0,0c-4.3,0-7.9,3.5-7.9,7.9v8.2l2.9-1.9l3,1.9l2.4-2l2.6,2
				l1.5-2L130.8,256.4z"/>
			<circle fill="#FFFFFF" cx="126.4" cy="246.3" r="2.4"/>
			<circle fill="#FFFFFF" cx="119.4" cy="246.3" r="2.4"/>
			<rect x="125.6" y="246.3" fill="#4422AA" width="2.7" height="1.8"/>
			<rect x="118.6" y="246.3" fill="#4422AA" width="2.7" height="1.8"/>
		</g>
		<g id="border">
			<polygon id="front" fill="none" points="100,315 145,315 145,345 100,345 			"/>
			<polygon id="top" opacity="0.25" fill="none" stroke="#000000" stroke-dasharray="1,3" enable-background="new    " points="
				115,225 130,225 145,315 100,315 			"/>
			
				<polygon id="bottom" opacity="0.25" fill="none" stroke="#000000" stroke-dasharray="1,3" enable-background="new    " points="
				100,345 145,345 130,435 115,435 			"/>
			<polygon id="left" opacity="0.25" fill="none" stroke="#000000" stroke-dasharray="1,3" enable-background="new    " points="
				235,330 145,345 145,315 			"/>
			
				<polygon id="right" opacity="0.25" fill="none" stroke="#000000" stroke-dasharray="1,3" enable-background="new    " points="
				10,330 100,315 100,345 			"/>
		</g>
		<g id="outline" display="none">
			<polygon display="inline" fill="none" stroke="#000000" stroke-miterlimit="10" points="130,225 155,305 145,315 235,330 
				145,345 155,355 130,435 115,435 90,355 100,345 10,330 100,315 90,305 115,225 			"/>
		</g>
	</g>
	<g id="torso">
		<g id="background">
			<rect id="color:skin" x="265" y="10" fill="#CCBBCC" width="60" height="20"/>
			<rect id="color:skin" x="265" y="360" fill="#CCBBCC" width="60" height="20"/>
			<polygon id="color:skin" fill="#F4F4E1" points="235,150 355,150 355,240 235,240 			"/>
			<polygon id="color:skin" fill="#F4F4E1" points="265,30 325,30 355,150 235,150 			"/>
			<polygon id="color:skin" fill="#F4F4E1" points="325,360 265,360 235,240 355,240 			"/>
			<polygon id="color:skin" fill="#F4F4E1" points="115,210 115,180 235,150 235,240 			"/>
			<polygon id="color:skin" fill="#F4F4E1" points="475,180 475,210 355,240 355,150 			"/>
		</g>
		<g id="foreground">
			<polygon id="color:1" fill="#0080f9" points="235,150 355,150 355,240 235,240 			"/>
			<polygon id="color:1" fill="#0080f9" points="262.5,40 327.5,40 355,150 235,150 			"/>
			<polygon id="color:1" fill="#0080f9" points="327.5,350 262.5,350 235,240 355,240 			"/>
			<polygon id="color:1" fill="#0080f9" points="125,212.5 125,177.5 235,150 235,240 			"/>
			<polygon id="color:1" fill="#0080f9" points="465,177.5 465,212.5 355,240 355,150 			"/>
			<path id="color:2" fill="#FCF615" d="M282.8,89.8c0,0,18.7,5.2,17.7,7.5c-2.9,6.9-9.8,11.8-17.7,11.8c-10.6,0-19.2-8.6-19.2-19.2
				s8.6-19.2,19.2-19.2c7.3,0,13.7,4.1,16.9,10.1C301.2,83.3,282.8,89.8,282.8,89.8z"/>
			<circle id="color:1" cx="282.1" cy="79" r="3.1"/>
			<circle id="color:3" fill="#FFFFFF" cx="306.1" cy="90" r="3.1"/>
			<circle id="color:3" fill="#FFFFFF" cx="306.1" cy="90" r="3.1"/>
			<circle id="color:3" fill="#FFFFFF" cx="316.1" cy="90" r="3.1"/>
			<circle id="color:3" fill="#FFFFFF" cx="326.1" cy="90" r="3.1"/>
			<circle id="color:3" fill="#FFFFFF" cx="336.1" cy="90" r="3.1"/>
			<circle id="color:3" fill="#FFFFFF" cx="415.1" cy="171" r="3.1"/>
			<circle id="color:3" fill="#FFFFFF" cx="415.1" cy="181" r="3.1"/>
			<circle id="color:3" fill="#FFFFFF" cx="415.1" cy="191" r="3.1"/>
			<circle id="color:3" fill="#FFFFFF" cx="415.1" cy="201" r="3.1"/>
			<circle id="color:3" fill="#FFFFFF" cx="415.1" cy="211" r="3.1"/>
			<circle id="color:3" fill="#FFFFFF" cx="415.1" cy="221" r="3.1"/>
			<circle id="color:3" fill="#FFFFFF" cx="334.1" cy="300" r="3.1"/>
			<circle id="color:3" fill="#FFFFFF" cx="324.1" cy="300" r="3.1"/>
			<circle id="color:3" fill="#FFFFFF" cx="314.1" cy="300" r="3.1"/>
			<circle id="color:3" fill="#FFFFFF" cx="295.3" cy="300.3" r="7.8"/>
		</g>
		<g id="border">
			<polygon id="bottom" fill="none" points="235,150 355,150 355,240 235,240 			"/>
			
				<polygon id="front" opacity="0.25" fill="none" stroke="#000000" stroke-miterlimit="10" stroke-dasharray="1,3" enable-background="new    " points="
				265,30 325,30 355,150 235,150 			"/>
			
				<polygon id="back" opacity="0.25" fill="none" stroke="#000000" stroke-miterlimit="10" stroke-dasharray="1,3" enable-background="new    " points="
				325,360 265,360 235,240 355,240 			"/>
			
				<polygon id="right" opacity="0.25" fill="none" stroke="#000000" stroke-miterlimit="10" stroke-dasharray="1,3" enable-background="new    " points="
				115,210 115,180 235,150 235,240 			"/>
			
				<polygon id="left" opacity="0.25" fill="none" stroke="#000000" stroke-miterlimit="10" stroke-dasharray="1,3" enable-background="new    " points="
				475,180 475,210 355,240 355,150 			"/>
		</g>
		<g id="outline" display="none">
			<polygon display="inline" fill="none" stroke="#000000" stroke-miterlimit="10" points="325,10 265,10 265,30 255,40 225,140 
				235,150 115,180 115,210 235,240 225,250 255,350 265,360 265,380 325,380 325,360 335,350 365,250 355,240 475,210 475,180 
				355,150 365,140 335,40 325,30 			"/>
			<line display="inline" fill="none" stroke="#000000" stroke-miterlimit="10" x1="250" y1="175" x2="340" y2="175"/>
			<line display="inline" fill="none" stroke="#000000" stroke-miterlimit="10" x1="250" y1="215" x2="340" y2="215"/>
		</g>
	</g>
</g>
</svg>
