<?xml version="1.0" encoding="utf-8"?>
<!-- Generator: Adobe Illustrator 16.0.0, SVG Export Plug-In . SVG Version: 6.00 Build 0)  -->
<!DOCTYPE svg PUBLIC "-//W3C//DTD SVG 1.1//EN" "http://www.w3.org/Graphics/SVG/1.1/DTD/svg11.dtd">
<svg version="1.1" id="Layer" xmlns="http://www.w3.org/2000/svg" xmlns:xlink="http://www.w3.org/1999/xlink" x="0px" y="0px"
	 width="590px" height="445px" viewBox="0 0 590 445" enable-background="new 0 0 590 445" xml:space="preserve">
<g id="part">
	<g id="armLeft">
		<g id="background">
			<polygon id="color:skin" fill="#F4F4E1" points="445,315 490,315 490,345 445,345 			"/>
			<polygon id="color:skin" fill="#F4F4E1" points="460,225 475,225 490,315 445,315 			"/>
			<polygon id="color:skin" fill="#F4F4E1" points="445,345 490,345 475,435 460,435 			"/>
			<polygon id="color:skin" fill="#F4F4E1" points="580,330 490,345 490,315 			"/>
			<polygon id="color:skin" fill="#F4F4E1" points="355,330 445,315 445,345 			"/>
		</g>
		<g id="foreground">
			<line fill="none" stroke="#000000" stroke-miterlimit="10" x1="456.2" y1="345" x2="456.2" y2="330"/>
			<line fill="none" stroke="#000000" stroke-miterlimit="10" x1="467.2" y1="345" x2="467.2" y2="330"/>
			<line fill="none" stroke="#000000" stroke-miterlimit="10" x1="478.2" y1="345" x2="478.2" y2="330"/>
		</g>
		<g id="border">
			<polygon id="front" fill="none" points="445,315 490,315 490,345 445,345 			"/>
			<polygon id="top" opacity="0.25" fill="none" stroke="#000000" stroke-dasharray="1,3" enable-background="new    " points="
				460,225 475,225 490,315 445,315 			"/>
			
				<polygon id="bottom" opacity="0.25" fill="none" stroke="#000000" stroke-dasharray="1,3" enable-background="new    " points="
				445,345 490,345 475,435 460,435 			"/>
			<polygon id="left" opacity="0.25" fill="none" stroke="#000000" stroke-dasharray="1,3" enable-background="new    " points="
				580,330 490,345 490,315 			"/>
			
				<polygon id="right" opacity="0.25" fill="none" stroke="#000000" stroke-dasharray="1,3" enable-background="new    " points="
				355,330 445,315 445,345 			"/>
		</g>
		<g id="outline" display="none">
			<polygon display="inline" fill="none" stroke="#000000" stroke-miterlimit="10" points="475,225 500,305 490,315 580,330 
				490,345 500,355 475,435 460,435 435,355 445,345 355,330 445,315 435,305 460,225 			"/>
		</g>
	</g>
	<g id="armRight">
		<g id="background">
			<polygon id="color:skin" fill="#F4F4E1" points="100,315 145,315 145,345 100,345 			"/>
			<polygon id="color:skin" fill="#F4F4E1" points="115,225 130,225 145,315 100,315 			"/>
			<polygon id="color:skin" fill="#F4F4E1" points="100,345 145,345 130,435 115,435 			"/>
			<polygon id="color:skin" fill="#F4F4E1" points="235,330 145,345 145,315 			"/>
			<polygon id="color:skin" fill="#F4F4E1" points="10,330 100,315 100,345 			"/>
		</g>
		<g id="foreground">
			<line fill="none" stroke="#000000" stroke-miterlimit="10" x1="111.2" y1="345" x2="111.2" y2="330"/>
			<line fill="none" stroke="#000000" stroke-miterlimit="10" x1="122.2" y1="345" x2="122.2" y2="330"/>
			<line fill="none" stroke="#000000" stroke-miterlimit="10" x1="133.2" y1="345" x2="133.2" y2="330"/>
		</g>
		<g id="border">
			<polygon id="front" fill="none" points="100,315 145,315 145,345 100,345 			"/>
			<polygon id="top" opacity="0.25" fill="none" stroke="#000000" stroke-dasharray="1,3" enable-background="new    " points="
				115,225 130,225 145,315 100,315 			"/>
			
				<polygon id="bottom" opacity="0.25" fill="none" stroke="#000000" stroke-dasharray="1,3" enable-background="new    " points="
				100,345 145,345 130,435 115,435 			"/>
			<polygon id="left" opacity="0.25" fill="none" stroke="#000000" stroke-dasharray="1,3" enable-background="new    " points="
				235,330 145,345 145,315 			"/>
			
				<polygon id="right" opacity="0.25" fill="none" stroke="#000000" stroke-dasharray="1,3" enable-background="new    " points="
				10,330 100,315 100,345 			"/>
		</g>
		<g id="outline" display="none">
			<polygon display="inline" fill="none" stroke="#000000" stroke-miterlimit="10" points="130,225 155,305 145,315 235,330 
				145,345 155,355 130,435 115,435 90,355 100,345 10,330 100,315 90,305 115,225 			"/>
		</g>
	</g>
	<g id="torso">
		<g id="background">
			<rect id="color:skin" x="265" y="10" fill="#CCBBCC" width="60" height="20"/>
			<rect id="color:skin" x="265" y="360" fill="#CCBBCC" width="60" height="20"/>
			<polygon id="color:skin" fill="#F4F4E1" points="235,150 355,150 355,240 235,240 			"/>
			<polygon id="color:skin" fill="#F4F4E1" points="265,30 325,30 355,150 235,150 			"/>
			<polygon id="color:skin" fill="#F4F4E1" points="325,360 265,360 235,240 355,240 			"/>
			<polygon id="color:skin" fill="#F4F4E1" points="115,210 115,180 235,150 235,240 			"/>
			<polygon id="color:skin" fill="#F4F4E1" points="475,180 475,210 355,240 355,150 			"/>
		</g>
		<g id="foreground">
			<polygon id="color:1" fill="#EECCFF" points="235,150 355,150 355,240 235,240 			"/>
			<path id="color:1" fill="#EECCFF" d="M265,30h1.2c0,0-5.5,23.8-5.1,24C266,56,288.4,64,295,64c7.8,0,28.4-8.1,33.8-10.1
				c0.5-0.2-5-23.9-5-23.9h1.2l30,120H235L265,30z"/>
			<path id="color:2" fill="#BA47FC" d="M287.7,87.4c-0.9,0.9-1.9,1.6-3.1,2c-1.1,0.4-2.7-3.5-3.9-3.5c-1,0-2.3,3.5-3.3,3c-1-0.4-2.3-1.7-3.1-2.5
				c-1-1,2.4-3.5,2-4.8c-0.3-1-3.5-1.7-3.5-2.8c0.1-1,2-2.8,2.8-3.6c0.8-0.8,2.3,1.6,3.3,1.2c1.1-0.5,1.3-4,2.4-4
				c1.3,0,2.6,0.2,3.8,0.8c0.9,0.4-0.6,3.4,0.1,4.2c0.9,0.9,4-0.5,4.4,0.6c0.4,1.1,0.6,2.3,0.6,3.5c0,1.2-4.1,0.7-4.6,1.8
				C285.2,84.2,288.4,86.7,287.7,87.4z"/>
			<path opacity="0.95" fill="#FFFFFF" d="M283.3,83.3c-1.2,0.8-2.4,0.7-3.4-0.3c-1-1-1.1-2-0.3-3.4c0.7-1.2,2-1.5,3-0.4
				C283.7,80.2,284.5,82.5,283.3,83.3z"/>
			<path id="color:1" fill="#EECCFF" d="M115,210v-1.3c0,0,25.7,6.3,25.8,6.2c6.5-2.2,23.3-11.7,23.3-18.4
				c0-7.8-17-18.8-23.5-21.3c-0.1-0.1-25.7,6.3-25.7,6.3V180l120-30v90L115,210z"/>
			<path id="color:1" fill="#EECCFF" d="M325,360h-1.2c0,0,5.5-23.8,5.1-24c-4.9-2.1-27.3,0-33.9,0c-7.8,0-28.4-1.9-33.8,0.1
				c-0.5,0.2,5,23.9,5,23.9H265l-30-120h120L325,360z"/>
			<path id="color:1" fill="#EECCFF" d="M475,180l0,1.3c0,0-25.7-6.3-25.8-6.2c-6.5,2.2-23.3,11.7-23.3,18.4
				c0,7.8,17,18.8,23.5,21.3c0.1,0.1,25.7-6.3,25.7-6.3l0,1.5l-120,30v-90L475,180z"/>
			<path id="color:2" fill="#BA47FC" d="M328.3,66.8c0.9,0.9,1.6,1.9,2,3.1c0.4,1.1-3.5,2.7-3.5,3.9c0,1,3.5,2.3,3,3.3c-0.4,1-1.7,2.3-2.5,3.1
				c-1,1-3.5-2.4-4.8-2c-1,0.3-1.7,3.5-2.8,3.5c-1-0.1-2.8-2-3.6-2.8c-0.8-0.8,1.6-2.3,1.2-3.3c-0.5-1.1-4-1.3-4-2.4
				c0-1.3,0.2-2.6,0.8-3.8c0.4-0.9,3.4,0.6,4.2-0.1c0.9-0.9-0.5-4,0.6-4.4c1.1-0.4,2.3-0.6,3.5-0.6c1.2,0,0.7,4.1,1.8,4.6
				C325.1,69.3,327.6,66.1,328.3,66.8z"/>
			<path opacity="0.95" fill="#FFFFFF" d="M324.3,71.1c0.8,1.2,0.7,2.4-0.3,3.4c-1,1-2,1.1-3.4,0.3c-1.2-0.7-1.5-2-0.4-3
				C321.2,70.7,323.4,70,324.3,71.1z"/>
			<path id="color:2" fill="#BA47FC" d="M267.6,101.9c0.9,0.9,1.6,1.9,2,3.1c0.4,1.1-3.5,2.7-3.5,3.9c0,1,3.5,2.3,3,3.3c-0.4,1-1.7,2.3-2.5,3.1
				c-1,1-3.5-2.4-4.8-2c-1,0.3-1.7,3.5-2.8,3.5c-1-0.1-2.8-2-3.6-2.8c-0.8-0.8,1.6-2.3,1.2-3.3c-0.5-1.1-4-1.3-4-2.4
				c0-1.3,0.2-2.6,0.8-3.8c0.4-0.9,3.4,0.6,4.2-0.1c0.9-0.9-0.5-4,0.6-4.4s2.3-0.6,3.5-0.6c1.2,0,0.7,4.1,1.8,4.6
				C264.4,104.4,266.9,101.2,267.6,101.9z"/>
			<path opacity="0.95" fill="#FFFFFF" d="M263.5,106.3c0.8,1.2,0.7,2.4-0.3,3.4c-1,1-2,1.1-3.4,0.3c-1.2-0.7-1.5-2-0.4-3
				C260.4,105.9,262.7,105.1,263.5,106.3z"/>
			<path id="color:2" fill="#BA47FC" d="M323.5,114c1.3,0.2,2.4,0.6,3.4,1.3c1,0.6-1.2,4.2-0.5,5.2c0.6,0.9,4.2-0.2,4.4,0.8c0.3,1.1,0,2.9-0.2,4
				c-0.2,1.4-4.3,0.1-5.1,1.2c-0.6,0.9,0.7,3.9-0.2,4.5c-0.9,0.6-3.4,0-4.5-0.2c-1.1-0.2-0.1-2.8-1-3.4c-1-0.6-3.9,1.3-4.6,0.4
				c-0.8-1-1.3-2.2-1.6-3.5c-0.2-1,3.1-1.5,3.3-2.6c0.2-1.2-2.7-2.9-2.1-3.9c0.6-1,1.5-1.9,2.4-2.5c1-0.7,3,2.9,4.2,2.6
				C322.3,117.9,322.5,113.9,323.5,114z"/>
			<path opacity="0.95" fill="#FFFFFF" d="M322.8,119.9c1.4,0.4,2,1.5,1.8,2.9c-0.2,1.4-0.9,2.1-2.6,2.2c-1.4,0.1-2.4-0.8-2.2-2.2
				C320.1,121.4,321.4,119.5,322.8,119.9z"/>
			<path id="color:2" fill="#BA47FC" d="M324,101.3c-0.7,1.1-1.5,2-2.5,2.7c-1,0.7-3.5-2.7-4.6-2.5c-1,0.2-1.4,3.9-2.4,3.8
				c-1.1-0.2-2.6-1.1-3.7-1.7c-1.2-0.7,1.5-4,0.8-5.2c-0.6-0.9-3.9-0.8-4.1-1.9c-0.2-1,1.3-3.2,1.9-4.1c0.6-1,2.7,1,3.5,0.3
				c0.9-0.7,0.3-4.2,1.4-4.4c1.2-0.3,2.6-0.4,3.9-0.2c1,0.2,0.2,3.5,1.1,4c1.1,0.6,3.7-1.4,4.4-0.5c0.7,1,1.2,2.1,1.4,3.2
				c0.3,1.2-3.8,1.7-4,2.9C320.8,98.8,324.5,100.4,324,101.3z"/>
			<path opacity="0.95" fill="#FFFFFF" d="M318.8,98.4c-0.9,1.1-2.1,1.3-3.3,0.6s-1.6-1.7-1.1-3.2c0.4-1.4,1.6-1.9,2.8-1.2
				C318.4,95.3,319.7,97.3,318.8,98.4z"/>
			<path id="color:2" fill="#BA47FC" d="M290,132.9c0,1.3-0.3,2.5-0.8,3.6s-4.4-0.5-5.2,0.3c-0.8,0.7,0.8,4.1-0.2,4.5c-1,0.4-2.8,0.4-4,0.4
				c-1.4,0-0.8-4.2-2-4.8c-1-0.5-3.7,1.3-4.4,0.5c-0.7-0.8-0.5-3.4-0.5-4.5c0-1.1,2.8-0.5,3.2-1.5c0.4-1.1-1.9-3.7-1.1-4.5
				c0.9-0.9,2-1.7,3.2-2.1c0.9-0.3,2,2.9,3,2.9c1.3,0,2.5-3.1,3.5-2.7s2.1,1.2,2.9,2c0.8,0.9-2.4,3.4-2,4.6
				C286,132.4,290,131.9,290,132.9z"/>
			<path opacity="0.95" fill="#FFFFFF" d="M284,133.1c-0.2,1.4-1.2,2.2-2.6,2.2s-2.2-0.6-2.6-2.2c-0.3-1.4,0.4-2.5,1.8-2.5
				S284.3,131.7,284,133.1z"/>
			<path id="color:3" fill="#FF8DAB" d="M294.8,101c0.6,0.6,1.1,1.4,1.4,2.1s-2.4,1.9-2.5,2.7c0,0.7,2.4,1.6,2.1,2.3c-0.3,0.7-1.2,1.6-1.8,2.2
				c-0.7,0.7-2.5-1.7-3.4-1.4c-0.7,0.2-1.2,2.5-2,2.4c-0.7,0-1.9-1.4-2.5-2c-0.6-0.6,1.1-1.6,0.8-2.3c-0.3-0.7-2.8-0.9-2.8-1.7
				c0-0.9,0.2-1.8,0.6-2.6c0.3-0.6,2.4,0.5,2.9-0.1c0.6-0.6-0.3-2.8,0.4-3.1c0.8-0.3,1.6-0.4,2.4-0.4c0.8,0,0.5,2.9,1.3,3.2
				C292.6,102.8,294.3,100.5,294.8,101z"/>
			<path opacity="0.95" fill="#FFFFFF" d="M292,104.1c0.6,0.8,0.5,1.7-0.2,2.4c-0.7,0.7-1.4,0.8-2.4,0.2c-0.9-0.5-1-1.4-0.3-2.1
				C289.8,103.8,291.4,103.3,292,104.1z"/>
			<path id="color:3" fill="#FF8DAB" d="M337.2,102.3c0.8,0.3,1.6,0.7,2.2,1.3c0.6,0.6-1.3,2.8-1,3.5c0.3,0.7,2.9,0.4,2.9,1.1
				c0,0.8-0.3,2-0.6,2.7c-0.3,0.9-3-0.4-3.6,0.2c-0.5,0.5,0,2.8-0.7,3.1c-0.7,0.3-2.4-0.4-3.1-0.7c-0.8-0.3,0.3-2-0.3-2.5
				c-0.6-0.5-2.9,0.4-3.2-0.3c-0.4-0.8-0.6-1.7-0.7-2.6c0-0.7,2.3-0.7,2.6-1.4c0.3-0.8-1.5-2.3-1-2.9c0.6-0.6,1.2-1.1,2-1.4
				c0.8-0.3,1.7,2.3,2.6,2.3C336,104.8,336.6,102.1,337.2,102.3z"/>
			<path opacity="0.95" fill="#FFFFFF" d="M336,106.3c0.9,0.5,1.2,1.3,0.9,2.2c-0.3,0.9-0.9,1.3-2,1.2c-1-0.1-1.5-0.8-1.2-1.8
				C334,107,335.2,105.8,336,106.3z"/>
			<path id="color:3" fill="#FF8DAB" d="M308.1,74.3c0.3,0.8,0.5,1.7,0.4,2.5c0,0.8-3,0.8-3.3,1.5c-0.3,0.7,1.6,2.4,1.1,3c-0.6,0.5-1.7,1-2.5,1.3
				c-0.9,0.4-1.6-2.5-2.5-2.6c-0.8-0.1-2.1,1.8-2.8,1.5c-0.7-0.3-1.2-2.1-1.5-2.8c-0.3-0.7,1.7-1.1,1.7-1.8c0-0.8-2.2-1.9-1.9-2.6
				c0.3-0.8,0.9-1.6,1.6-2.2c0.5-0.5,2,1.4,2.7,1.1c0.8-0.3,0.8-2.7,1.6-2.7c0.8,0,1.6,0.2,2.4,0.6c0.8,0.4-0.7,2.8-0.1,3.5
				C305.3,75,307.8,73.6,308.1,74.3z"/>
			<path opacity="0.95" fill="#FFFFFF" d="M304.3,75.9c0.2,1-0.2,1.7-1.1,2.1c-0.9,0.4-1.6,0.2-2.2-0.8c-0.6-0.8-0.4-1.7,0.6-2.1
				C302.4,74.8,304.1,75,304.3,75.9z"/>
			<path id="color:3" fill="#FF8DAB" d="M267.9,88.6c0.2,0.9,0.2,1.7,0,2.6c-0.2,0.8-3.1,0.3-3.5,1c-0.4,0.6,1.2,2.7,0.6,3.1
				c-0.6,0.4-1.9,0.7-2.7,0.9c-1,0.2-1.2-2.8-2.1-3c-0.7-0.2-2.3,1.5-3,1c-0.6-0.4-0.9-2.2-1.1-3c-0.2-0.8,1.8-0.8,1.9-1.5
				c0.1-0.8-1.9-2.2-1.5-2.9c0.5-0.8,1.1-1.4,1.9-1.9c0.6-0.4,1.8,1.7,2.5,1.5c0.9-0.2,1.2-2.5,2-2.4c0.8,0.2,1.6,0.5,2.3,0.9
				c0.7,0.5-1.1,2.7-0.6,3.4C265.1,88.8,267.7,87.9,267.9,88.6z"/>
			<path opacity="0.95" fill="#FFFFFF" d="M263.9,89.6c0.1,1-0.4,1.7-1.4,1.9c-1,0.2-1.6-0.1-2.1-1.1c-0.5-0.9-0.1-1.7,0.9-2
				C262.2,88.2,263.8,88.6,263.9,89.6z"/>
			<path id="color:3" fill="#FF8DAB" d="M312.4,129.3c0.2,0.9,0.2,1.7,0,2.6c-0.2,0.8-3.1,0.2-3.6,0.9c-0.4,0.6,1.1,2.7,0.5,3.1
				c-0.6,0.4-1.9,0.7-2.7,0.9c-1,0.2-1.1-2.8-2-3c-0.7-0.2-2.4,1.4-3,1c-0.6-0.4-0.8-2.2-1-3c-0.2-0.8,1.8-0.7,2-1.5
				c0.1-0.8-1.8-2.3-1.4-2.9c0.5-0.8,1.1-1.4,1.9-1.9c0.6-0.4,1.7,1.7,2.5,1.5c0.9-0.2,1.2-2.5,2.1-2.3c0.8,0.2,1.6,0.5,2.2,1
				c0.7,0.5-1.2,2.7-0.7,3.4C309.6,129.5,312.3,128.6,312.4,129.3z"/>
			<path opacity="0.95" fill="#FFFFFF" d="M308.4,130.3c0,1-0.5,1.7-1.5,1.9c-1,0.2-1.6-0.1-2.1-1.1c-0.4-0.9-0.1-1.7,0.9-1.9
				C306.7,128.9,308.3,129.3,308.4,130.3z"/>
			<path id="color:3" fill="#FF8DAB" d="M254.6,134.1c0.6,0.6,1.1,1.4,1.4,2.1c0.3,0.8-2.4,1.9-2.5,2.7c0,0.7,2.4,1.6,2.1,2.3
				c-0.3,0.7-1.2,1.6-1.8,2.2c-0.7,0.7-2.5-1.7-3.4-1.4c-0.7,0.2-1.2,2.5-2,2.4c-0.7,0-1.9-1.4-2.5-2c-0.6-0.6,1.1-1.6,0.8-2.3
				c-0.3-0.7-2.8-0.9-2.8-1.7c0-0.9,0.2-1.8,0.6-2.6c0.3-0.6,2.4,0.5,2.9-0.1c0.6-0.6-0.3-2.8,0.4-3.1c0.8-0.3,1.6-0.4,2.4-0.4
				c0.8,0,0.5,2.9,1.3,3.2C252.3,135.9,254.1,133.6,254.6,134.1z"/>
			<path opacity="0.95" fill="#FFFFFF" d="M251.7,137.2c0.6,0.8,0.5,1.7-0.2,2.4c-0.7,0.7-1.4,0.8-2.4,0.2c-0.9-0.5-1-1.4-0.3-2.1
				C249.6,136.9,251.2,136.4,251.7,137.2z"/>
			<path id="color:3" fill="#FF8DAB" d="M339.8,145.3c-0.9-0.1-1.7-0.4-2.4-0.8c-0.7-0.4,0.7-3,0.2-3.7c-0.4-0.6-2.9,0.3-3.1-0.5
				c-0.2-0.7-0.1-2,0-2.8c0.1-1,3-0.2,3.5-1c0.4-0.6-0.6-2.7,0-3.1c0.6-0.4,2.4-0.1,3.2,0c0.8,0.1,0.1,2,0.8,2.3
				c0.7,0.4,2.7-1,3.2-0.4c0.6,0.7,1,1.5,1.2,2.4c0.2,0.7-2.1,1.2-2.2,1.9c-0.1,0.9,2,1.9,1.6,2.7c-0.4,0.7-1,1.3-1.6,1.8
				c-0.7,0.5-2.2-1.9-3-1.7C340.4,142.5,340.5,145.4,339.8,145.3z"/>
			<path opacity="0.95" fill="#FFFFFF" d="M340.1,141.1c-1-0.3-1.4-1-1.3-2c0.1-1,0.6-1.5,1.7-1.6c1-0.1,1.7,0.5,1.6,1.5
				C341.9,140,341,141.4,340.1,141.1z"/>
			<path id="color:3" fill="#FF8DAB" d="M270.4,61.6c0.2,0.9,0.3,1.7,0.2,2.5c-0.1,0.8-3,0.5-3.5,1.2c-0.4,0.6,1.3,2.6,0.7,3.1
				c-0.6,0.5-1.8,0.8-2.6,1c-1,0.3-1.3-2.7-2.2-2.9c-0.8-0.1-2.3,1.6-2.9,1.2c-0.6-0.4-1-2.2-1.2-2.9c-0.2-0.8,1.8-0.9,1.9-1.6
				c0.1-0.8-2-2.1-1.6-2.8c0.4-0.8,1-1.5,1.8-2c0.6-0.4,1.9,1.6,2.6,1.4c0.8-0.2,1.1-2.6,1.9-2.5c0.8,0.1,1.6,0.4,2.3,0.8
				c0.7,0.4-1,2.7-0.5,3.4C267.6,62.1,270.2,61,270.4,61.6z"/>
			<path opacity="0.95" fill="#FFFFFF" d="M266.5,62.9c0.1,1-0.4,1.7-1.3,2c-1,0.3-1.6,0-2.2-1c-0.5-0.9-0.2-1.7,0.8-2
				C264.7,61.6,266.4,61.9,266.5,62.9z"/>
			<path id="color:3" fill="#FF8DAB" d="M309.3,144.3c0.8,0.3,1.6,0.7,2.2,1.3c0.6,0.6-1.3,2.8-1,3.5c0.3,0.7,2.9,0.4,2.9,1.1
				c0.1,0.8-0.3,2-0.6,2.7c-0.3,0.9-3-0.4-3.6,0.2c-0.5,0.5,0,2.8-0.6,3.1c-0.7,0.3-2.4-0.4-3.1-0.6c-0.8-0.2,0.3-2-0.3-2.4
				c-0.6-0.5-2.9,0.5-3.2-0.3c-0.4-0.8-0.7-1.7-0.7-2.6c0-0.7,2.3-0.7,2.6-1.4c0.3-0.8-1.5-2.3-1-2.9s1.2-1.1,2-1.4
				c0.8-0.4,1.7,2.3,2.6,2.3C308.1,146.9,308.6,144.1,309.3,144.3z"/>
			<path opacity="0.95" fill="#FFFFFF" d="M308.1,148.3c0.9,0.5,1.2,1.3,0.9,2.2c-0.3,0.9-0.9,1.3-2,1.2c-1-0.1-1.5-0.8-1.2-1.8
				C306.1,149,307.3,147.9,308.1,148.3z"/>
			<path id="color:2" fill="#BA47FC" d="M272,156.6c0,1.3-0.3,2.5-0.8,3.6s-4.4-0.5-5.2,0.3c-0.8,0.7,0.8,4.1-0.2,4.5c-1,0.4-2.8,0.4-4,0.4
				c-1.4,0-0.8-4.2-2-4.8c-1-0.5-3.7,1.3-4.4,0.5c-0.7-0.8-0.5-3.4-0.5-4.5c0-1.1,2.8-0.5,3.2-1.5c0.4-1.1-1.9-3.7-1.1-4.5
				c0.9-0.9,2-1.7,3.2-2.1c0.9-0.3,2,2.9,3,2.9c1.3,0,2.5-3.1,3.5-2.7s2.1,1.2,2.9,2c0.8,0.9-2.4,3.4-2,4.6
				C268,156.1,272,155.6,272,156.6z"/>
			<path opacity="0.95" fill="#FFFFFF" d="M266,156.8c-0.2,1.4-1.2,2.2-2.6,2.2s-2.2-0.6-2.6-2.2c-0.3-1.4,0.4-2.5,1.8-2.5
				S266.3,155.4,266,156.8z"/>
			<path id="color:2" fill="#BA47FC" d="M241.8,174.9c0,1.3-0.3,2.5-0.8,3.6s-4.4-0.5-5.2,0.3c-0.8,0.7,0.8,4.1-0.2,4.5c-1,0.4-2.8,0.4-4,0.4
				c-1.4,0-0.8-4.2-2-4.8c-1-0.5-3.7,1.3-4.4,0.5c-0.7-0.8-0.5-3.4-0.5-4.5c0-1.1,2.8-0.5,3.2-1.5c0.4-1.1-1.9-3.7-1.1-4.5
				c0.9-0.9,2-1.7,3.2-2.1c0.9-0.3,2,2.9,3,2.9c1.3,0,2.5-3.1,3.5-2.7s2.1,1.2,2.9,2c0.8,0.9-2.4,3.4-2,4.6
				C237.8,174.4,241.8,173.9,241.8,174.9z"/>
			<path opacity="0.95" fill="#FFFFFF" d="M235.9,175.1c-0.2,1.4-1.2,2.2-2.6,2.2s-2.2-0.6-2.6-2.2c-0.3-1.4,0.4-2.5,1.8-2.5
				S236.1,173.7,235.9,175.1z"/>
			<path id="color:3" fill="#FF8DAB" d="M256.3,181.7c0.6,0.6,1.1,1.4,1.4,2.1s-2.4,1.9-2.5,2.7c0,0.7,2.4,1.6,2.1,2.3c-0.3,0.7-1.2,1.6-1.8,2.2
				c-0.7,0.7-2.5-1.7-3.4-1.4c-0.7,0.2-1.2,2.5-2,2.4c-0.7,0-1.9-1.4-2.5-2c-0.6-0.6,1.1-1.6,0.8-2.3c-0.3-0.7-2.8-0.9-2.8-1.7
				c0-0.9,0.2-1.8,0.6-2.6c0.3-0.6,2.4,0.5,2.9-0.1c0.6-0.6-0.3-2.8,0.4-3.1c0.8-0.3,1.6-0.4,2.4-0.4c0.8,0,0.5,2.9,1.3,3.2
				C254.1,183.4,255.8,181.2,256.3,181.7z"/>
			<path opacity="0.95" fill="#FFFFFF" d="M253.5,184.7c0.6,0.8,0.5,1.7-0.2,2.4c-0.7,0.7-1.4,0.8-2.4,0.2c-0.9-0.5-1-1.4-0.3-2.1
				C251.3,184.4,252.9,183.9,253.5,184.7z"/>
			<path id="color:2" fill="#BA47FC" d="M185.4,220c-0.9,0.9-2,1.5-3.1,2c-1.1,0.4-2.7-3.5-3.9-3.5c-1,0-2.3,3.4-3.3,3c-1-0.4-2.3-1.7-3.1-2.5
				c-1-1,2.5-3.5,2.1-4.8c-0.3-1-3.5-1.7-3.5-2.8c0.1-1,2-2.7,2.8-3.5c0.8-0.8,2.3,1.6,3.3,1.2c1.1-0.5,1.3-4,2.4-4
				c1.3,0,2.6,0.3,3.8,0.8c0.9,0.4-0.7,3.4,0.1,4.2c0.9,0.9,4-0.5,4.4,0.6c0.4,1.1,0.6,2.3,0.6,3.5c0,1.2-4.1,0.7-4.6,1.8
				C182.9,216.8,186.1,219.3,185.4,220z"/>
			<path opacity="0.95" fill="#FFFFFF" d="M181,215.9c-1.2,0.8-2.4,0.7-3.4-0.3c-1-1-1.1-2-0.2-3.4c0.7-1.2,2-1.4,3-0.4
				C181.5,212.9,182.2,215.1,181,215.9z"/>
			<path id="color:3" fill="#FF8DAB" d="M204.4,218.5c0.7-0.5,1.5-0.8,2.3-1c0.8-0.2,1.5,2.7,2.3,2.9c0.7,0.2,2-2.1,2.6-1.7
				c0.7,0.4,1.4,1.4,1.9,2.1c0.6,0.8-2.1,2.1-2,3.1c0.1,0.8,2.2,1.6,2.1,2.3c-0.2,0.7-1.7,1.7-2.4,2.1c-0.7,0.5-1.4-1.4-2.1-1.2
				c-0.8,0.2-1.4,2.6-2.1,2.4c-0.9-0.1-1.8-0.5-2.5-1c-0.6-0.4,0.9-2.3,0.4-2.9c-0.5-0.7-2.8-0.1-3-1c-0.2-0.8-0.2-1.6,0-2.4
				c0.2-0.8,2.9,0,3.4-0.7C205.7,221,203.8,218.9,204.4,218.5z"/>
			<path opacity="0.95" fill="#FFFFFF" d="M206.9,221.8c0.9-0.4,1.7-0.2,2.3,0.6c0.6,0.8,0.5,1.5-0.2,2.4c-0.7,0.8-1.6,0.8-2.2-0.1
				C206.3,223.9,206,222.3,206.9,221.8z"/>
			<path id="color:2" fill="#BA47FC" d="M192.3,179.6c-0.9-0.9-1.6-1.9-2-3.1s3.5-2.7,3.5-3.9c0-1-3.5-2.3-3-3.3c0.4-1,1.7-2.3,2.5-3.1
				c1-1,3.5,2.4,4.8,2c1-0.3,1.7-3.5,2.8-3.5c1,0.1,2.8,2,3.6,2.8c0.8,0.8-1.6,2.3-1.2,3.3c0.5,1.1,4,1.3,4,2.4
				c0,1.3-0.2,2.6-0.8,3.8c-0.4,0.9-3.4-0.6-4.2,0.1c-0.9,0.9,0.5,4-0.6,4.4c-1.1,0.4-2.3,0.6-3.5,0.6c-1.2,0-0.7-4.1-1.8-4.6
				C195.5,177.1,193,180.3,192.3,179.6z"/>
			<path opacity="0.95" fill="#FFFFFF" d="M196.4,175.2c-0.8-1.2-0.7-2.4,0.3-3.4c1-1,2-1.1,3.4-0.3c1.2,0.7,1.5,2,0.4,3
				C199.5,175.6,197.2,176.4,196.4,175.2z"/>
			<path id="color:3" fill="#FF8DAB" d="M177.3,185c-0.9,0-1.7-0.2-2.5-0.5c-0.8-0.3,0.4-3.1-0.2-3.7c-0.5-0.5-2.9,0.6-3.1-0.1
				c-0.3-0.7-0.3-2-0.3-2.8c0-1,3-0.5,3.4-1.4c0.3-0.7-0.9-2.6-0.3-3.1c0.5-0.5,2.4-0.4,3.1-0.4c0.8,0,0.4,2,1,2.2
				c0.8,0.3,2.6-1.3,3.2-0.8c0.6,0.6,1.2,1.4,1.5,2.3c0.2,0.7-2,1.4-2,2.1c0,0.9,2.2,1.7,1.9,2.5c-0.3,0.8-0.8,1.4-1.4,2
				c-0.6,0.6-2.4-1.7-3.2-1.4C177.6,182.2,178,185,177.3,185z"/>
			<path opacity="0.95" fill="#FFFFFF" d="M177.1,180.9c-1-0.2-1.5-0.8-1.5-1.8c0-1,0.4-1.5,1.5-1.8c1-0.2,1.7,0.3,1.7,1.3
				C178.8,179.6,178.1,181,177.1,180.9z"/>
			<path id="color:3" fill="#FF8DAB" d="M220.7,186.1c0,0.9-0.3,1.7-0.6,2.5c-0.4,0.7-3-0.5-3.7,0c-0.6,0.5,0.4,2.9-0.3,3.1
				c-0.7,0.3-2,0.2-2.8,0.2c-1,0-0.4-3-1.2-3.4c-0.7-0.4-2.6,0.8-3.1,0.2c-0.5-0.6-0.3-2.4-0.2-3.2c0-0.8,2-0.3,2.3-0.9
				c0.3-0.7-1.2-2.6-0.6-3.2c0.7-0.6,1.5-1.1,2.3-1.4c0.7-0.2,1.3,2.1,2,2.1c0.9,0,1.8-2.1,2.6-1.8c0.7,0.4,1.4,0.9,1.9,1.5
				c0.5,0.6-1.8,2.3-1.5,3.1C217.9,185.6,220.7,185.4,220.7,186.1z"/>
			<path opacity="0.95" fill="#FFFFFF" d="M216.6,186c-0.2,1-0.9,1.5-1.9,1.5c-1,0-1.5-0.5-1.7-1.6c-0.2-1,0.4-1.7,1.4-1.7
				C215.3,184.3,216.8,185.1,216.6,186z"/>
			<path id="color:3" fill="#FF8DAB" d="M373.3,174.6c0.6,0.6,1.1,1.4,1.4,2.1c0.3,0.8-2.4,1.9-2.5,2.7c0,0.7,2.4,1.6,2.1,2.3
				c-0.3,0.7-1.2,1.6-1.8,2.2c-0.7,0.7-2.5-1.7-3.4-1.4c-0.7,0.2-1.2,2.5-2,2.4c-0.7,0-1.9-1.4-2.5-2c-0.6-0.6,1.1-1.6,0.8-2.3
				c-0.3-0.7-2.8-0.9-2.8-1.7c0-0.9,0.2-1.8,0.6-2.6c0.3-0.6,2.4,0.5,2.9-0.1c0.6-0.6-0.3-2.8,0.4-3.1c0.8-0.3,1.6-0.4,2.4-0.4
				c0.8,0,0.5,2.9,1.3,3.2C371.1,176.3,372.8,174.1,373.3,174.6z"/>
			<path opacity="0.95" fill="#FFFFFF" d="M370.5,177.6c0.6,0.8,0.5,1.7-0.2,2.4c-0.7,0.7-1.4,0.8-2.4,0.2c-0.9-0.5-1-1.4-0.3-2.1
				C368.3,177.4,369.9,176.8,370.5,177.6z"/>
			<path id="color:2" fill="#BA47FC" d="M221.4,224.8c-0.5-1.1-0.8-2.4-0.9-3.5c0-1.2,4.2-1.4,4.6-2.5c0.4-1-2.5-3.3-1.8-4.1
				c0.7-0.8,2.4-1.6,3.4-2.1c1.3-0.6,2.5,3.5,3.9,3.5c1.1,0,2.8-2.8,3.8-2.4c1,0.4,1.9,2.8,2.4,3.8c0.5,1-2.3,1.7-2.2,2.7
				c0.1,1.2,3.3,2.5,2.9,3.6c-0.4,1.2-1.1,2.4-2,3.3c-0.7,0.7-3-1.8-4-1.3c-1.1,0.5-0.9,3.9-2.1,3.9c-1.2,0-2.4-0.2-3.4-0.6
				c-1.1-0.4,0.7-4.1-0.2-5C225.3,223.5,221.8,225.7,221.4,224.8z"/>
			<path opacity="0.95" fill="#FFFFFF" d="M226.7,222c-0.4-1.4,0.1-2.5,1.4-3.1c1.3-0.6,2.2-0.4,3.3,0.9c0.9,1.1,0.7,2.4-0.6,3
				C229.5,223.4,227.1,223.4,226.7,222z"/>
			<path id="color:2" fill="#BA47FC" d="M191.3,199.5c0-1.3,0.2-2.5,0.7-3.6c0.5-1.1,4.4,0.4,5.2-0.4c0.7-0.7-0.9-4.1,0.1-4.5
				c1-0.4,2.8-0.5,4-0.5c1.4,0,0.9,4.2,2.1,4.8c1,0.5,3.7-1.4,4.4-0.6c0.7,0.8,0.6,3.4,0.6,4.5c0,1.1-2.8,0.6-3.2,1.6
				c-0.4,1.1,2,3.6,1.2,4.5c-0.9,0.9-2,1.7-3.2,2.2c-0.9,0.4-2-2.8-3.1-2.8c-1.3,0-2.4,3.2-3.5,2.8s-2.1-1.1-2.9-2
				c-0.8-0.9,2.3-3.4,1.9-4.6C195.4,200,191.4,200.5,191.3,199.5z"/>
			<path opacity="0.95" fill="#FFFFFF" d="M197.3,199.2c0.2-1.4,1.1-2.2,2.5-2.3c1.4,0,2.2,0.6,2.6,2.1c0.4,1.4-0.4,2.5-1.8,2.5
				C199.2,201.6,197.1,200.6,197.3,199.2z"/>
			<path id="color:2" fill="#BA47FC" d="M416.5,181.6c-0.9,0.9-1.9,1.6-3.1,2c-1.1,0.4-2.7-3.5-3.9-3.5c-1,0-2.3,3.5-3.3,3
				c-1-0.4-2.3-1.7-3.1-2.5c-1-1,2.4-3.5,2-4.8c-0.3-1-3.5-1.7-3.5-2.8c0.1-1,2-2.8,2.8-3.6c0.8-0.8,2.3,1.6,3.3,1.2
				c1.1-0.5,1.3-4,2.4-4c1.3,0,2.6,0.2,3.8,0.8c0.9,0.4-0.6,3.4,0.1,4.2c0.9,0.9,4-0.5,4.4,0.6c0.4,1.1,0.6,2.3,0.6,3.5
				c0,1.2-4.1,0.7-4.6,1.8C414,178.4,417.2,180.9,416.5,181.6z"/>
			<path opacity="0.95" fill="#FFFFFF" d="M412.2,177.5c-1.2,0.8-2.4,0.7-3.4-0.3c-1-1-1.1-2-0.3-3.4c0.7-1.2,2-1.5,3-0.4
				C412.6,174.5,413.3,176.7,412.2,177.5z"/>
			<path id="color:2" fill="#BA47FC" d="M382.8,215c-0.1,1.3-0.5,2.5-1,3.5c-0.6,1.1-4.3-0.9-5.2-0.1c-0.8,0.6,0.5,4.1-0.5,4.5
				c-1.1,0.3-2.8,0.2-4,0.1c-1.4-0.1-0.5-4.3-1.6-5c-0.9-0.6-3.8,1-4.5,0.2c-0.6-0.8-0.3-3.4-0.2-4.5c0.1-1.1,2.8-0.3,3.3-1.3
				c0.5-1-1.6-3.8-0.8-4.6c1-0.9,2.1-1.5,3.4-1.9c1-0.3,1.7,3,2.8,3.1c1.3,0.1,2.7-3,3.7-2.4c1,0.6,2,1.3,2.7,2.2
				c0.8,0.9-2.6,3.2-2.3,4.4C378.9,214.2,382.9,214,382.8,215z"/>
			<path opacity="0.95" fill="#FFFFFF" d="M376.9,214.8c-0.3,1.4-1.3,2.1-2.7,2c-1.4-0.1-2.1-0.8-2.4-2.4c-0.2-1.4,0.6-2.4,2-2.3
				C375.2,212.2,377.2,213.4,376.9,214.8z"/>
			<path id="color:2" fill="#BA47FC" d="M415.7,201.4c0.8,1,1.4,2,1.8,3.2c0.4,1.1-3.6,2.5-3.8,3.7c-0.1,1,3.3,2.5,2.8,3.5c-0.5,1-1.8,2.2-2.7,3
				c-1.1,0.9-3.4-2.7-4.7-2.3c-1.1,0.3-1.9,3.4-3,3.3c-1-0.1-2.6-2.2-3.4-3c-0.8-0.9,1.8-2.2,1.4-3.2c-0.4-1.1-3.9-1.5-3.8-2.7
				c0.1-1.3,0.4-2.6,1-3.7c0.5-0.9,3.4,0.9,4.2,0.2c0.9-0.8-0.2-4,0.9-4.3c1.1-0.4,2.3-0.5,3.5-0.4c1.2,0.1,0.4,4.1,1.5,4.7
				C412.3,203.7,415,200.7,415.7,201.4z"/>
			<path opacity="0.95" fill="#FFFFFF" d="M411.4,205.5c0.8,1.2,0.6,2.4-0.5,3.4c-1.1,0.9-2,1-3.4,0.1c-1.2-0.8-1.3-2.1-0.2-3.1
				C408.3,204.9,410.6,204.3,411.4,205.5z"/>
			<path id="color:2" fill="#BA47FC" d="M374.3,161.2c0.3,1.2,0.4,2.5,0.2,3.6c-0.2,1.2-4.4,0.6-5,1.6c-0.6,0.9,1.8,3.7,1,4.4
				c-0.9,0.7-2.6,1.1-3.8,1.4c-1.4,0.4-1.8-3.9-3.1-4.2c-1.1-0.2-3.3,2.2-4.2,1.6c-0.9-0.6-1.4-3.1-1.7-4.2
				c-0.3-1.1,2.6-1.2,2.7-2.3c0.1-1.2-2.8-3.1-2.2-4.1c0.6-1.1,1.5-2.1,2.6-2.9c0.8-0.6,2.6,2.3,3.7,2c1.2-0.3,1.6-3.7,2.7-3.5
				c1.2,0.2,2.3,0.6,3.3,1.2c1,0.6-1.4,3.9-0.7,4.9C370.3,161.7,374,160.2,374.3,161.2z"/>
			<path opacity="0.95" fill="#FFFFFF" d="M368.6,162.9c0.1,1.4-0.5,2.4-1.9,2.8c-1.4,0.4-2.3,0-3.1-1.5c-0.7-1.2-0.2-2.5,1.1-2.9
				C366.1,161,368.5,161.5,368.6,162.9z"/>
			<path id="color:3" fill="#FF8DAB" d="M396.4,174c0,0.9-0.3,1.7-0.7,2.5c-0.4,0.7-3-0.5-3.7,0c-0.6,0.5,0.4,2.9-0.3,3.1c-0.7,0.3-2,0.2-2.8,0.1
				c-1-0.1-0.4-3-1.2-3.4c-0.7-0.4-2.6,0.8-3.1,0.2c-0.5-0.6-0.2-2.4-0.2-3.2c0-0.8,2-0.2,2.3-0.9c0.3-0.7-1.2-2.7-0.6-3.2
				c0.7-0.6,1.5-1.1,2.3-1.3c0.7-0.2,1.3,2.1,2,2.1c0.9,0,1.8-2.1,2.6-1.7c0.7,0.4,1.4,0.9,1.9,1.5c0.5,0.6-1.8,2.3-1.6,3.1
				C393.6,173.5,396.5,173.3,396.4,174z"/>
			<path opacity="0.95" fill="#FFFFFF" d="M392.3,173.9c-0.2,1-0.9,1.5-1.9,1.4c-1-0.1-1.5-0.5-1.7-1.6c-0.2-1,0.4-1.7,1.4-1.7
				C391,172.1,392.5,172.9,392.3,173.9z"/>
			<path id="color:3" fill="#FF8DAB" d="M394.3,216.4c0.8,0.4,1.4,1,1.9,1.7c0.5,0.7-1.8,2.5-1.6,3.3c0.2,0.7,2.8,0.9,2.7,1.6
				c-0.1,0.8-0.7,1.9-1.1,2.6c-0.5,0.9-2.8-1-3.6-0.5c-0.6,0.4-0.5,2.7-1.2,2.9c-0.7,0.2-2.2-0.8-2.9-1.2c-0.7-0.4,0.7-1.9,0.2-2.5
				c-0.5-0.6-2.9-0.1-3.1-0.9c-0.3-0.9-0.3-1.8-0.2-2.7c0.1-0.7,2.4-0.2,2.8-0.9c0.4-0.8-1.1-2.6-0.4-3.1c0.7-0.5,1.4-0.8,2.2-1
				c0.8-0.2,1.2,2.6,2.1,2.8C392.6,218.7,393.7,216.1,394.3,216.4z"/>
			<path opacity="0.95" fill="#FFFFFF" d="M392.4,220.1c0.8,0.6,0.9,1.5,0.5,2.3c-0.5,0.9-1.1,1.1-2.2,0.8c-1-0.3-1.4-1.1-0.9-2
				C390.2,220.4,391.6,219.5,392.4,220.1z"/>
			<path id="color:3" fill="#FF8DAB" d="M364.8,224.2c0.3,0.8,0.5,1.7,0.4,2.5c0,0.8-3,0.8-3.3,1.5c-0.3,0.7,1.6,2.4,1.1,3
				c-0.6,0.5-1.7,1-2.5,1.3c-0.9,0.4-1.6-2.5-2.5-2.6c-0.8-0.1-2.1,1.8-2.8,1.5c-0.7-0.3-1.2-2.1-1.5-2.8c-0.3-0.7,1.7-1.1,1.7-1.8
				c0-0.8-2.2-1.9-1.9-2.6c0.3-0.8,0.9-1.6,1.6-2.2c0.5-0.5,2,1.4,2.7,1.1c0.8-0.3,0.8-2.7,1.6-2.7s1.6,0.2,2.4,0.6
				c0.8,0.4-0.7,2.8-0.1,3.5C362,224.9,364.5,223.6,364.8,224.2z"/>
			<path opacity="0.95" fill="#FFFFFF" d="M361,225.9c0.2,1-0.2,1.7-1.1,2.1c-0.9,0.4-1.6,0.2-2.2-0.8c-0.6-0.8-0.4-1.7,0.6-2.1
				C359.1,224.8,360.7,224.9,361,225.9z"/>
			<path id="color:2" fill="#BA47FC" d="M396.9,191.9c0.2,1.2,0.2,2.5-0.1,3.6c-0.3,1.2-4.4,0.3-5.1,1.2c-0.6,0.8,1.5,3.9,0.7,4.4
				c-0.9,0.6-2.7,0.9-3.9,1.2c-1.4,0.3-1.5-4-2.8-4.4c-1-0.3-3.4,2-4.3,1.3c-0.8-0.6-1.1-3.2-1.3-4.3c-0.2-1.1,2.7-1,2.9-2.1
				c0.2-1.1-2.6-3.3-1.9-4.2c0.7-1.1,1.7-2,2.8-2.7c0.9-0.5,2.5,2.5,3.5,2.3c1.2-0.2,1.8-3.5,3-3.3c1.2,0.3,2.2,0.8,3.2,1.5
				c1,0.7-1.7,3.8-1.1,4.8C392.9,192.1,396.7,190.9,396.9,191.9z"/>
			<path opacity="0.95" fill="#FFFFFF" d="M391.1,193.2c0,1.4-0.7,2.4-2.1,2.6c-1.4,0.3-2.3-0.2-2.9-1.7c-0.6-1.3,0-2.5,1.4-2.8
				C388.8,191.1,391.1,191.8,391.1,193.2z"/>
			<path id="color:2" fill="#BA47FC" d="M295.7,188.1c0.8,1,1.4,2,1.8,3.2c0.4,1.1-3.6,2.5-3.8,3.7c-0.1,1,3.3,2.5,2.8,3.5c-0.5,1-1.8,2.2-2.7,3
				c-1.1,0.9-3.4-2.7-4.7-2.3c-1.1,0.3-1.9,3.4-3,3.3c-1-0.1-2.6-2.2-3.4-3c-0.8-0.9,1.8-2.2,1.4-3.2c-0.4-1.1-3.9-1.5-3.8-2.7
				c0.1-1.3,0.4-2.6,1-3.7c0.5-0.9,3.4,0.9,4.2,0.2c0.9-0.8-0.2-4,0.9-4.3c1.1-0.4,2.3-0.5,3.5-0.4c1.2,0.1,0.4,4.1,1.5,4.7
				C292.3,190.4,295,187.4,295.7,188.1z"/>
			<path opacity="0.95" fill="#FFFFFF" d="M291.4,192.2c0.8,1.2,0.6,2.4-0.5,3.4c-1.1,0.9-2,1-3.4,0.1c-1.2-0.8-1.3-2.1-0.2-3.1
				C288.3,191.6,290.6,191,291.4,192.2z"/>
			<path id="color:2" fill="#BA47FC" d="M329.4,212.5c1.3,0,2.5,0.3,3.6,0.7c1.1,0.5-0.5,4.4,0.3,5.2c0.7,0.8,4.1-0.8,4.5,0.2
				c0.4,1,0.4,2.8,0.4,4c0,1.4-4.2,0.8-4.8,2c-0.5,1,1.3,3.7,0.5,4.4c-0.8,0.7-3.4,0.5-4.5,0.5c-1.1,0-0.5-2.8-1.5-3.2
				c-1.1-0.4-3.7,1.9-4.5,1.1c-0.9-0.9-1.7-2-2.1-3.2c-0.4-0.9,2.9-2,2.9-3c0-1.3-3.2-2.5-2.7-3.5c0.5-1.1,1.2-2.1,2-2.9
				c0.9-0.8,3.4,2.4,4.6,2C328.9,216.5,328.3,212.5,329.4,212.5z"/>
			<path opacity="0.95" fill="#FFFFFF" d="M329.6,218.5c1.4,0.2,2.2,1.1,2.2,2.6c0,1.4-0.6,2.2-2.2,2.6c-1.4,0.4-2.5-0.4-2.5-1.8
				C327.1,220.4,328.2,218.2,329.6,218.5z"/>
			<path id="color:2" fill="#BA47FC" d="M331.8,176.4c0.7,1.1,1.1,2.3,1.2,3.4c0.1,1.2-4,1.8-4.3,2.9c-0.3,1,2.8,3.1,2.2,3.9
				c-0.7,0.9-2.2,1.8-3.2,2.4c-1.2,0.7-2.9-3.2-4.2-3.1c-1.1,0.1-2.5,3-3.5,2.7c-1-0.3-2.2-2.6-2.8-3.6c-0.6-1,2.1-1.9,2-2.9
				c-0.2-1.1-3.5-2.2-3.3-3.3c0.3-1.3,0.9-2.5,1.7-3.5c0.6-0.8,3.2,1.4,4.1,0.9c1.1-0.7,0.5-4,1.6-4.1c1.2-0.2,2.4-0.1,3.5,0.3
				c1.2,0.3-0.3,4.1,0.7,4.9C328.1,178.1,331.3,175.6,331.8,176.4z"/>
			<path opacity="0.95" fill="#FFFFFF" d="M326.8,179.7c0.5,1.3,0.2,2.5-1.1,3.2c-1.2,0.7-2.2,0.6-3.3-0.5c-1-1-0.9-2.3,0.3-3.1
				C323.9,178.6,326.3,178.3,326.8,179.7z"/>
			<path id="color:2" fill="#BA47FC" d="M278.7,223.6c-0.2,1.3-0.7,2.4-1.4,3.4c-0.7,1-4.2-1.3-5.2-0.7c-0.9,0.6,0.1,4.2-1,4.4
				c-1.1,0.2-2.9-0.1-4-0.3c-1.4-0.3,0-4.3-1.1-5.1c-0.9-0.7-3.9,0.6-4.5-0.3c-0.5-0.9,0.1-3.4,0.3-4.5c0.2-1.1,2.8,0,3.4-0.9
				c0.6-1-1.2-4-0.3-4.6c1.1-0.8,2.3-1.3,3.6-1.5c1-0.2,1.4,3.2,2.5,3.4c1.2,0.2,3-2.7,4-2c1,0.7,1.8,1.5,2.4,2.5
				c0.7,1-3,2.9-2.8,4.1C274.9,222.3,278.9,222.6,278.7,223.6z"/>
			<path opacity="0.95" fill="#FFFFFF" d="M272.8,222.7c-0.5,1.3-1.5,2-2.9,1.7c-1.4-0.3-2-1-2.1-2.6c-0.1-1.4,0.8-2.4,2.3-2.1
				C271.4,219.9,273.3,221.4,272.8,222.7z"/>
			<path id="color:3" fill="#FF8DAB" d="M346.9,158.5c0.9,0.1,1.7,0.3,2.4,0.7c0.7,0.4-0.6,3-0.1,3.7c0.4,0.6,2.9-0.3,3.1,0.4
				c0.2,0.7,0.1,2,0.1,2.8c-0.1,1-3,0.3-3.5,1.1c-0.4,0.7,0.7,2.7,0.1,3.1c-0.6,0.4-2.4,0.2-3.2,0.1c-0.8-0.1-0.2-2-0.9-2.3
				c-0.7-0.4-2.7,1.1-3.2,0.5c-0.6-0.7-1-1.5-1.3-2.4c-0.2-0.7,2.1-1.2,2.2-2c0.1-0.9-2.1-1.9-1.7-2.6c0.4-0.7,0.9-1.4,1.6-1.9
				c0.7-0.5,2.2,1.8,3.1,1.6C346.3,161.2,346.2,158.4,346.9,158.5z"/>
			<path opacity="0.95" fill="#FFFFFF" d="M346.7,162.6c1,0.2,1.5,0.9,1.4,1.9c-0.1,1-0.6,1.5-1.7,1.7c-1,0.2-1.7-0.4-1.6-1.4
				C344.9,163.8,345.7,162.4,346.7,162.6z"/>
			<path id="color:3" fill="#FF8DAB" d="M309.4,234.2c0.7-0.6,1.4-1,2.2-1.3c0.8-0.3,1.8,2.5,2.6,2.6c0.7,0.1,1.8-2.3,2.4-2
				c0.7,0.3,1.5,1.3,2.1,1.9c0.7,0.7-1.8,2.4-1.6,3.3c0.2,0.7,2.4,1.3,2.3,2.1c-0.1,0.7-1.5,1.9-2.1,2.4c-0.6,0.5-1.6-1.2-2.3-1
				c-0.8,0.3-1,2.7-1.8,2.7c-0.9,0-1.8-0.3-2.6-0.7c-0.6-0.3,0.6-2.4,0.1-2.9c-0.6-0.7-2.8,0.2-3-0.6c-0.3-0.8-0.4-1.6-0.3-2.4
				c0.1-0.8,2.9-0.3,3.3-1.1C311,236.6,308.9,234.7,309.4,234.2z"/>
			<path opacity="0.95" fill="#FFFFFF" d="M312.3,237.2c0.8-0.5,1.7-0.4,2.4,0.3c0.7,0.7,0.7,1.4,0.1,2.4c-0.6,0.8-1.5,0.9-2.1,0.2
				C311.9,239.4,311.5,237.8,312.3,237.2z"/>
			<path id="color:3" fill="#FF8DAB" d="M323.4,201.4c0.2-0.9,0.6-1.6,1.1-2.3c0.5-0.7,2.9,1,3.6,0.6c0.6-0.4,0.1-2.9,0.8-3
				c0.8-0.1,2,0.1,2.8,0.3c1,0.2-0.1,3,0.6,3.6c0.6,0.5,2.7-0.3,3.1,0.4c0.4,0.6-0.2,2.4-0.3,3.1c-0.2,0.8-2-0.1-2.4,0.5
				c-0.5,0.7,0.7,2.8,0,3.3c-0.8,0.5-1.6,0.8-2.5,0.9c-0.7,0.1-0.9-2.3-1.6-2.4c-0.9-0.2-2.2,1.8-2.8,1.3c-0.7-0.5-1.2-1.1-1.6-1.8
				c-0.4-0.7,2.2-1.9,2.1-2.8C326.1,202.4,323.2,202.1,323.4,201.4z"/>
			<path opacity="0.95" fill="#FFFFFF" d="M327.5,202.2c0.4-0.9,1.1-1.3,2.1-1.1c1,0.2,1.4,0.8,1.4,1.9c0,1-0.7,1.6-1.6,1.4
				C328.4,204.1,327.1,203.1,327.5,202.2z"/>
			<path id="color:3" fill="#FF8DAB" d="M295,212.9c0.8-0.4,1.6-0.6,2.5-0.6c0.8,0,1,2.9,1.8,3.2c0.7,0.3,2.3-1.7,2.9-1.3
				c0.6,0.5,1.1,1.6,1.5,2.4c0.4,0.9-2.4,1.8-2.4,2.7c0,0.8,1.9,2,1.7,2.7c-0.3,0.7-2,1.4-2.7,1.7c-0.7,0.3-1.2-1.6-1.9-1.6
				c-0.8,0.1-1.8,2.3-2.5,2.1c-0.9-0.3-1.7-0.8-2.3-1.4c-0.5-0.5,1.2-2.1,0.9-2.8c-0.4-0.8-2.7-0.6-2.8-1.4c0-0.8,0.1-1.6,0.4-2.4
				c0.3-0.8,2.9,0.5,3.5-0.1C295.9,215.6,294.3,213.2,295,212.9z"/>
			<path opacity="0.95" fill="#FFFFFF" d="M296.9,216.6c1-0.3,1.7,0.1,2.2,1c0.4,0.9,0.3,1.6-0.6,2.3c-0.8,0.6-1.7,0.5-2.1-0.4
				C295.9,218.6,295.9,216.9,296.9,216.6z"/>
			<path id="color:3" fill="#FF8DAB" d="M281.8,169.5c0.2-0.9,0.5-1.7,1-2.3c0.5-0.7,2.9,1,3.6,0.5c0.6-0.4,0-2.9,0.7-3.1c0.8-0.1,2,0.1,2.8,0.3
				c1,0.2,0,3,0.7,3.6c0.6,0.5,2.7-0.4,3.1,0.3c0.4,0.6-0.1,2.4-0.3,3.2c-0.2,0.8-2,0-2.4,0.6c-0.4,0.7,0.8,2.8,0.1,3.2
				c-0.7,0.5-1.6,0.9-2.5,1c-0.7,0.1-0.9-2.2-1.7-2.4c-0.9-0.2-2.1,1.8-2.8,1.3c-0.7-0.5-1.2-1.1-1.7-1.8c-0.4-0.7,2.1-2,2-2.8
				C284.4,170.4,281.6,170.1,281.8,169.5z"/>
			<path opacity="0.95" fill="#FFFFFF" d="M285.9,170.1c0.4-0.9,1.1-1.3,2.1-1.2c1,0.2,1.4,0.7,1.5,1.9c0,1-0.6,1.6-1.6,1.4
				C286.8,172.1,285.5,171.1,285.9,170.1z"/>
			<path id="color:3" fill="#FF8DAB" d="M322.9,260.8c-0.5-0.8-0.8-1.6-0.9-2.4c-0.1-0.8,2.8-1.3,3-2.1c0.2-0.7-2-2.1-1.6-2.7
				c0.4-0.6,1.5-1.3,2.2-1.8c0.8-0.5,2.1,2.2,3,2.1c0.8-0.1,1.7-2.2,2.4-2c0.7,0.2,1.6,1.8,2,2.5c0.4,0.7-1.5,1.3-1.3,2.1
				c0.2,0.8,2.5,1.5,2.4,2.2c-0.2,0.9-0.6,1.7-1.1,2.5c-0.4,0.6-2.2-1-2.9-0.6c-0.7,0.5-0.3,2.8-1.1,2.9c-0.8,0.1-1.7,0.1-2.4-0.1
				c-0.8-0.2,0.1-2.9-0.5-3.4C325.5,259.6,323.3,261.4,322.9,260.8z"/>
			<path opacity="0.95" fill="#FFFFFF" d="M326.3,258.5c-0.4-0.9-0.1-1.7,0.7-2.3c0.8-0.5,1.5-0.5,2.3,0.3c0.7,0.7,0.7,1.6-0.2,2.1
				C328.4,259.2,326.7,259.4,326.3,258.5z"/>
			<path id="color:3" fill="#FF8DAB" d="M296.8,320.5c0.2-0.9,0.5-1.7,1-2.3c0.5-0.7,2.9,1,3.6,0.5c0.6-0.4,0-2.9,0.7-3.1c0.8-0.1,2,0.1,2.8,0.3
				c1,0.2,0,3,0.7,3.6c0.6,0.5,2.7-0.4,3.1,0.3c0.4,0.6-0.1,2.4-0.3,3.2c-0.2,0.8-2,0-2.4,0.6c-0.4,0.7,0.8,2.8,0.1,3.2
				c-0.7,0.5-1.6,0.9-2.5,1c-0.7,0.1-0.9-2.2-1.7-2.4c-0.9-0.2-2.1,1.8-2.8,1.3c-0.7-0.5-1.2-1.1-1.7-1.8c-0.4-0.7,2.1-2,2-2.8
				C299.4,321.4,296.6,321.1,296.8,320.5z"/>
			<path opacity="0.95" fill="#FFFFFF" d="M300.9,321.1c0.4-0.9,1.1-1.3,2.1-1.2c1,0.2,1.4,0.7,1.5,1.9c0,1-0.6,1.6-1.6,1.4
				C301.8,323.1,300.5,322.1,300.9,321.1z"/>
			<path id="color:3" fill="#FF8DAB" d="M273.6,280.8c0.8,0.3,1.5,0.8,2.1,1.4c0.6,0.6-1.4,2.7-1.1,3.5c0.3,0.7,2.9,0.5,2.9,1.2
				c0,0.8-0.4,2-0.7,2.7c-0.4,0.9-3-0.5-3.6,0.1c-0.6,0.5-0.1,2.8-0.8,3c-0.7,0.3-2.3-0.5-3.1-0.8c-0.7-0.3,0.4-2-0.2-2.5
				c-0.6-0.6-2.9,0.3-3.2-0.4c-0.4-0.8-0.6-1.7-0.6-2.6c0-0.7,2.4-0.6,2.6-1.3c0.3-0.8-1.4-2.4-0.9-3c0.6-0.6,1.3-1,2-1.4
				c0.8-0.3,1.6,2.4,2.5,2.4C272.3,283.3,273,280.6,273.6,280.8z"/>
			<path opacity="0.95" fill="#FFFFFF" d="M272.3,284.7c0.9,0.5,1.2,1.3,0.8,2.2c-0.4,0.9-0.9,1.3-2.1,1.1c-1-0.1-1.5-0.9-1.2-1.8
				C270.2,285.4,271.4,284.2,272.3,284.7z"/>
			<path id="color:3" fill="#FF8DAB" d="M302.8,284.9c-0.5-0.7-0.8-1.5-0.9-2.4c-0.1-0.8,2.8-1.4,3-2.2c0.2-0.7-2-2.1-1.6-2.7
				c0.4-0.6,1.5-1.3,2.2-1.8c0.8-0.5,2.1,2.2,3,2c0.8-0.1,1.7-2.2,2.4-2c0.7,0.2,1.6,1.8,2,2.4c0.4,0.7-1.4,1.4-1.3,2.1
				c0.2,0.8,2.5,1.4,2.4,2.2c-0.2,0.9-0.5,1.7-1.1,2.5c-0.4,0.6-2.3-0.9-2.9-0.5c-0.7,0.5-0.2,2.8-1,2.9c-0.8,0.1-1.7,0.1-2.4-0.1
				c-0.8-0.2,0.1-2.9-0.6-3.4C305.3,283.7,303.2,285.5,302.8,284.9z"/>
			<path opacity="0.95" fill="#FFFFFF" d="M306.2,282.5c-0.4-0.9-0.2-1.7,0.6-2.3c0.8-0.6,1.5-0.5,2.4,0.3c0.7,0.7,0.7,1.6-0.1,2.1
				C308.2,283.2,306.6,283.4,306.2,282.5z"/>
			<path id="color:3" fill="#FF8DAB" d="M252.8,255.9c-0.6-0.6-1.1-1.4-1.3-2.2c-0.3-0.8,2.5-1.8,2.5-2.7c0-0.7-2.4-1.7-2.1-2.4
				c0.3-0.7,1.2-1.6,1.8-2.1c0.7-0.7,2.4,1.8,3.3,1.5c0.7-0.2,1.3-2.4,2-2.4c0.7,0.1,1.9,1.5,2.4,2c0.5,0.6-1.2,1.6-0.9,2.3
				c0.3,0.8,2.7,1,2.7,1.8c0,0.9-0.2,1.8-0.6,2.6c-0.3,0.6-2.4-0.5-2.9,0c-0.6,0.6,0.3,2.8-0.5,3.1c-0.8,0.3-1.6,0.4-2.4,0.3
				c-0.8,0-0.4-2.9-1.2-3.3C255.1,254.3,253.3,256.5,252.8,255.9z"/>
			<path opacity="0.95" fill="#FFFFFF" d="M255.7,253c-0.6-0.8-0.5-1.7,0.2-2.4c0.7-0.7,1.4-0.7,2.4-0.1c0.8,0.5,1,1.4,0.3,2.1
				C257.8,253.3,256.3,253.8,255.7,253z"/>
			<path id="color:3" fill="#FF8DAB" d="M327.4,296.5c0.8-0.3,1.7-0.4,2.5-0.4c0.8,0.1,0.7,3,1.4,3.4c0.6,0.3,2.5-1.5,3-1c0.5,0.6,1,1.8,1.2,2.5
				c0.3,0.9-2.6,1.5-2.7,2.5c-0.1,0.8,1.7,2.1,1.4,2.8c-0.3,0.6-2.1,1.2-2.8,1.4c-0.7,0.3-1-1.7-1.8-1.7c-0.8,0-2,2.1-2.7,1.8
				c-0.8-0.4-1.6-0.9-2.2-1.6c-0.5-0.5,1.4-2,1.2-2.7c-0.3-0.8-2.7-0.9-2.6-1.7c0.1-0.8,0.3-1.6,0.6-2.4c0.4-0.8,2.8,0.8,3.5,0.2
				C328.1,299.3,326.8,296.8,327.4,296.5z"/>
			<path opacity="0.95" fill="#FFFFFF" d="M329,300.4c1-0.2,1.7,0.2,2.1,1.2c0.3,0.9,0.1,1.6-0.8,2.2c-0.8,0.6-1.7,0.3-2.1-0.6
				C327.8,302.2,328,300.6,329,300.4z"/>
			<path id="color:2" fill="#BA47FC" d="M296.3,262.6c-0.5,1.2-1.2,2.2-2.1,3c-0.9,0.8-3.8-2.2-4.9-1.8c-1,0.3-0.9,4.1-1.9,4.1
				c-1.1,0-2.8-0.7-3.8-1.2c-1.3-0.6,0.9-4.2,0.1-5.2c-0.7-0.8-3.9-0.3-4.3-1.3c-0.3-1,0.8-3.3,1.3-4.3c0.4-1,2.8,0.6,3.5-0.1
				c0.8-0.8-0.3-4.1,0.8-4.6c1.2-0.5,2.5-0.7,3.8-0.7c1,0,0.7,3.4,1.7,3.8c1.2,0.5,3.5-1.9,4.3-1.1c0.8,0.9,1.4,1.9,1.8,3
				c0.4,1.1-3.5,2.2-3.6,3.4C292.8,260.5,296.7,261.7,296.3,262.6z"/>
			<path opacity="0.95" fill="#FFFFFF" d="M290.8,260.5c-0.8,1.2-1.9,1.6-3.2,1c-1.3-0.6-1.8-1.4-1.5-3c0.2-1.4,1.3-2.1,2.7-1.5
				C290,257.4,291.5,259.2,290.8,260.5z"/>
			<path id="color:2" fill="#BA47FC" d="M263.5,273.8c0.5,1.2,0.8,2.4,0.8,3.6c0,1.2-4.2,1.3-4.7,2.4c-0.4,0.9,2.4,3.4,1.7,4.2
				c-0.8,0.8-2.4,1.5-3.5,2c-1.3,0.6-2.4-3.5-3.8-3.6c-1.1-0.1-2.9,2.7-3.9,2.3c-1-0.4-1.9-2.9-2.3-3.9c-0.5-1,2.3-1.6,2.3-2.7
				c-0.1-1.2-3.3-2.6-2.9-3.7c0.4-1.2,1.2-2.3,2.1-3.3c0.7-0.7,3,1.8,3.9,1.4c1.2-0.5,1-3.9,2.1-3.9c1.2,0,2.4,0.2,3.4,0.7
				c1.1,0.5-0.8,4.1,0.1,5C259.6,275,263.1,272.9,263.5,273.8z"/>
			<path opacity="0.95" fill="#FFFFFF" d="M258.1,276.4c0.4,1.4-0.2,2.5-1.5,3.1c-1.3,0.6-2.2,0.3-3.3-1c-0.9-1.1-0.6-2.4,0.7-3
				C255.4,275,257.8,275.1,258.1,276.4z"/>
			<path id="color:2" fill="#BA47FC" d="M278.4,318.6c-0.8,1-1.7,1.8-2.8,2.4c-1.1,0.6-3.1-3.1-4.3-3c-1,0.1-1.9,3.7-2.9,3.4
				c-1.1-0.3-2.5-1.4-3.4-2.1c-1.1-0.9,2-3.8,1.4-5c-0.5-1-3.7-1.2-3.8-2.3c-0.1-1,1.6-3,2.3-3.9c0.7-0.9,2.5,1.3,3.4,0.8
				c1-0.6,0.7-4.1,1.9-4.3c1.3-0.2,2.6-0.1,3.9,0.3c1,0.3-0.2,3.5,0.6,4.1c1,0.8,3.9-1,4.4,0.1c0.6,1,0.9,2.2,1,3.3
				c0.1,1.2-4,1.2-4.3,2.4C275.6,315.7,279.1,317.8,278.4,318.6z"/>
			<path opacity="0.95" fill="#FFFFFF" d="M273.6,315.1c-1,1-2.3,1-3.4,0.2c-1.1-0.9-1.4-1.8-0.7-3.3c0.6-1.3,1.8-1.7,3-0.8
				S274.6,314.1,273.6,315.1z"/>
			<path id="color:2" fill="#BA47FC" d="M293.6,304.3c-1.2-0.3-2.4-0.8-3.3-1.4c-1-0.7,1.4-4.2,0.8-5.2c-0.5-0.9-4.2,0-4.4-1.1
				c-0.2-1.1,0.1-2.9,0.4-4c0.3-1.4,4.3,0.1,5.1-1c0.7-0.9-0.5-3.9,0.4-4.5c0.9-0.5,3.4,0.2,4.5,0.4c1.1,0.2-0.1,2.8,0.8,3.4
				c1,0.6,4-1.1,4.6-0.2c0.7,1.1,1.2,2.3,1.4,3.6c0.2,1-3.2,1.4-3.4,2.4c-0.3,1.2,2.6,3,1.9,4c-0.7,1-1.6,1.8-2.6,2.4
				c-1,0.6-2.8-3-4.1-2.8C294.9,300.5,294.6,304.5,293.6,304.3z"/>
			<path opacity="0.95" fill="#FFFFFF" d="M294.6,298.4c-1.3-0.5-1.9-1.6-1.6-3c0.3-1.4,1-2,2.7-2.1c1.4-0.1,2.3,0.9,2.1,2.3
				S296,298.9,294.6,298.4z"/>
			<path id="color:2" fill="#BA47FC" d="M337.2,281.6c-0.6,1.1-1.5,2-2.4,2.7c-1,0.7-3.5-2.7-4.7-2.4c-1,0.2-1.4,3.9-2.4,3.8
				c-1.1-0.1-2.7-1-3.7-1.6c-1.2-0.7,1.4-4.1,0.7-5.2c-0.6-0.9-3.9-0.7-4.1-1.8c-0.2-1,1.2-3.2,1.8-4.2c0.6-1,2.7,1,3.5,0.3
				c0.9-0.7,0.2-4.2,1.3-4.5c1.2-0.4,2.6-0.4,3.9-0.2c1,0.2,0.3,3.5,1.2,4c1.1,0.6,3.7-1.5,4.4-0.5c0.7,1,1.2,2,1.4,3.2
				c0.3,1.2-3.8,1.7-4,2.9C333.9,279.2,337.7,280.7,337.2,281.6z"/>
			<path opacity="0.95" fill="#FFFFFF" d="M331.9,278.8c-0.9,1.1-2.1,1.3-3.3,0.6c-1.2-0.7-1.6-1.6-1.1-3.2c0.4-1.4,1.6-1.9,2.8-1.2
				C331.5,275.7,332.8,277.7,331.9,278.8z"/>
			<path id="color:2" fill="#BA47FC" d="M330,318.3c0.5,1.2,0.7,2.4,0.7,3.6c0,1.2-4.2,1.2-4.7,2.3c-0.4,0.9,2.3,3.5,1.6,4.2
				c-0.8,0.8-2.4,1.5-3.5,2c-1.3,0.6-2.4-3.6-3.7-3.7c-1.1-0.1-2.9,2.6-3.9,2.2c-0.9-0.4-1.8-2.9-2.2-3.9c-0.4-1,2.4-1.6,2.4-2.6
				c0-1.2-3.2-2.7-2.8-3.7c0.5-1.2,1.2-2.3,2.2-3.2c0.7-0.7,2.9,1.9,3.9,1.5c1.2-0.5,1-3.9,2.2-3.8c1.2,0,2.3,0.3,3.4,0.8
				c1.1,0.5-0.9,4.1,0,5C326.1,319.4,329.7,317.3,330,318.3z"/>
			<path opacity="0.95" fill="#FFFFFF" d="M324.6,320.8c0.3,1.4-0.2,2.5-1.5,3c-1.3,0.6-2.3,0.3-3.2-1c-0.9-1.1-0.6-2.4,0.7-3
				C321.9,319.2,324.3,319.4,324.6,320.8z"/>
			<path id="color:2" fill="#BA47FC" d="M355,203.6c-1,0.8-2.1,1.3-3.3,1.6c-1.2,0.3-2.3-3.7-3.5-3.9c-1-0.2-2.7,3.2-3.6,2.7
				c-1-0.5-2.1-1.9-2.8-2.8c-0.9-1.1,2.8-3.3,2.5-4.6c-0.2-1.1-3.3-2.1-3.2-3.2c0.2-1,2.3-2.5,3.2-3.2c0.9-0.7,2.1,1.9,3.2,1.5
				c1.1-0.3,1.7-3.8,2.8-3.7c1.3,0.1,2.5,0.5,3.7,1.2c0.9,0.5-1,3.3-0.3,4.2c0.8,1,4-0.1,4.3,1.1c0.3,1.1,0.4,2.3,0.2,3.5
				c-0.2,1.2-4.1,0.3-4.8,1.3C352.8,200.1,355.7,203,355,203.6z"/>
			<path opacity="0.95" fill="#FFFFFF" d="M351.1,199.1c-1.2,0.7-2.4,0.5-3.3-0.6c-0.9-1.1-0.9-2.1,0.1-3.4c0.9-1.1,2.2-1.2,3.1-0.1
				C351.8,196.1,352.3,198.4,351.1,199.1z"/>
		</g>
		<g id="border">
			<polygon id="bottom" fill="none" points="235,150 355,150 355,240 235,240 			"/>
			
				<polygon id="front" opacity="0.25" fill="none" stroke="#000000" stroke-miterlimit="10" stroke-dasharray="1,3" enable-background="new    " points="
				265,30 325,30 355,150 235,150 			"/>
			
				<polygon id="back" opacity="0.25" fill="none" stroke="#000000" stroke-miterlimit="10" stroke-dasharray="1,3" enable-background="new    " points="
				325,360 265,360 235,240 355,240 			"/>
			
				<polygon id="right" opacity="0.25" fill="none" stroke="#000000" stroke-miterlimit="10" stroke-dasharray="1,3" enable-background="new    " points="
				115,210 115,180 235,150 235,240 			"/>
			
				<polygon id="left" opacity="0.25" fill="none" stroke="#000000" stroke-miterlimit="10" stroke-dasharray="1,3" enable-background="new    " points="
				475,180 475,210 355,240 355,150 			"/>
		</g>
		<g id="outline" display="none">
			<polygon display="inline" fill="none" stroke="#000000" stroke-miterlimit="10" points="325,10 265,10 265,30 255,40 225,140 
				235,150 115,180 115,210 235,240 225,250 255,350 265,360 265,380 325,380 325,360 335,350 365,250 355,240 475,210 475,180 
				355,150 365,140 335,40 325,30 			"/>
			<line display="inline" fill="none" stroke="#000000" stroke-miterlimit="10" x1="250" y1="175" x2="340" y2="175"/>
			<line display="inline" fill="none" stroke="#000000" stroke-miterlimit="10" x1="250" y1="215" x2="340" y2="215"/>
		</g>
	</g>
</g>
</svg>
