<?xml version="1.0" encoding="utf-8"?>
<!-- Generator: Adobe Illustrator 16.0.0, SVG Export Plug-In . SVG Version: 6.00 Build 0)  -->
<!DOCTYPE svg PUBLIC "-//W3C//DTD SVG 1.1//EN" "http://www.w3.org/Graphics/SVG/1.1/DTD/svg11.dtd">
<svg version="1.1" id="Layer" xmlns="http://www.w3.org/2000/svg" xmlns:xlink="http://www.w3.org/1999/xlink" x="0px" y="0px"
	 width="590px" height="445px" viewBox="0 0 590 445" enable-background="new 0 0 590 445" xml:space="preserve">
<g id="part">
	<g id="armLeft">
		<g id="background">
			<polygon id="color:skin" fill="#F4F4E1" points="445,315 490,315 490,345 445,345 			"/>
			<polygon id="color:skin" fill="#F4F4E1" points="460,225 475,225 490,315 445,315 			"/>
			<polygon id="color:skin" fill="#F4F4E1" points="445,345 490,345 475,435 460,435 			"/>
			<polygon id="color:skin" fill="#F4F4E1" points="580,330 490,345 490,315 			"/>
			<polygon id="color:skin" fill="#F4F4E1" points="355,330 445,315 445,345 			"/>
		</g>
		<g id="foreground">
			<line fill="none" stroke="#000000" stroke-miterlimit="10" x1="456.1" y1="345" x2="456.1" y2="330"/>
			<line fill="none" stroke="#000000" stroke-miterlimit="10" x1="467.1" y1="345" x2="467.1" y2="330"/>
			<line fill="none" stroke="#000000" stroke-miterlimit="10" x1="478.1" y1="345" x2="478.1" y2="330"/>
			<polygon id="color:1" fill="#666666" points="459.9,225 474.9,225 484.9,285 449.9,285 			"/>
			<polygon id="color:1" fill="#666666" points="579.9,330 519.9,340 519.9,320 			"/>
			<polygon id="color:1" fill="#666666" points="354.9,330 414.9,320 414.9,340 			"/>
			<polygon id="color:2" fill="#333333" points="486,292.4 448.6,292.4 449.9,285 484.9,285 			"/>
			<line fill="none" stroke="#000000" stroke-miterlimit="10" x1="449.9" y1="285" x2="484.9" y2="285"/>
			<line fill="none" stroke="#000000" stroke-miterlimit="10" x1="486" y1="292.4" x2="448.6" y2="292.4"/>
			<polygon id="color:1" fill="#666666" points="474.8,435 459.8,435 449.8,375 484.8,375 			"/>
			<polygon id="color:2" fill="#333333" points="448.7,367.6 486.1,367.6 484.8,375 449.8,375 			"/>
			<line fill="none" stroke="#000000" stroke-miterlimit="10" x1="484.8" y1="375" x2="449.8" y2="375"/>
			<line fill="none" stroke="#000000" stroke-miterlimit="10" x1="448.7" y1="367.6" x2="486.1" y2="367.6"/>
			<polygon id="color:2" fill="#333333" points="422.3,318.8 422.3,341.2 414.9,339.9 414.9,320 			"/>
			<line fill="none" stroke="#000000" stroke-miterlimit="10" x1="414.9" y1="320" x2="414.9" y2="340"/>
			<line fill="none" stroke="#000000" stroke-miterlimit="10" x1="422.3" y1="318.8" x2="422.3" y2="341.2"/>
			<polygon id="color:2" fill="#333333" points="512.5,341.2 512.5,318.8 519.9,320.1 519.9,340 			"/>
			<line fill="none" stroke="#000000" stroke-miterlimit="10" x1="512.5" y1="318.8" x2="512.5" y2="341.2"/>
			<line fill="none" stroke="#000000" stroke-miterlimit="10" x1="519.9" y1="320" x2="519.9" y2="340"/>
		</g>
		<g id="border">
			<polygon id="front" fill="none" points="445,315 490,315 490,345 445,345 			"/>
			<polygon id="top" opacity="0.25" fill="none" stroke="#000000" stroke-dasharray="1,3" enable-background="new    " points="
				460,225 475,225 490,315 445,315 			"/>
			
				<polygon id="bottom" opacity="0.25" fill="none" stroke="#000000" stroke-dasharray="1,3" enable-background="new    " points="
				445,345 490,345 475,435 460,435 			"/>
			<polygon id="left" opacity="0.25" fill="none" stroke="#000000" stroke-dasharray="1,3" enable-background="new    " points="
				580,330 490,345 490,315 			"/>
			
				<polygon id="right" opacity="0.25" fill="none" stroke="#000000" stroke-dasharray="1,3" enable-background="new    " points="
				355,330 445,315 445,345 			"/>
		</g>
		<g id="outline" display="none">
			<polygon display="inline" fill="none" stroke="#000000" stroke-miterlimit="10" points="475,225 500,305 490,315 580,330 
				490,345 500,355 475,435 460,435 435,355 445,345 355,330 445,315 435,305 460,225 			"/>
		</g>
	</g>
	<g id="armRight">
		<g id="background">
			<polygon id="color:skin" fill="#F4F4E1" points="100,315 145,315 145,345 100,345 			"/>
			<polygon id="color:skin" fill="#F4F4E1" points="115,225 130,225 145,315 100,315 			"/>
			<polygon id="color:skin" fill="#F4F4E1" points="100,345 145,345 130,435 115,435 			"/>
			<polygon id="color:skin" fill="#F4F4E1" points="235,330 145,345 145,315 			"/>
			<polygon id="color:skin" fill="#F4F4E1" points="10,330 100,315 100,345 			"/>
		</g>
		<g id="foreground">
			<line fill="none" stroke="#000000" stroke-miterlimit="10" x1="111.2" y1="345" x2="111.2" y2="330"/>
			<line fill="none" stroke="#000000" stroke-miterlimit="10" x1="122.2" y1="345" x2="122.2" y2="330"/>
			<line fill="none" stroke="#000000" stroke-miterlimit="10" x1="133.2" y1="345" x2="133.2" y2="330"/>
			<polygon id="color:1" fill="#666666" points="115,225 130,225 140,285 105,285 			"/>
			<polygon id="color:1" fill="#666666" points="235,330 175,340 175,320 			"/>
			<polygon id="color:1" fill="#666666" points="10,330 70,320 70,340 			"/>
			<polygon id="color:2" fill="#333333" points="141.2,292.4 103.8,292.4 105,285 140,285 			"/>
			<line fill="none" stroke="#000000" stroke-miterlimit="10" x1="105" y1="285" x2="140" y2="285"/>
			<line fill="none" stroke="#000000" stroke-miterlimit="10" x1="141.2" y1="292.4" x2="103.8" y2="292.4"/>
			<polygon id="color:1" fill="#666666" points="130,435 115,435 105,375 140,375 			"/>
			<polygon id="color:2" fill="#333333" points="103.8,367.6 141.2,367.6 140,375 105,375 			"/>
			<line fill="none" stroke="#000000" stroke-miterlimit="10" x1="140" y1="375" x2="105" y2="375"/>
			<line fill="none" stroke="#000000" stroke-miterlimit="10" x1="103.8" y1="367.6" x2="141.2" y2="367.6"/>
			<polygon id="color:2" fill="#333333" points="77.4,318.8 77.4,341.2 70,339.9 70,320 			"/>
			<line fill="none" stroke="#000000" stroke-miterlimit="10" x1="70" y1="320" x2="70" y2="340"/>
			<line fill="none" stroke="#000000" stroke-miterlimit="10" x1="77.4" y1="318.8" x2="77.4" y2="341.2"/>
			<polygon id="color:2" fill="#333333" points="167.6,341.2 167.6,318.8 175,320.1 175,340 			"/>
			<line fill="none" stroke="#000000" stroke-miterlimit="10" x1="167.6" y1="318.8" x2="167.6" y2="341.2"/>
			<line fill="none" stroke="#000000" stroke-miterlimit="10" x1="175" y1="320" x2="175" y2="340"/>
		</g>
		<g id="border">
			<polygon id="front" fill="none" points="100,315 145,315 145,345 100,345 			"/>
			<polygon id="top" opacity="0.25" fill="none" stroke="#000000" stroke-dasharray="1,3" enable-background="new    " points="
				115,225 130,225 145,315 100,315 			"/>
			
				<polygon id="bottom" opacity="0.25" fill="none" stroke="#000000" stroke-dasharray="1,3" enable-background="new    " points="
				100,345 145,345 130,435 115,435 			"/>
			<polygon id="left" opacity="0.25" fill="none" stroke="#000000" stroke-dasharray="1,3" enable-background="new    " points="
				235,330 145,345 145,315 			"/>
			
				<polygon id="right" opacity="0.25" fill="none" stroke="#000000" stroke-dasharray="1,3" enable-background="new    " points="
				10,330 100,315 100,345 			"/>
		</g>
		<g id="outline" display="none">
			<polygon display="inline" fill="none" stroke="#000000" stroke-miterlimit="10" points="130,225 155,305 145,315 235,330 
				145,345 155,355 130,435 115,435 90,355 100,345 10,330 100,315 90,305 115,225 			"/>
		</g>
	</g>
	<g id="torso">
		<g id="background">
			<rect id="color:skin" x="265" y="10" fill="#CCBBCC" width="60" height="20"/>
			<rect id="color:skin" x="265" y="360" fill="#CCBBCC" width="60" height="20"/>
			<polygon id="color:skin" fill="#F4F4E1" points="235,150 355,150 355,240 235,240 			"/>
			<polygon id="color:skin" fill="#F4F4E1" points="265,30 325,30 355,150 235,150 			"/>
			<polygon id="color:skin" fill="#F4F4E1" points="325,360 265,360 235,240 355,240 			"/>
			<polygon id="color:skin" fill="#F4F4E1" points="115,210 115,180 235,150 235,240 			"/>
			<polygon id="color:skin" fill="#F4F4E1" points="475,180 475,210 355,240 355,150 			"/>
		</g>
		<g id="foreground">
			<polygon id="color:1" fill="#666666" points="115,210 235,240 265,360 325,360 355,240 475,210 475,180 355,150 325,30 
				300.3,39.6 295,62.6 289.7,39.6 265,30 235,150 115,180 			"/>
			<polygon id="color:2" fill="#333333" points="355,150 307.4,150 309.2,142.6 353.1,142.6 			"/>
			<line fill="none" stroke="#000000" stroke-miterlimit="10" x1="353.1" y1="142.6" x2="309.2" y2="142.6"/>
			<line fill="none" stroke="#000000" stroke-miterlimit="10" x1="355" y1="150" x2="307.4" y2="150"/>
			<polygon id="color:2" fill="#333333" points="296.7,86.3 305.8,45.3 327,38 325,30 300.3,39.6 293.3,70.3 			"/>
			<line fill="none" stroke="#000000" stroke-miterlimit="10" x1="300.3" y1="39.6" x2="293.3" y2="70.3"/>
			<line fill="none" stroke="#000000" stroke-miterlimit="10" x1="305.8" y1="45.3" x2="296.7" y2="86.3"/>
			<polygon id="color:2" fill="#333333" points="307.5,150 235,150 236.8,142.6 306.1,142.6 284.2,45.3 263,38 265,30 289.7,39.6 
				315,150 			"/>
			<line fill="none" stroke="#000000" stroke-miterlimit="10" x1="265" y1="30" x2="289.7" y2="39.6"/>
			<line fill="none" stroke="#000000" stroke-miterlimit="10" x1="289.7" y1="39.6" x2="315" y2="150"/>
			<line fill="none" stroke="#000000" stroke-miterlimit="10" x1="315" y1="150" x2="235" y2="150"/>
			<line fill="none" stroke="#000000" stroke-miterlimit="10" x1="305.9" y1="142.6" x2="236.8" y2="142.6"/>
			<line fill="none" stroke="#000000" stroke-miterlimit="10" x1="305.9" y1="142.6" x2="284.2" y2="45.3"/>
			<line fill="none" stroke="#000000" stroke-miterlimit="10" x1="284.2" y1="45.3" x2="263" y2="38"/>
			<line fill="none" stroke="#000000" stroke-miterlimit="10" x1="325" y1="30" x2="300.3" y2="39.6"/>
			<line fill="none" stroke="#000000" stroke-miterlimit="10" x1="327" y1="38" x2="305.8" y2="45.3"/>
			<polygon id="color:3" fill="#FF0000" points="343.9,105.5 246.1,105.5 249,94 341,94 			"/>
			<line fill="none" stroke="#000000" stroke-miterlimit="10" x1="249" y1="94" x2="341" y2="94"/>
			<line fill="none" stroke="#000000" stroke-miterlimit="10" x1="246.1" y1="105.5" x2="343.9" y2="105.5"/>
			<path id="color:3" fill="#FF0000" stroke="#000000" stroke-miterlimit="10" d="M274.5,99.2h9.2c0,0,8.6,11,10,14.5
				c1.4,3.4,0,14.8,0,14.8h-8.2c0,0-0.2-7.9-1-10.3C282.9,113.1,274.5,99.2,274.5,99.2z"/>
			<path id="color:3" fill="#FF0000" stroke="#000000" stroke-miterlimit="10" d="M275.8,99.2h-9.2c0,0-8.6,11-10,14.5
				c-1.4,3.4,0,14.8,0,14.8h8.2c0,0,0.2-7.9,1-10.3C267.4,113.1,275.8,99.2,275.8,99.2z"/>
			<path id="color:3" fill="#FF0000" stroke="#000000" stroke-miterlimit="10" d="M283.8,100.5c-10.2,16.8-3.9,3.7-8.7,3.7
				s2,13.2-8.7-3.7c-2.6-4,3.9-8.7,8.7-8.7S286.3,96.4,283.8,100.5z"/>
			<polygon id="color:2" fill="#333333" points="235,240 355.1,240 353.2,247.4 236.9,247.4 			"/>
			<line fill="none" stroke="#000000" stroke-miterlimit="10" x1="235" y1="240" x2="355" y2="240"/>
			<line fill="none" stroke="#000000" stroke-miterlimit="10" x1="353.2" y1="247.4" x2="236.9" y2="247.4"/>
			<polygon id="color:2" fill="#333333" points="263.1,352.6 326.8,352.6 325,360 265,360 			"/>
			<line fill="none" stroke="#000000" stroke-miterlimit="10" x1="263.1" y1="352.6" x2="326.8" y2="352.6"/>
			<line fill="none" stroke="#000000" stroke-miterlimit="10" x1="325" y1="360" x2="265" y2="360"/>
			<polygon id="color:2" fill="#333333" points="235,149.9 235,240 227.6,238.2 227.6,151.8 			"/>
			<polygon id="color:3" fill="#FF0000" points="246.2,284.4 343.9,284.4 341,296 249,296 			"/>
			<line fill="none" stroke="#000000" stroke-miterlimit="10" x1="246.2" y1="284.4" x2="343.9" y2="284.4"/>
			<line fill="none" stroke="#000000" stroke-miterlimit="10" x1="341" y1="296" x2="249" y2="296"/>
			<line fill="none" stroke="#000000" stroke-miterlimit="10" x1="227.6" y1="151.8" x2="227.6" y2="238.2"/>
			<line fill="none" stroke="#000000" stroke-miterlimit="10" x1="235" y1="150" x2="235" y2="240"/>
			<polygon id="color:3" fill="#FF0000" points="190.8,161 190.8,228.9 179.2,226.1 179.2,163.9 			"/>
			<line fill="none" stroke="#000000" stroke-miterlimit="10" x1="190.8" y1="161" x2="190.8" y2="228.9"/>
			<line fill="none" stroke="#000000" stroke-miterlimit="10" x1="179.2" y1="163.9" x2="179.2" y2="226.1"/>
			<polygon id="color:2" fill="#333333" points="122.4,178.2 122.4,211.8 115,210 115,180 			"/>
			<line fill="none" stroke="#000000" stroke-miterlimit="10" x1="115" y1="210" x2="115" y2="180"/>
			<line fill="none" stroke="#000000" stroke-miterlimit="10" x1="122.4" y1="178.2" x2="122.4" y2="211.8"/>
			<polygon id="color:2" fill="#333333" points="355,240 355,150 362.4,151.8 362.4,238.2 			"/>
			<line fill="none" stroke="#000000" stroke-miterlimit="10" x1="362.4" y1="238.2" x2="362.4" y2="151.8"/>
			<line fill="none" stroke="#000000" stroke-miterlimit="10" x1="355" y1="240" x2="355" y2="150"/>
			<polygon id="color:3" fill="#FF0000" points="399.2,229 399.2,161 410.8,163.9 410.8,226.1 			"/>
			<line fill="none" stroke="#000000" stroke-miterlimit="10" x1="399.2" y1="229" x2="399.2" y2="161"/>
			<line fill="none" stroke="#000000" stroke-miterlimit="10" x1="410.8" y1="226.1" x2="410.8" y2="163.9"/>
			<polygon id="color:2" fill="#333333" points="467.6,211.8 467.6,178.1 475,180 475,209.9 			"/>
			<line fill="none" stroke="#000000" stroke-miterlimit="10" x1="475" y1="180" x2="475" y2="210"/>
			<line fill="none" stroke="#000000" stroke-miterlimit="10" x1="467.6" y1="211.8" x2="467.6" y2="178.1"/>
		</g>
		<g id="border">
			<polygon id="bottom" fill="none" points="235,150 355,150 355,240 235,240 			"/>
			
				<polygon id="front" opacity="0.25" fill="none" stroke="#000000" stroke-miterlimit="10" stroke-dasharray="1,3" enable-background="new    " points="
				265,30 325,30 355,150 235,150 			"/>
			
				<polygon id="back" opacity="0.25" fill="none" stroke="#000000" stroke-miterlimit="10" stroke-dasharray="1,3" enable-background="new    " points="
				325,360 265,360 235,240 355,240 			"/>
			
				<polygon id="right" opacity="0.25" fill="none" stroke="#000000" stroke-miterlimit="10" stroke-dasharray="1,3" enable-background="new    " points="
				115,210 115,180 235,150 235,240 			"/>
			
				<polygon id="left" opacity="0.25" fill="none" stroke="#000000" stroke-miterlimit="10" stroke-dasharray="1,3" enable-background="new    " points="
				475,180 475,210 355,240 355,150 			"/>
		</g>
		<g id="outline" display="none">
			<polygon display="inline" fill="none" stroke="#000000" stroke-miterlimit="10" points="325,10 265,10 265,30 255,40 225,140 
				235,150 115,180 115,210 235,240 225,250 255,350 265,360 265,380 325,380 325,360 335,350 365,250 355,240 475,210 475,180 
				355,150 365,140 335,40 325,30 			"/>
			<line display="inline" fill="none" stroke="#000000" stroke-miterlimit="10" x1="250" y1="175" x2="340" y2="175"/>
			<line display="inline" fill="none" stroke="#000000" stroke-miterlimit="10" x1="250" y1="215" x2="340" y2="215"/>
		</g>
	</g>
</g>
</svg>
